G04 Layer: TopLayer*
G04 EasyEDA v6.5.9, 2022-07-20 11:51:06*
G04 f1700a5533a94dbab9b25466b2df9886,20d39a695127413eb41274384cfbb926,10*
G04 Gerber Generator version 0.2*
G04 Scale: 100 percent, Rotated: No, Reflected: No *
G04 Dimensions in millimeters *
G04 leading zeros omitted , absolute positions ,4 integer and 5 decimal *
%FSLAX45Y45*%
%MOMM*%

%ADD10C,0.2540*%
%ADD11C,0.5684*%
%ADD12R,1.3500X1.4100*%
%ADD13R,0.5400X0.7901*%
%ADD14R,2.6000X2.0500*%
%ADD15R,1.2000X0.7000*%
%ADD16R,1.2000X0.8000*%
%ADD17R,1.2000X0.9000*%
%ADD18R,1.7280X1.4850*%
%ADD19R,0.5400X0.5657*%
%ADD20C,1.5748*%
%ADD21R,1.5748X1.5748*%
%ADD22C,0.6096*%
%ADD23C,0.6100*%
%ADD24C,1.1000*%
%ADD25C,0.0147*%

%LPD*%
G36*
X2425547Y8395563D02*
G01*
X2421483Y8397494D01*
X2418638Y8400999D01*
X2414727Y8408924D01*
X2407107Y8420303D01*
X2398064Y8430564D01*
X2387803Y8439607D01*
X2376424Y8447227D01*
X2364130Y8453272D01*
X2351176Y8457641D01*
X2337765Y8460333D01*
X2324100Y8461248D01*
X2310434Y8460333D01*
X2297023Y8457641D01*
X2288540Y8454796D01*
X2284831Y8454237D01*
X2281174Y8455101D01*
X2278075Y8457234D01*
X2111705Y8623604D01*
X2109470Y8626906D01*
X2108708Y8630818D01*
X2108708Y8769959D01*
X2109470Y8773820D01*
X2117140Y8784894D01*
X2121103Y8793429D01*
X2123541Y8802573D01*
X2124405Y8812479D01*
X2124405Y8949740D01*
X2123541Y8959646D01*
X2122830Y8964980D01*
X2123897Y8968536D01*
X2126132Y8971483D01*
X2129282Y8973413D01*
X2132939Y8974074D01*
X2266543Y8974074D01*
X2270709Y8973159D01*
X2274163Y8970619D01*
X2276246Y8966860D01*
X2276602Y8962593D01*
X2275179Y8958529D01*
X2272182Y8955481D01*
X2260396Y8947607D01*
X2250135Y8938564D01*
X2241092Y8928303D01*
X2233472Y8916924D01*
X2230221Y8910320D01*
X2278380Y8910320D01*
X2278380Y8963914D01*
X2279142Y8967825D01*
X2281377Y8971076D01*
X2284628Y8973312D01*
X2288540Y8974074D01*
X2359660Y8974074D01*
X2363571Y8973312D01*
X2366822Y8971076D01*
X2369058Y8967825D01*
X2369820Y8963914D01*
X2369820Y8910320D01*
X2417978Y8910320D01*
X2414727Y8916924D01*
X2407107Y8928303D01*
X2398064Y8938564D01*
X2387803Y8947607D01*
X2376017Y8955481D01*
X2373020Y8958529D01*
X2371598Y8962593D01*
X2371953Y8966860D01*
X2374036Y8970619D01*
X2377490Y8973159D01*
X2381656Y8974074D01*
X2427732Y8974074D01*
X2431643Y8973312D01*
X2434894Y8971076D01*
X2437130Y8967825D01*
X2437892Y8963914D01*
X2437892Y8913469D01*
X2436876Y8909100D01*
X2435199Y8906916D01*
X2437130Y8904071D01*
X2437892Y8900160D01*
X2437892Y8829040D01*
X2437130Y8825128D01*
X2435199Y8822283D01*
X2436876Y8820099D01*
X2437892Y8815730D01*
X2437892Y8659469D01*
X2436876Y8655100D01*
X2434082Y8651544D01*
X2430018Y8649563D01*
X2425547Y8649563D01*
X2421483Y8651494D01*
X2418638Y8654999D01*
X2414727Y8662924D01*
X2407107Y8674303D01*
X2398064Y8684564D01*
X2387803Y8693607D01*
X2376424Y8701227D01*
X2364130Y8707272D01*
X2351176Y8711641D01*
X2337765Y8714333D01*
X2324100Y8715248D01*
X2310434Y8714333D01*
X2297023Y8711641D01*
X2284069Y8707272D01*
X2271776Y8701227D01*
X2260396Y8693607D01*
X2250135Y8684564D01*
X2241092Y8674303D01*
X2233472Y8662924D01*
X2227427Y8650630D01*
X2223058Y8637676D01*
X2220366Y8624265D01*
X2219452Y8610600D01*
X2220366Y8596934D01*
X2223058Y8583523D01*
X2227427Y8570569D01*
X2233472Y8558276D01*
X2241092Y8546896D01*
X2250135Y8536635D01*
X2260396Y8527592D01*
X2271776Y8519972D01*
X2284069Y8513927D01*
X2297023Y8509558D01*
X2310434Y8506866D01*
X2324100Y8505952D01*
X2337765Y8506866D01*
X2351176Y8509558D01*
X2364130Y8513927D01*
X2376424Y8519972D01*
X2387803Y8527592D01*
X2398064Y8536635D01*
X2407107Y8546896D01*
X2414727Y8558276D01*
X2418638Y8566200D01*
X2421483Y8569706D01*
X2425547Y8571636D01*
X2430018Y8571636D01*
X2434082Y8569655D01*
X2436876Y8566099D01*
X2437892Y8561730D01*
X2437892Y8405469D01*
X2436876Y8401100D01*
X2434082Y8397544D01*
X2430018Y8395563D01*
G37*

%LPC*%
G36*
X2278380Y8770721D02*
G01*
X2278380Y8818880D01*
X2230221Y8818880D01*
X2233472Y8812276D01*
X2241092Y8800896D01*
X2250135Y8790635D01*
X2260396Y8781592D01*
X2271776Y8773972D01*
G37*
G36*
X2369820Y8770721D02*
G01*
X2376424Y8773972D01*
X2387803Y8781592D01*
X2398064Y8790635D01*
X2407107Y8800896D01*
X2414727Y8812276D01*
X2417978Y8818880D01*
X2369820Y8818880D01*
G37*

%LPD*%
G36*
X2425547Y8141563D02*
G01*
X2421483Y8143494D01*
X2418638Y8146999D01*
X2414727Y8154924D01*
X2407107Y8166303D01*
X2398064Y8176564D01*
X2387803Y8185607D01*
X2376424Y8193227D01*
X2364130Y8199272D01*
X2351176Y8203641D01*
X2337765Y8206333D01*
X2324100Y8207248D01*
X2310434Y8206333D01*
X2297023Y8203641D01*
X2288540Y8200796D01*
X2284831Y8200237D01*
X2281174Y8201101D01*
X2278075Y8203234D01*
X2260752Y8220557D01*
X2254504Y8225688D01*
X2247849Y8229244D01*
X2240635Y8231428D01*
X2232609Y8232241D01*
X2127656Y8232241D01*
X2123643Y8233003D01*
X2120341Y8235340D01*
X2118156Y8238744D01*
X2117496Y8242757D01*
X2118410Y8246668D01*
X2121103Y8252409D01*
X2123541Y8261553D01*
X2124405Y8271459D01*
X2124405Y8284972D01*
X2090674Y8284972D01*
X2090674Y8242401D01*
X2089912Y8238490D01*
X2087676Y8235188D01*
X2084374Y8233003D01*
X2080514Y8232241D01*
X2078380Y8232241D01*
X2074519Y8233003D01*
X2071217Y8235188D01*
X2052523Y8253882D01*
X2050288Y8257184D01*
X2049525Y8261045D01*
X2049525Y8286800D01*
X2047239Y8289086D01*
X2045716Y8291931D01*
X2045207Y8295131D01*
X2045207Y8385048D01*
X2045716Y8388248D01*
X2047239Y8391093D01*
X2049525Y8393379D01*
X2049525Y8463432D01*
X2047239Y8465667D01*
X2045716Y8468563D01*
X2045207Y8471763D01*
X2045207Y8556345D01*
X2045970Y8560257D01*
X2048205Y8563559D01*
X2051507Y8565743D01*
X2055368Y8566505D01*
X2059279Y8565743D01*
X2062530Y8563559D01*
X2223465Y8402624D01*
X2225598Y8399526D01*
X2226462Y8395868D01*
X2225903Y8392160D01*
X2223058Y8383676D01*
X2220366Y8370265D01*
X2219452Y8356600D01*
X2220366Y8342934D01*
X2223058Y8329523D01*
X2227427Y8316569D01*
X2233472Y8304275D01*
X2241092Y8292896D01*
X2250135Y8282635D01*
X2260396Y8273592D01*
X2271776Y8265972D01*
X2284069Y8259927D01*
X2297023Y8255558D01*
X2310434Y8252866D01*
X2324100Y8251952D01*
X2337765Y8252866D01*
X2351176Y8255558D01*
X2364130Y8259927D01*
X2376424Y8265972D01*
X2387803Y8273592D01*
X2398064Y8282635D01*
X2407107Y8292896D01*
X2414727Y8304275D01*
X2418638Y8312200D01*
X2421483Y8315706D01*
X2425547Y8317636D01*
X2430018Y8317636D01*
X2434082Y8315655D01*
X2436876Y8312099D01*
X2437892Y8307730D01*
X2437892Y8151469D01*
X2436876Y8147100D01*
X2434082Y8143544D01*
X2430018Y8141563D01*
G37*

%LPC*%
G36*
X2090674Y8395208D02*
G01*
X2124405Y8395208D01*
X2124405Y8408720D01*
X2123541Y8418626D01*
X2121103Y8427770D01*
X2117140Y8436305D01*
X2111705Y8444077D01*
X2104999Y8450783D01*
X2097227Y8456218D01*
X2090674Y8459266D01*
G37*

%LPD*%
G36*
X1373632Y8014208D02*
G01*
X1369466Y8015122D01*
X1366062Y8017611D01*
X1363929Y8021320D01*
X1363522Y8025536D01*
X1364894Y8029600D01*
X1367790Y8032699D01*
X1369720Y8034020D01*
X1376629Y8040979D01*
X1382928Y8050022D01*
X1385925Y8052917D01*
X1389837Y8054289D01*
X1389837Y8056118D01*
X1390599Y8060029D01*
X1392834Y8063331D01*
X1396136Y8065516D01*
X1399997Y8066278D01*
X1419402Y8066278D01*
X1423263Y8065516D01*
X1426565Y8063331D01*
X1428800Y8060029D01*
X1429562Y8056118D01*
X1429562Y8054390D01*
X1462633Y8054340D01*
X1462633Y8061655D01*
X1461871Y8067954D01*
X1459839Y8073847D01*
X1459280Y8077200D01*
X1459839Y8080552D01*
X1461871Y8086445D01*
X1462633Y8092744D01*
X1462633Y8148218D01*
X1461871Y8154517D01*
X1459992Y8159953D01*
X1456893Y8164880D01*
X1452829Y8168944D01*
X1447952Y8172043D01*
X1444904Y8174939D01*
X1443329Y8178850D01*
X1443482Y8183067D01*
X1445310Y8186826D01*
X1448511Y8189569D01*
X1452524Y8190788D01*
X1463344Y8189366D01*
X1470609Y8189366D01*
X1470609Y8222437D01*
X1468882Y8222437D01*
X1464970Y8223199D01*
X1461668Y8225434D01*
X1459484Y8228736D01*
X1458722Y8232597D01*
X1458722Y8252002D01*
X1459484Y8255863D01*
X1461668Y8259165D01*
X1464970Y8261400D01*
X1468882Y8262162D01*
X1470609Y8262162D01*
X1470609Y8289290D01*
X1452219Y8289290D01*
X1449527Y8289645D01*
X1447088Y8290661D01*
X1443532Y8292744D01*
X1439926Y8294014D01*
X1436370Y8296148D01*
X1433931Y8299551D01*
X1433118Y8303615D01*
X1433118Y8364423D01*
X1383893Y8364423D01*
X1379982Y8365185D01*
X1376730Y8367369D01*
X1372260Y8371840D01*
X1370177Y8374786D01*
X1369314Y8378342D01*
X1369720Y8381949D01*
X1371295Y8387181D01*
X1372108Y8395208D01*
X1372108Y8437422D01*
X1372870Y8441334D01*
X1375105Y8444636D01*
X1378356Y8446820D01*
X1382268Y8447582D01*
X1433118Y8447582D01*
X1433118Y8505444D01*
X1433880Y8509304D01*
X1436065Y8512606D01*
X1439367Y8514842D01*
X1443278Y8515604D01*
X1503121Y8515604D01*
X1507032Y8514842D01*
X1510334Y8512606D01*
X1512519Y8509304D01*
X1513281Y8505444D01*
X1513281Y8447582D01*
X1566621Y8447582D01*
X1566621Y8475929D01*
X1565910Y8482228D01*
X1563979Y8487714D01*
X1560880Y8492591D01*
X1556816Y8496706D01*
X1550924Y8500414D01*
X1547977Y8503208D01*
X1546402Y8506968D01*
X1546402Y8511032D01*
X1547977Y8514791D01*
X1550924Y8517585D01*
X1556816Y8521293D01*
X1560880Y8525408D01*
X1563979Y8530285D01*
X1565910Y8535771D01*
X1566621Y8542070D01*
X1566621Y8595868D01*
X1567078Y8599017D01*
X1568551Y8601811D01*
X1570736Y8604097D01*
X1575155Y8607298D01*
X1580591Y8613241D01*
X1620215Y8666327D01*
X1622348Y8670188D01*
X1623568Y8673134D01*
X1624888Y8677300D01*
X1625549Y8680399D01*
X1626057Y8684768D01*
X1623212Y8779306D01*
X1623974Y8783574D01*
X1626412Y8787079D01*
X1630121Y8789263D01*
X1634439Y8789720D01*
X1638503Y8788400D01*
X1641652Y8785453D01*
X1647494Y8777122D01*
X1654200Y8770416D01*
X1661972Y8764981D01*
X1670507Y8761018D01*
X1679651Y8758529D01*
X1689100Y8757716D01*
X1698548Y8758529D01*
X1707692Y8761018D01*
X1716227Y8764981D01*
X1723999Y8770416D01*
X1730705Y8777122D01*
X1736140Y8784894D01*
X1740103Y8793429D01*
X1742795Y8803436D01*
X1744827Y8807297D01*
X1748282Y8809990D01*
X1752600Y8810955D01*
X1756918Y8809990D01*
X1760372Y8807297D01*
X1762404Y8803436D01*
X1765096Y8793429D01*
X1769059Y8784894D01*
X1774494Y8777122D01*
X1781200Y8770416D01*
X1788972Y8764981D01*
X1797507Y8761018D01*
X1806651Y8758529D01*
X1816100Y8757716D01*
X1825548Y8758529D01*
X1828190Y8759291D01*
X1831898Y8759545D01*
X1835454Y8758529D01*
X1838401Y8756243D01*
X1840331Y8753094D01*
X1840992Y8749436D01*
X1840992Y8471763D01*
X1840331Y8468106D01*
X1838401Y8464956D01*
X1835454Y8462670D01*
X1831898Y8461654D01*
X1828190Y8461908D01*
X1825548Y8462619D01*
X1816100Y8463483D01*
X1806651Y8462619D01*
X1797507Y8460181D01*
X1788972Y8456218D01*
X1781200Y8450783D01*
X1774494Y8444077D01*
X1769059Y8436305D01*
X1765096Y8427770D01*
X1762404Y8417763D01*
X1760372Y8413902D01*
X1756918Y8411210D01*
X1752600Y8410244D01*
X1748282Y8411210D01*
X1744827Y8413902D01*
X1742795Y8417763D01*
X1740103Y8427770D01*
X1736140Y8436305D01*
X1730705Y8444077D01*
X1723999Y8450783D01*
X1716227Y8456218D01*
X1707692Y8460181D01*
X1698548Y8462619D01*
X1689100Y8463483D01*
X1679651Y8462619D01*
X1670507Y8460181D01*
X1661972Y8456218D01*
X1654200Y8450783D01*
X1647494Y8444077D01*
X1642059Y8436305D01*
X1638096Y8427770D01*
X1635658Y8418626D01*
X1634794Y8408720D01*
X1634794Y8343747D01*
X1634185Y8340344D01*
X1632457Y8337296D01*
X1630730Y8335213D01*
X1627174Y8328558D01*
X1624990Y8321344D01*
X1624228Y8313318D01*
X1624228Y8182457D01*
X1623466Y8178647D01*
X1621383Y8175447D01*
X1618234Y8173212D01*
X1614525Y8172297D01*
X1610664Y8172856D01*
X1607566Y8173974D01*
X1601216Y8174685D01*
X1548384Y8174685D01*
X1542034Y8173974D01*
X1536598Y8172043D01*
X1531670Y8168944D01*
X1527606Y8164880D01*
X1524508Y8159953D01*
X1522628Y8154517D01*
X1521917Y8148218D01*
X1521917Y8092744D01*
X1522628Y8086445D01*
X1523898Y8082788D01*
X1524457Y8078724D01*
X1523339Y8074812D01*
X1520850Y8071612D01*
X1510080Y8065973D01*
X1503883Y8060842D01*
X1460195Y8017205D01*
X1456893Y8014970D01*
X1452981Y8014208D01*
G37*

%LPC*%
G36*
X1511554Y8189366D02*
G01*
X1518818Y8189366D01*
X1525117Y8190128D01*
X1530553Y8192008D01*
X1535480Y8195106D01*
X1539544Y8199170D01*
X1542643Y8204098D01*
X1544574Y8209534D01*
X1545285Y8215884D01*
X1545285Y8222437D01*
X1511554Y8222437D01*
G37*
G36*
X1511554Y8262162D02*
G01*
X1545285Y8262162D01*
X1545285Y8268716D01*
X1544574Y8275066D01*
X1542643Y8280501D01*
X1539544Y8285429D01*
X1535480Y8289493D01*
X1533347Y8290814D01*
X1530299Y8293862D01*
X1528724Y8297925D01*
X1529029Y8302244D01*
X1531061Y8306053D01*
X1534515Y8308644D01*
X1540154Y8309609D01*
X1546453Y8310321D01*
X1551889Y8312200D01*
X1556816Y8315299D01*
X1560880Y8319363D01*
X1563979Y8324291D01*
X1565910Y8329726D01*
X1566621Y8336076D01*
X1566621Y8364423D01*
X1513281Y8364423D01*
X1513281Y8299450D01*
X1512874Y8296452D01*
X1511554Y8293760D01*
G37*

%LPD*%
G36*
X2425547Y7887563D02*
G01*
X2421483Y7889494D01*
X2418638Y7892999D01*
X2414727Y7900924D01*
X2407107Y7912303D01*
X2398064Y7922564D01*
X2387803Y7931607D01*
X2376424Y7939227D01*
X2364130Y7945272D01*
X2351176Y7949641D01*
X2337765Y7952333D01*
X2324100Y7953248D01*
X2310434Y7952333D01*
X2297023Y7949641D01*
X2284069Y7945272D01*
X2271776Y7939227D01*
X2261819Y7932572D01*
X2259126Y7931302D01*
X2256180Y7930845D01*
X2049018Y7930845D01*
X2045106Y7931607D01*
X2041804Y7933842D01*
X2009089Y7966557D01*
X2007107Y7969402D01*
X2006142Y7972755D01*
X2006447Y7976209D01*
X2007870Y7979409D01*
X2007870Y8040573D01*
X1991664Y8040573D01*
X1987804Y8041335D01*
X1984502Y8043570D01*
X1982266Y8046821D01*
X1981504Y8050733D01*
X1981504Y8117382D01*
X1982266Y8121243D01*
X1984502Y8124545D01*
X1987804Y8126730D01*
X1991664Y8127542D01*
X2007870Y8127542D01*
X2007870Y8164830D01*
X2008632Y8168690D01*
X2010816Y8171992D01*
X2014118Y8174228D01*
X2018030Y8174990D01*
X2021890Y8174228D01*
X2025192Y8171992D01*
X2030526Y8166658D01*
X2036775Y8161528D01*
X2043430Y8157972D01*
X2050643Y8155787D01*
X2058670Y8155025D01*
X2096770Y8155025D01*
X2100681Y8154212D01*
X2103983Y8152028D01*
X2106168Y8148726D01*
X2106930Y8144865D01*
X2106930Y8127542D01*
X2169718Y8127542D01*
X2169718Y8144865D01*
X2170480Y8148726D01*
X2172665Y8152028D01*
X2175967Y8154212D01*
X2179878Y8155025D01*
X2212898Y8155025D01*
X2216759Y8154212D01*
X2220061Y8152028D01*
X2223465Y8148624D01*
X2225598Y8145525D01*
X2226462Y8141868D01*
X2225903Y8138159D01*
X2223058Y8129676D01*
X2220366Y8116265D01*
X2219452Y8102600D01*
X2220366Y8088934D01*
X2223058Y8075523D01*
X2227427Y8062569D01*
X2233472Y8050275D01*
X2241092Y8038896D01*
X2250135Y8028635D01*
X2260396Y8019592D01*
X2271776Y8011972D01*
X2284069Y8005927D01*
X2297023Y8001558D01*
X2310434Y7998866D01*
X2324100Y7997952D01*
X2337765Y7998866D01*
X2351176Y8001558D01*
X2364130Y8005927D01*
X2376424Y8011972D01*
X2387803Y8019592D01*
X2398064Y8028635D01*
X2407107Y8038896D01*
X2414727Y8050275D01*
X2418638Y8058200D01*
X2421483Y8061706D01*
X2425547Y8063636D01*
X2430018Y8063636D01*
X2434082Y8061655D01*
X2436876Y8058099D01*
X2437892Y8053730D01*
X2437892Y7897469D01*
X2436876Y7893100D01*
X2434082Y7889544D01*
X2430018Y7887563D01*
G37*

%LPC*%
G36*
X2106930Y7983880D02*
G01*
X2143252Y7983880D01*
X2149551Y7984591D01*
X2155037Y7986522D01*
X2159914Y7989570D01*
X2164029Y7993684D01*
X2167077Y7998561D01*
X2169007Y8004048D01*
X2169718Y8010347D01*
X2169718Y8040573D01*
X2106930Y8040573D01*
G37*

%LPD*%
G36*
X1936750Y7840268D02*
G01*
X1932686Y7841132D01*
X1929282Y7843520D01*
X1927148Y7847075D01*
X1925777Y7851038D01*
X1922729Y7855915D01*
X1918614Y7860030D01*
X1913737Y7863078D01*
X1908251Y7865008D01*
X1901952Y7865719D01*
X1831898Y7865719D01*
X1828038Y7866481D01*
X1824736Y7868666D01*
X1726895Y7966557D01*
X1724660Y7969859D01*
X1723898Y7973720D01*
X1724660Y7977631D01*
X1726895Y7980934D01*
X1730146Y7983118D01*
X1734057Y7983880D01*
X1766570Y7983880D01*
X1766570Y8040573D01*
X1724507Y8040573D01*
X1720545Y8041386D01*
X1717243Y8043672D01*
X1715058Y8047075D01*
X1714398Y8051088D01*
X1718310Y8065516D01*
X1719173Y8075269D01*
X1718310Y8085074D01*
X1715770Y8094573D01*
X1711604Y8103463D01*
X1705965Y8111540D01*
X1704289Y8115604D01*
X1704492Y8119973D01*
X1706524Y8123885D01*
X1710029Y8126577D01*
X1714296Y8127542D01*
X1766570Y8127542D01*
X1766570Y8184184D01*
X1730248Y8184184D01*
X1723948Y8183473D01*
X1718462Y8181594D01*
X1716989Y8180628D01*
X1712925Y8179155D01*
X1708657Y8179511D01*
X1704898Y8181594D01*
X1702307Y8185048D01*
X1701444Y8189264D01*
X1701444Y8210600D01*
X1702155Y8214359D01*
X1704187Y8217560D01*
X1707286Y8219795D01*
X1716227Y8223961D01*
X1723999Y8229396D01*
X1730705Y8236102D01*
X1736140Y8243874D01*
X1740103Y8252409D01*
X1742795Y8262416D01*
X1744827Y8266277D01*
X1748282Y8268970D01*
X1752600Y8269935D01*
X1756918Y8268970D01*
X1760372Y8266277D01*
X1762404Y8262416D01*
X1765096Y8252409D01*
X1769059Y8243874D01*
X1774494Y8236102D01*
X1781200Y8229396D01*
X1788972Y8223961D01*
X1797507Y8219998D01*
X1806651Y8217509D01*
X1816100Y8216696D01*
X1825548Y8217509D01*
X1835708Y8220303D01*
X1839772Y8220862D01*
X1843735Y8219744D01*
X1846884Y8217153D01*
X1852675Y8210143D01*
X1862683Y8200136D01*
X1864868Y8196834D01*
X1865630Y8192973D01*
X1865630Y8127542D01*
X1894128Y8127542D01*
X1898040Y8126730D01*
X1901291Y8124545D01*
X1903526Y8121243D01*
X1904288Y8117382D01*
X1904288Y8050733D01*
X1903526Y8046821D01*
X1901291Y8043570D01*
X1898040Y8041335D01*
X1894128Y8040573D01*
X1865630Y8040573D01*
X1865630Y7983880D01*
X1894586Y7983880D01*
X1898243Y7983220D01*
X1901393Y7981238D01*
X1903628Y7978292D01*
X1904695Y7974736D01*
X1905101Y7970621D01*
X1907286Y7963408D01*
X1910842Y7956702D01*
X1915972Y7950504D01*
X1983384Y7883042D01*
X1985568Y7879740D01*
X1986381Y7875879D01*
X1985568Y7871968D01*
X1983384Y7868666D01*
X1980082Y7866481D01*
X1976221Y7865719D01*
X1971548Y7865719D01*
X1965248Y7865008D01*
X1959762Y7863078D01*
X1954885Y7860030D01*
X1950770Y7855915D01*
X1947722Y7851038D01*
X1946351Y7847075D01*
X1944217Y7843520D01*
X1940814Y7841132D01*
G37*

%LPD*%
G36*
X975715Y7729524D02*
G01*
X971499Y7730185D01*
X967841Y7732522D01*
X965555Y7736179D01*
X964946Y7740396D01*
X966165Y7744561D01*
X969873Y7751318D01*
X973886Y7762138D01*
X976325Y7773416D01*
X977137Y7784896D01*
X976325Y7796428D01*
X973886Y7807706D01*
X969873Y7818526D01*
X964336Y7828635D01*
X957427Y7837881D01*
X949248Y7846009D01*
X940003Y7852968D01*
X929894Y7858455D01*
X919073Y7862519D01*
X907796Y7864957D01*
X895908Y7865821D01*
X806653Y7865821D01*
X794766Y7864957D01*
X783488Y7862519D01*
X772668Y7858455D01*
X762558Y7852968D01*
X753313Y7846009D01*
X745134Y7837881D01*
X744220Y7836611D01*
X741070Y7833868D01*
X737057Y7832598D01*
X732891Y7833055D01*
X729234Y7835188D01*
X726795Y7838592D01*
X725932Y7842707D01*
X725932Y8591092D01*
X726795Y8595207D01*
X729234Y8598611D01*
X732891Y8600744D01*
X737057Y8601202D01*
X741070Y8599932D01*
X744220Y8597188D01*
X745134Y8595918D01*
X753313Y8587790D01*
X762558Y8580831D01*
X772668Y8575344D01*
X783488Y8571280D01*
X794766Y8568842D01*
X806653Y8567978D01*
X895908Y8567978D01*
X907796Y8568842D01*
X919073Y8571280D01*
X929894Y8575344D01*
X940003Y8580831D01*
X949248Y8587790D01*
X957427Y8595918D01*
X964336Y8605164D01*
X969873Y8615273D01*
X973886Y8626094D01*
X976325Y8637371D01*
X977137Y8648903D01*
X976325Y8660384D01*
X973886Y8671661D01*
X969873Y8682482D01*
X964336Y8692642D01*
X957427Y8701887D01*
X949248Y8710015D01*
X940003Y8716924D01*
X929894Y8722461D01*
X919073Y8726525D01*
X907796Y8728964D01*
X895908Y8729827D01*
X806653Y8729827D01*
X794766Y8728964D01*
X783488Y8726525D01*
X772668Y8722461D01*
X762558Y8716924D01*
X753313Y8710015D01*
X745134Y8701887D01*
X744220Y8700617D01*
X741070Y8697874D01*
X737057Y8696604D01*
X732891Y8697061D01*
X729234Y8699195D01*
X726795Y8702598D01*
X725932Y8706713D01*
X725932Y8963914D01*
X726694Y8967825D01*
X728929Y8971076D01*
X732180Y8973312D01*
X736092Y8974074D01*
X1250086Y8974074D01*
X1254302Y8973159D01*
X1257757Y8970619D01*
X1259789Y8966860D01*
X1260144Y8962542D01*
X1258671Y8958529D01*
X1257808Y8957106D01*
X1255928Y8951671D01*
X1255217Y8945321D01*
X1255217Y8867495D01*
X1255928Y8861145D01*
X1257960Y8855252D01*
X1258519Y8851900D01*
X1257960Y8848547D01*
X1255928Y8842654D01*
X1255217Y8836304D01*
X1255217Y8823502D01*
X1288237Y8823502D01*
X1288237Y8830818D01*
X1288999Y8834729D01*
X1291234Y8838031D01*
X1294536Y8840216D01*
X1298397Y8840978D01*
X1317802Y8840978D01*
X1321663Y8840216D01*
X1324965Y8838031D01*
X1327200Y8834729D01*
X1327962Y8830818D01*
X1327962Y8823502D01*
X1361033Y8823502D01*
X1361033Y8836304D01*
X1360271Y8842654D01*
X1358239Y8848547D01*
X1357680Y8851900D01*
X1358239Y8855252D01*
X1360220Y8860993D01*
X1362405Y8864549D01*
X1365758Y8866936D01*
X1369822Y8867800D01*
X1436878Y8867800D01*
X1440942Y8866936D01*
X1444294Y8864549D01*
X1446479Y8860993D01*
X1448460Y8855252D01*
X1449019Y8851900D01*
X1448460Y8848547D01*
X1446428Y8842654D01*
X1445717Y8836304D01*
X1445717Y8823502D01*
X1478737Y8823502D01*
X1478737Y8830818D01*
X1479499Y8834729D01*
X1481734Y8838031D01*
X1485036Y8840216D01*
X1488897Y8840978D01*
X1508302Y8840978D01*
X1512163Y8840216D01*
X1515465Y8838031D01*
X1517700Y8834729D01*
X1518462Y8830818D01*
X1518462Y8823502D01*
X1534668Y8823502D01*
X1538478Y8822740D01*
X1541780Y8820658D01*
X1543964Y8817457D01*
X1544828Y8813647D01*
X1545844Y8781796D01*
X1545183Y8777782D01*
X1542999Y8774379D01*
X1539646Y8772093D01*
X1535684Y8771280D01*
X1518462Y8771280D01*
X1518462Y8731961D01*
X1525016Y8731961D01*
X1531366Y8732672D01*
X1534160Y8733688D01*
X1537919Y8734247D01*
X1541627Y8733383D01*
X1544726Y8731250D01*
X1546860Y8728100D01*
X1547672Y8724392D01*
X1547876Y8718905D01*
X1547164Y8714892D01*
X1544980Y8711488D01*
X1541678Y8709202D01*
X1537716Y8708390D01*
X1406245Y8708390D01*
X1399946Y8707678D01*
X1394510Y8705799D01*
X1389583Y8702700D01*
X1385519Y8698636D01*
X1382420Y8693708D01*
X1380490Y8688273D01*
X1379778Y8681923D01*
X1379778Y8601405D01*
X1379016Y8597493D01*
X1376832Y8594191D01*
X1327912Y8545322D01*
X1324914Y8543239D01*
X1321409Y8542375D01*
X1317802Y8542782D01*
X1314602Y8544407D01*
X1311554Y8548014D01*
X1307490Y8552129D01*
X1302562Y8555177D01*
X1299413Y8558326D01*
X1297889Y8562543D01*
X1298346Y8567013D01*
X1300683Y8570823D01*
X1304442Y8573312D01*
X1309878Y8575344D01*
X1319987Y8580831D01*
X1329232Y8587790D01*
X1337411Y8595918D01*
X1344320Y8605164D01*
X1349857Y8615273D01*
X1353870Y8626094D01*
X1356360Y8637371D01*
X1357172Y8648903D01*
X1356360Y8660384D01*
X1353870Y8671661D01*
X1349857Y8682482D01*
X1344320Y8692642D01*
X1337411Y8701887D01*
X1329232Y8710015D01*
X1324356Y8713673D01*
X1321562Y8716822D01*
X1320596Y8720074D01*
X1316939Y8719616D01*
X1312926Y8720785D01*
X1309878Y8722461D01*
X1299057Y8726525D01*
X1296263Y8727135D01*
X1293063Y8728405D01*
X1290523Y8730691D01*
X1288846Y8733688D01*
X1288237Y8737041D01*
X1288237Y8771280D01*
X1255217Y8771280D01*
X1255217Y8758478D01*
X1255928Y8752128D01*
X1257808Y8746693D01*
X1258620Y8745372D01*
X1260094Y8741308D01*
X1259738Y8737041D01*
X1257706Y8733282D01*
X1254252Y8730691D01*
X1250035Y8729827D01*
X1186637Y8729827D01*
X1174750Y8728964D01*
X1163472Y8726525D01*
X1152702Y8722461D01*
X1142542Y8716924D01*
X1133297Y8710015D01*
X1125169Y8701887D01*
X1118260Y8692642D01*
X1112723Y8682482D01*
X1108659Y8671661D01*
X1106220Y8660384D01*
X1105408Y8648903D01*
X1106220Y8637371D01*
X1108659Y8626094D01*
X1112723Y8615273D01*
X1118260Y8605164D01*
X1125169Y8595918D01*
X1133297Y8587790D01*
X1142542Y8580831D01*
X1152702Y8575344D01*
X1158189Y8573262D01*
X1161948Y8570823D01*
X1164285Y8566962D01*
X1164742Y8562543D01*
X1163218Y8558326D01*
X1160068Y8555126D01*
X1155242Y8552129D01*
X1151128Y8548014D01*
X1148080Y8543137D01*
X1146149Y8537651D01*
X1145438Y8531352D01*
X1145438Y8515756D01*
X1195019Y8515756D01*
X1195019Y8557818D01*
X1195781Y8561730D01*
X1197965Y8565032D01*
X1201267Y8567216D01*
X1205179Y8567978D01*
X1257554Y8567978D01*
X1261414Y8567216D01*
X1264716Y8565032D01*
X1266952Y8561730D01*
X1267714Y8557818D01*
X1267714Y8515756D01*
X1285646Y8515756D01*
X1289761Y8514892D01*
X1293164Y8512403D01*
X1295298Y8508796D01*
X1295755Y8504580D01*
X1294892Y8495792D01*
X1294892Y8468207D01*
X1294130Y8464346D01*
X1291894Y8461044D01*
X1288643Y8458809D01*
X1284732Y8458047D01*
X1267714Y8458047D01*
X1267714Y8444941D01*
X1266952Y8441080D01*
X1264716Y8437778D01*
X1261414Y8435594D01*
X1257554Y8434781D01*
X1205179Y8434781D01*
X1201267Y8435594D01*
X1197965Y8437778D01*
X1195781Y8441080D01*
X1195019Y8444941D01*
X1195019Y8458047D01*
X1145438Y8458047D01*
X1145438Y8442452D01*
X1146149Y8436152D01*
X1148435Y8429599D01*
X1148943Y8424113D01*
X1148384Y8421166D01*
X1146098Y8414664D01*
X1145387Y8408314D01*
X1145387Y8329472D01*
X1146098Y8323122D01*
X1147521Y8318957D01*
X1148130Y8315604D01*
X1147521Y8312251D01*
X1145946Y8307628D01*
X1145235Y8301329D01*
X1145235Y8232444D01*
X1145946Y8226145D01*
X1147978Y8220252D01*
X1148537Y8216900D01*
X1147978Y8213547D01*
X1145946Y8207654D01*
X1145235Y8201304D01*
X1145235Y8132470D01*
X1145946Y8126120D01*
X1147673Y8121192D01*
X1148232Y8117840D01*
X1147673Y8114436D01*
X1146352Y8110677D01*
X1145641Y8104327D01*
X1145641Y8025485D01*
X1146352Y8019135D01*
X1148638Y8012633D01*
X1149146Y8008213D01*
X1148435Y8004200D01*
X1146149Y7997647D01*
X1145438Y7991348D01*
X1145438Y7975752D01*
X1195019Y7975752D01*
X1195019Y7988858D01*
X1195781Y7992719D01*
X1197965Y7996021D01*
X1201267Y7998206D01*
X1205179Y7999018D01*
X1257554Y7999018D01*
X1261414Y7998206D01*
X1264716Y7996021D01*
X1266952Y7992719D01*
X1267714Y7988858D01*
X1267714Y7975752D01*
X1287221Y7975752D01*
X1291132Y7974990D01*
X1294434Y7972755D01*
X1318564Y7948675D01*
X1324762Y7943545D01*
X1331468Y7939989D01*
X1338681Y7937804D01*
X1345996Y7937042D01*
X1350162Y7935722D01*
X1353362Y7932724D01*
X1355039Y7928660D01*
X1354836Y7924342D01*
X1354175Y7921904D01*
X1353312Y7912100D01*
X1354175Y7902295D01*
X1356715Y7892796D01*
X1360881Y7883906D01*
X1366062Y7876540D01*
X1367434Y7873746D01*
X1367891Y7870698D01*
X1367891Y7825282D01*
X1366926Y7820914D01*
X1364183Y7817408D01*
X1360220Y7815427D01*
X1355801Y7815275D01*
X1351737Y7817053D01*
X1348790Y7820406D01*
X1344320Y7828635D01*
X1337411Y7837881D01*
X1329232Y7846009D01*
X1319987Y7852968D01*
X1309878Y7858455D01*
X1304442Y7860487D01*
X1300683Y7862976D01*
X1298346Y7866786D01*
X1297889Y7871256D01*
X1299413Y7875473D01*
X1302562Y7878622D01*
X1307490Y7881670D01*
X1311554Y7885785D01*
X1314653Y7890662D01*
X1316532Y7896148D01*
X1317244Y7902448D01*
X1317244Y7918043D01*
X1267714Y7918043D01*
X1267714Y7875981D01*
X1266952Y7872069D01*
X1264716Y7868767D01*
X1261414Y7866583D01*
X1257554Y7865821D01*
X1205179Y7865821D01*
X1201267Y7866583D01*
X1197965Y7868767D01*
X1195781Y7872069D01*
X1195019Y7875981D01*
X1195019Y7918043D01*
X1145438Y7918043D01*
X1145438Y7902448D01*
X1146149Y7896148D01*
X1148080Y7890662D01*
X1151128Y7885785D01*
X1155242Y7881670D01*
X1160068Y7878673D01*
X1163218Y7875473D01*
X1164742Y7871256D01*
X1164285Y7866837D01*
X1161948Y7862976D01*
X1158189Y7860538D01*
X1152702Y7858455D01*
X1142542Y7852968D01*
X1133297Y7846009D01*
X1125169Y7837881D01*
X1118260Y7828635D01*
X1112723Y7818526D01*
X1108659Y7807706D01*
X1106220Y7796428D01*
X1105408Y7784896D01*
X1106220Y7773416D01*
X1108659Y7762138D01*
X1112723Y7751318D01*
X1114247Y7748422D01*
X1115466Y7744459D01*
X1114958Y7740294D01*
X1112824Y7736687D01*
X1109421Y7734249D01*
X1105357Y7733436D01*
X994562Y7733436D01*
X986536Y7732623D01*
G37*

%LPC*%
G36*
X1327962Y8731453D02*
G01*
X1330452Y8731961D01*
X1334516Y8731961D01*
X1340866Y8732672D01*
X1346301Y8734602D01*
X1351229Y8737701D01*
X1355293Y8741765D01*
X1358392Y8746693D01*
X1360271Y8752128D01*
X1361033Y8758478D01*
X1361033Y8771280D01*
X1327962Y8771280D01*
G37*
G36*
X1472184Y8731961D02*
G01*
X1478737Y8731961D01*
X1478737Y8771280D01*
X1445717Y8771280D01*
X1445717Y8758478D01*
X1446428Y8752128D01*
X1448308Y8746693D01*
X1451406Y8741765D01*
X1455470Y8737701D01*
X1460398Y8734602D01*
X1465834Y8732672D01*
G37*

%LPD*%
G36*
X1676704Y7678064D02*
G01*
X1673047Y7679029D01*
X1669948Y7681264D01*
X1667916Y7684465D01*
X1667205Y7688224D01*
X1667205Y7763154D01*
X1666493Y7769453D01*
X1664563Y7774940D01*
X1661515Y7779816D01*
X1657400Y7783931D01*
X1651812Y7787436D01*
X1648917Y7790180D01*
X1647291Y7793786D01*
X1647189Y7797749D01*
X1648612Y7801457D01*
X1652066Y7806994D01*
X1653997Y7812430D01*
X1654708Y7818780D01*
X1654708Y7826857D01*
X1625142Y7826857D01*
X1625142Y7799781D01*
X1624380Y7795869D01*
X1622196Y7792618D01*
X1618894Y7790383D01*
X1614982Y7789621D01*
X1602587Y7789621D01*
X1598726Y7790383D01*
X1595424Y7792618D01*
X1593240Y7795869D01*
X1592427Y7799781D01*
X1592427Y7826857D01*
X1560169Y7826857D01*
X1560169Y7799781D01*
X1559356Y7795869D01*
X1557172Y7792618D01*
X1553870Y7790383D01*
X1550009Y7789621D01*
X1537614Y7789621D01*
X1533702Y7790383D01*
X1530400Y7792618D01*
X1528216Y7795869D01*
X1527454Y7799781D01*
X1527454Y7826857D01*
X1495145Y7826857D01*
X1495145Y7799781D01*
X1494383Y7795869D01*
X1492199Y7792618D01*
X1488897Y7790383D01*
X1484985Y7789621D01*
X1472590Y7789621D01*
X1468729Y7790383D01*
X1465427Y7792618D01*
X1463243Y7795869D01*
X1462430Y7799781D01*
X1462430Y7830058D01*
X1460398Y7833258D01*
X1459687Y7837017D01*
X1459687Y7859369D01*
X1460398Y7863128D01*
X1462430Y7866329D01*
X1462430Y7890662D01*
X1462786Y7893303D01*
X1465224Y7902295D01*
X1466088Y7912100D01*
X1465224Y7921904D01*
X1464564Y7924342D01*
X1464360Y7928660D01*
X1466037Y7932724D01*
X1469237Y7935722D01*
X1473403Y7937042D01*
X1480718Y7937804D01*
X1487932Y7939989D01*
X1494637Y7943545D01*
X1500835Y7948675D01*
X1530553Y7978343D01*
X1533702Y7980476D01*
X1537360Y7981340D01*
X1542034Y7980425D01*
X1548384Y7979714D01*
X1600301Y7979714D01*
X1604162Y7978952D01*
X1607464Y7976768D01*
X1711706Y7872526D01*
X1713941Y7869224D01*
X1714703Y7865313D01*
X1713941Y7861452D01*
X1711706Y7858150D01*
X1709470Y7855915D01*
X1706422Y7851038D01*
X1704492Y7845552D01*
X1703781Y7839252D01*
X1703781Y7696352D01*
X1702866Y7692186D01*
X1700326Y7688732D01*
X1696567Y7686649D01*
X1692198Y7685328D01*
X1685493Y7681772D01*
X1683816Y7680350D01*
X1680464Y7678521D01*
G37*

%LPC*%
G36*
X1625142Y7869529D02*
G01*
X1654708Y7869529D01*
X1654708Y7877606D01*
X1653997Y7883956D01*
X1652066Y7889392D01*
X1649018Y7894320D01*
X1644904Y7898384D01*
X1640027Y7901482D01*
X1634540Y7903413D01*
X1628241Y7904124D01*
X1625142Y7904124D01*
G37*
G36*
X1495145Y7869529D02*
G01*
X1527454Y7869529D01*
X1527454Y7904073D01*
X1524355Y7904073D01*
X1518056Y7903362D01*
X1514652Y7902194D01*
X1511300Y7901635D01*
X1507947Y7902194D01*
X1504543Y7903362D01*
X1498244Y7904073D01*
X1495145Y7904073D01*
G37*
G36*
X1560169Y7869529D02*
G01*
X1592427Y7869529D01*
X1592427Y7904124D01*
X1589379Y7904124D01*
X1583029Y7903413D01*
X1579626Y7902194D01*
X1576273Y7901635D01*
X1572920Y7902194D01*
X1569567Y7903362D01*
X1563217Y7904073D01*
X1560169Y7904073D01*
G37*

%LPD*%
G36*
X1212748Y7392771D02*
G01*
X1208836Y7393533D01*
X1205534Y7395718D01*
X1090828Y7510475D01*
X1088644Y7513726D01*
X1087882Y7517638D01*
X1088644Y7521498D01*
X1090828Y7524800D01*
X1092098Y7526070D01*
X1095197Y7530998D01*
X1097127Y7536434D01*
X1097838Y7542784D01*
X1097838Y7595616D01*
X1097127Y7601966D01*
X1095197Y7607401D01*
X1092098Y7612329D01*
X1088034Y7616393D01*
X1083106Y7619492D01*
X1077671Y7621371D01*
X1071321Y7622082D01*
X1000506Y7622082D01*
X996645Y7622895D01*
X993343Y7625080D01*
X991108Y7628381D01*
X990346Y7632242D01*
X991108Y7636154D01*
X993343Y7639456D01*
X1007110Y7653223D01*
X1010412Y7655407D01*
X1014272Y7656220D01*
X1111554Y7656220D01*
X1115872Y7655255D01*
X1119378Y7652562D01*
X1157782Y7652562D01*
X1161288Y7655255D01*
X1165606Y7656220D01*
X1186230Y7656220D01*
X1190548Y7655255D01*
X1194054Y7652562D01*
X1198118Y7652562D01*
X1202029Y7651800D01*
X1205331Y7649565D01*
X1207516Y7646263D01*
X1208278Y7642402D01*
X1208278Y7622997D01*
X1207516Y7619136D01*
X1205331Y7615834D01*
X1202029Y7613599D01*
X1198118Y7612837D01*
X1196390Y7612837D01*
X1196390Y7579766D01*
X1203655Y7579766D01*
X1209954Y7580528D01*
X1215847Y7582560D01*
X1219200Y7583119D01*
X1222552Y7582560D01*
X1228445Y7580528D01*
X1234744Y7579766D01*
X1264462Y7579766D01*
X1268120Y7579106D01*
X1271320Y7577124D01*
X1273556Y7574127D01*
X1274572Y7570520D01*
X1274876Y7566914D01*
X1277416Y7557414D01*
X1281582Y7548524D01*
X1287221Y7540498D01*
X1294180Y7533538D01*
X1302207Y7527899D01*
X1311097Y7523734D01*
X1320596Y7521194D01*
X1330401Y7520330D01*
X1340205Y7521194D01*
X1349705Y7523734D01*
X1353413Y7525512D01*
X1357376Y7526426D01*
X1361389Y7525766D01*
X1364792Y7523581D01*
X1367078Y7520279D01*
X1368602Y7508443D01*
X1370533Y7503007D01*
X1373581Y7498080D01*
X1377696Y7494016D01*
X1382572Y7490917D01*
X1388059Y7488986D01*
X1394358Y7488275D01*
X1405686Y7488275D01*
X1409598Y7487513D01*
X1412900Y7485329D01*
X1415084Y7482027D01*
X1415846Y7478115D01*
X1415084Y7474254D01*
X1412900Y7470952D01*
X1347927Y7405979D01*
X1344625Y7403795D01*
X1340713Y7402982D01*
X1238199Y7402982D01*
X1231849Y7402271D01*
X1226413Y7400391D01*
X1221486Y7397292D01*
X1219911Y7395718D01*
X1216609Y7393533D01*
G37*

%LPC*%
G36*
X1148181Y7579766D02*
G01*
X1155446Y7579766D01*
X1155446Y7612837D01*
X1121714Y7612837D01*
X1121714Y7606284D01*
X1122426Y7599934D01*
X1124356Y7594498D01*
X1127455Y7589570D01*
X1131519Y7585506D01*
X1136446Y7582408D01*
X1141882Y7580528D01*
G37*

%LPD*%
D10*
X1175918Y7632700D02*
G01*
X1175918Y7538618D01*
X1168400Y7531100D01*
X1816100Y8084058D02*
G01*
X1816100Y7962900D01*
X2057400Y8084058D02*
G01*
X2057400Y7962900D01*
X2070100Y8340089D02*
G01*
X2070100Y8483600D01*
X1473200Y8406003D02*
G01*
X1560703Y8406003D01*
X1600200Y8445500D01*
X1536700Y7924800D02*
G01*
X1543812Y7917687D01*
X1543812Y7848092D01*
X1478787Y7848193D02*
G01*
X1543786Y7848193D01*
X1608810Y7848193D02*
G01*
X1543786Y7848193D01*
X1231366Y7946900D02*
G01*
X1177800Y7946900D01*
X1130300Y7899400D01*
X1231366Y8486899D02*
G01*
X1190500Y8486899D01*
X1130300Y8547100D01*
X1219200Y8788400D02*
G01*
X1228089Y8797289D01*
X1308100Y8797289D01*
X1409700Y8788400D02*
G01*
X1418589Y8797289D01*
X1498600Y8797289D01*
X1662813Y8120484D02*
G01*
X1662813Y8313803D01*
X1689102Y8340092D01*
X1662813Y8075297D02*
G01*
X1662813Y8120484D01*
X1262484Y7632702D02*
G01*
X1318694Y7632702D01*
X1318694Y7632702D02*
G01*
X1318694Y7588430D01*
X1330403Y7576720D01*
X2070102Y8881112D02*
G01*
X2070102Y8610602D01*
X2324102Y8356602D01*
X1943102Y8881112D02*
G01*
X2006602Y8817612D01*
X2006602Y8245198D01*
X2058189Y8193610D01*
X2233094Y8193610D01*
X2324102Y8102602D01*
X1511302Y7605651D02*
G01*
X1511302Y7661201D01*
X1543789Y7573164D02*
G01*
X1511302Y7605651D01*
X1478790Y7573164D02*
G01*
X1478815Y7573164D01*
X1511302Y7605651D01*
X1478790Y7573164D02*
G01*
X1478790Y7602120D01*
X1478790Y7544208D02*
G01*
X1478790Y7573164D01*
X923394Y7569202D02*
G01*
X923394Y7624117D01*
X923394Y7624117D02*
G01*
X994082Y7694805D01*
X1321107Y7694805D01*
X1413791Y7602120D01*
X923394Y7541745D02*
G01*
X923394Y7569202D01*
X923394Y7541745D02*
G01*
X923394Y7514287D01*
X1967511Y7531610D02*
G01*
X1967511Y7649517D01*
X1608813Y7551574D02*
G01*
X1608813Y7602120D01*
X1608813Y7544208D02*
G01*
X1608813Y7551574D01*
X1967511Y7649517D02*
G01*
X1967334Y7649695D01*
X1706933Y7649695D01*
X1608813Y7551574D01*
X1413791Y7544208D02*
G01*
X1413791Y7602120D01*
X1413791Y7602120D02*
G01*
X1478790Y7602120D01*
X1543789Y7573164D02*
G01*
X1543789Y7602120D01*
X1543789Y7544208D02*
G01*
X1543789Y7573164D01*
X1608813Y7602120D02*
G01*
X1543789Y7602120D01*
X923394Y7514287D02*
G01*
X897613Y7488506D01*
X897613Y7277102D01*
X2324102Y7848602D02*
G01*
X2280465Y7892239D01*
X2028802Y7892239D01*
X1942899Y7978142D01*
X1942899Y8174509D01*
X1879602Y8237806D01*
X1879602Y8817612D01*
X1816102Y8881112D01*
X1873277Y7765544D02*
G01*
X1930427Y7765544D01*
X1816102Y7765544D02*
G01*
X1873277Y7765544D01*
X1273634Y7277102D02*
G01*
X1450901Y7454369D01*
X1733908Y7454369D01*
X1774598Y7413678D01*
X1842493Y7413678D01*
X1273634Y7277102D02*
G01*
X1209677Y7277102D01*
X1337591Y7277102D02*
G01*
X1273634Y7277102D01*
X1842493Y7531610D02*
G01*
X1842493Y7413678D01*
X1842493Y7413678D02*
G01*
X1847166Y7409004D01*
X2029970Y7409004D01*
X2057402Y7436436D01*
X2057402Y7663385D01*
X2057402Y7714465D02*
G01*
X1981507Y7714465D01*
X1930427Y7765544D01*
X2057402Y7714465D02*
G01*
X2057402Y7663385D01*
X2057402Y7765544D02*
G01*
X2057402Y7714465D01*
X2324102Y7594602D02*
G01*
X2217447Y7594602D01*
X2057400Y7663434D02*
G01*
X2126234Y7594600D01*
X2217420Y7594600D01*
X1032410Y7569202D02*
G01*
X1032410Y7514287D01*
X1032410Y7514287D02*
G01*
X1209677Y7337021D01*
X1209677Y7277102D01*
X1689102Y8881112D02*
G01*
X1581330Y8881112D01*
X1581330Y8881112D02*
G01*
X1578815Y8881112D01*
X1553517Y8906410D01*
X1498602Y8906410D02*
G01*
X1308102Y8906410D01*
X1498602Y8906410D02*
G01*
X1553517Y8906410D01*
X1873280Y7765542D02*
G01*
X1604904Y8033918D01*
X1574800Y8033918D01*
X1562100Y8115297D02*
G01*
X1650113Y8115300D01*
X1581330Y8881112D02*
G01*
X1587500Y8686800D01*
X1473200Y8611870D02*
G01*
X1549400Y8636000D01*
X1587500Y8686800D01*
X1404518Y8242300D02*
G01*
X1379931Y8266887D01*
X1231137Y8266887D01*
X1409700Y8120481D02*
G01*
X1363294Y8166887D01*
X1231137Y8166887D01*
X1409700Y8033915D02*
G01*
X1442615Y8033915D01*
X1473200Y8064500D01*
X1491081Y8242300D02*
G01*
X1574800Y8242300D01*
X1231290Y8368893D02*
G01*
X1307693Y8368893D01*
X1333500Y8394700D01*
X1333500Y8496300D01*
X1449196Y8611996D01*
X1473200Y8611996D01*
X1231544Y8064906D02*
G01*
X1256893Y8064906D01*
X1346200Y7975600D01*
X1473200Y7975600D01*
X1531518Y8033918D01*
X1574800Y8033918D01*
X1413791Y7848196D02*
G01*
X1409700Y7852290D01*
X1409700Y7912100D01*
X1307693Y8368893D02*
G01*
X1307693Y8357006D01*
X1333500Y8331200D01*
X1333500Y8077200D02*
G01*
X1321307Y8065008D01*
X1231645Y8065008D01*
D11*
X1689100Y8409180D02*
G01*
X1689100Y8270999D01*
X1816100Y8409180D02*
G01*
X1816100Y8270999D01*
X1943100Y8409180D02*
G01*
X1943100Y8270999D01*
X2070100Y8409180D02*
G01*
X2070100Y8270999D01*
X1689100Y8950200D02*
G01*
X1689100Y8812019D01*
X1816100Y8950200D02*
G01*
X1816100Y8812019D01*
X1943100Y8950200D02*
G01*
X1943100Y8812019D01*
X2070100Y8950200D02*
G01*
X2070100Y8812019D01*
G36*
X1405699Y8476500D02*
G01*
X1540700Y8476500D01*
X1540700Y8335500D01*
X1405699Y8335500D01*
G37*
D12*
G01*
X1473200Y8611996D03*
G36*
X1281099Y8836898D02*
G01*
X1335100Y8836898D01*
X1335100Y8757889D01*
X1281099Y8757889D01*
G37*
D13*
G01*
X1308100Y8906408D03*
G36*
X1237599Y7377099D02*
G01*
X1437599Y7377099D01*
X1437599Y7177100D01*
X1237599Y7177100D01*
G37*
G36*
X797600Y7377099D02*
G01*
X997600Y7377099D01*
X997600Y7177100D01*
X797600Y7177100D01*
G37*
G36*
X1802500Y7621595D02*
G01*
X1882500Y7621595D01*
X1882500Y7441595D01*
X1802500Y7441595D01*
G37*
G36*
X1927499Y7621595D02*
G01*
X2007499Y7621595D01*
X2007499Y7441595D01*
X1927499Y7441595D01*
G37*
G36*
X1494998Y7421598D02*
G01*
X1674997Y7421598D01*
X1674997Y7131596D01*
X1494998Y7131596D01*
G37*
G36*
X2134991Y7421598D02*
G01*
X2314991Y7421598D01*
X2314991Y7131596D01*
X2134991Y7131596D01*
G37*
D14*
G01*
X1511300Y7661198D03*
G36*
X1393789Y7574201D02*
G01*
X1433789Y7574201D01*
X1433789Y7514198D01*
X1393789Y7514198D01*
G37*
G36*
X1458788Y7574201D02*
G01*
X1498787Y7574201D01*
X1498787Y7514198D01*
X1458788Y7514198D01*
G37*
G36*
X1523786Y7574201D02*
G01*
X1563786Y7574201D01*
X1563786Y7514198D01*
X1523786Y7514198D01*
G37*
G36*
X1588810Y7574201D02*
G01*
X1628810Y7574201D01*
X1628810Y7514198D01*
X1588810Y7514198D01*
G37*
G36*
X1393789Y7878201D02*
G01*
X1433789Y7878201D01*
X1433789Y7818201D01*
X1393789Y7818201D01*
G37*
G36*
X1458788Y7878188D02*
G01*
X1498787Y7878188D01*
X1498787Y7818188D01*
X1458788Y7818188D01*
G37*
G36*
X1523786Y7878188D02*
G01*
X1563786Y7878188D01*
X1563786Y7818188D01*
X1523786Y7818188D01*
G37*
G36*
X1588810Y7878188D02*
G01*
X1628810Y7878188D01*
X1628810Y7818188D01*
X1588810Y7818188D01*
G37*
D15*
G01*
X1231137Y8266887D03*
G01*
X1231137Y8166887D03*
D16*
G01*
X1231290Y8368893D03*
G01*
X1231544Y8064906D03*
D17*
G01*
X1231366Y8486902D03*
G01*
X1231366Y7946897D03*
G36*
X1970999Y7839798D02*
G01*
X2143800Y7839798D01*
X2143800Y7691300D01*
X1970999Y7691300D01*
G37*
D18*
G01*
X2057400Y8084058D03*
G36*
X1729699Y7839798D02*
G01*
X1902500Y7839798D01*
X1902500Y7691300D01*
X1729699Y7691300D01*
G37*
G01*
X1816100Y8084058D03*
G36*
X1471599Y8836898D02*
G01*
X1525600Y8836898D01*
X1525600Y8757889D01*
X1471599Y8757889D01*
G37*
D13*
G01*
X1498600Y8906408D03*
G36*
X1204198Y7659700D02*
G01*
X1204198Y7605699D01*
X1147635Y7605699D01*
X1147635Y7659700D01*
G37*
G36*
X1234201Y7659700D02*
G01*
X1234201Y7605699D01*
X1290764Y7605699D01*
X1290764Y7659700D01*
G37*
G36*
X1547799Y8062198D02*
G01*
X1601800Y8062198D01*
X1601800Y8005635D01*
X1547799Y8005635D01*
G37*
D19*
G01*
X1574800Y8120481D03*
G36*
X962898Y7596200D02*
G01*
X962898Y7542199D01*
X883889Y7542199D01*
X883889Y7596200D01*
G37*
G36*
X992901Y7596200D02*
G01*
X992901Y7542199D01*
X1071910Y7542199D01*
X1071910Y7596200D01*
G37*
G36*
X1436700Y8092201D02*
G01*
X1382699Y8092201D01*
X1382699Y8148764D01*
X1436700Y8148764D01*
G37*
G01*
X1409700Y8033918D03*
G36*
X1432798Y8269300D02*
G01*
X1432798Y8215299D01*
X1376235Y8215299D01*
X1376235Y8269300D01*
G37*
G36*
X1462801Y8269300D02*
G01*
X1462801Y8215299D01*
X1519364Y8215299D01*
X1519364Y8269300D01*
G37*
D20*
G01*
X2324100Y8864600D03*
G01*
X2324100Y8610600D03*
G01*
X2324100Y8356600D03*
G01*
X2324100Y8102600D03*
G01*
X2324100Y7848600D03*
D21*
G01*
X2324100Y7594600D03*
D22*
G01*
X1130300Y8547100D03*
G01*
X1130300Y7899400D03*
G01*
X1168400Y7531100D03*
G01*
X1536700Y7924800D03*
G01*
X1816100Y7962900D03*
G01*
X2057400Y7962900D03*
G01*
X1600200Y8445500D03*
G01*
X2070100Y8483600D03*
G01*
X1219200Y8788400D03*
G01*
X1409700Y8788400D03*
D23*
G01*
X1662811Y8075295D03*
G01*
X1409700Y7912100D03*
G01*
X1330401Y7576718D03*
D22*
G01*
X1574800Y8242300D03*
G01*
X1473200Y8064500D03*
G01*
X1333500Y8077200D03*
G01*
X1333500Y8331200D03*
D24*
X1276291Y7784896D02*
G01*
X1186291Y7784896D01*
X1276291Y8648903D02*
G01*
X1186291Y8648903D01*
X896282Y8648903D02*
G01*
X806282Y8648903D01*
X896282Y7784896D02*
G01*
X806282Y7784896D01*
M02*
