G04 Layer: BottomSolderMaskLayer*
G04 EasyEDA v6.5.9, 2022-07-20 11:51:06*
G04 f1700a5533a94dbab9b25466b2df9886,20d39a695127413eb41274384cfbb926,10*
G04 Gerber Generator version 0.2*
G04 Scale: 100 percent, Rotated: No, Reflected: No *
G04 Dimensions in millimeters *
G04 leading zeros omitted , absolute positions ,4 integer and 5 decimal *
%FSLAX45Y45*%
%MOMM*%

%ADD10C,1.2016*%
%ADD11C,1.6764*%

%LPD*%
D10*
X1276291Y7784896D02*
G01*
X1186291Y7784896D01*
X1276291Y8648903D02*
G01*
X1186291Y8648903D01*
X896282Y8648903D02*
G01*
X806282Y8648903D01*
X896282Y7784896D02*
G01*
X806282Y7784896D01*
D11*
G01*
X2324100Y8864600D03*
G01*
X2324100Y8610600D03*
G01*
X2324100Y8356600D03*
G01*
X2324100Y8102600D03*
G01*
X2324100Y7848600D03*
G36*
X2245359Y7510779D02*
G01*
X2243835Y7511034D01*
X2242311Y7511795D01*
X2241295Y7512812D01*
X2240533Y7514336D01*
X2240279Y7515860D01*
X2240279Y7515860D01*
X2240279Y7673339D01*
X2240279Y7673339D01*
X2240533Y7674863D01*
X2241295Y7676387D01*
X2242311Y7677404D01*
X2243835Y7678165D01*
X2245359Y7678420D01*
X2402840Y7678420D01*
X2404364Y7678165D01*
X2405888Y7677404D01*
X2406904Y7676387D01*
X2407666Y7674863D01*
X2407920Y7673339D01*
X2407920Y7673339D01*
X2407920Y7515860D01*
X2407920Y7515860D01*
X2407666Y7514336D01*
X2406904Y7512812D01*
X2405888Y7511795D01*
X2404364Y7511034D01*
X2402840Y7510779D01*
G37*
M02*
