G04 Layer: BottomSilkscreenLayer*
G04 EasyEDA v6.5.9, 2022-07-20 11:51:06*
G04 f1700a5533a94dbab9b25466b2df9886,20d39a695127413eb41274384cfbb926,10*
G04 Gerber Generator version 0.2*
G04 Scale: 100 percent, Rotated: No, Reflected: No *
G04 Dimensions in millimeters *
G04 leading zeros omitted , absolute positions ,4 integer and 5 decimal *
%FSLAX45Y45*%
%MOMM*%

%ADD10C,0.2032*%

%LPD*%
G36*
X1727962Y8060131D02*
G01*
X1714042Y8059877D01*
X1700174Y8059267D01*
X1679448Y8057743D01*
X1665782Y8056270D01*
X1652219Y8054492D01*
X1638807Y8052409D01*
X1625650Y8050022D01*
X1612696Y8047380D01*
X1600047Y8044383D01*
X1587703Y8041131D01*
X1575714Y8037626D01*
X1564081Y8033867D01*
X1552905Y8029803D01*
X1542135Y8025536D01*
X1531924Y8021015D01*
X1522171Y8016290D01*
X1513027Y8011312D01*
X1504442Y8006130D01*
X1496517Y8000746D01*
X1489252Y7995158D01*
X1482699Y7989417D01*
X1470761Y7977581D01*
X1467002Y7974177D01*
X1463395Y7971383D01*
X1459738Y7969046D01*
X1455775Y7967167D01*
X1451406Y7965541D01*
X1446276Y7964170D01*
X1440332Y7962900D01*
X1424787Y7960410D01*
X1405686Y7957667D01*
X1389583Y7954975D01*
X1376527Y7952079D01*
X1371092Y7950555D01*
X1366418Y7948879D01*
X1362405Y7947152D01*
X1359154Y7945323D01*
X1356664Y7943291D01*
X1354836Y7941157D01*
X1353718Y7938820D01*
X1353312Y7936331D01*
X1353616Y7933588D01*
X1354632Y7930692D01*
X1356309Y7927543D01*
X1358696Y7924139D01*
X1361744Y7920481D01*
X1365453Y7916519D01*
X1374902Y7907731D01*
X1386992Y7897622D01*
X1401927Y7885785D01*
X1415999Y7874152D01*
X1426616Y7864652D01*
X1430274Y7861046D01*
X1432560Y7858455D01*
X1433372Y7856981D01*
X1432661Y7855864D01*
X1430528Y7854238D01*
X1422857Y7849920D01*
X1411427Y7844637D01*
X1381861Y7832496D01*
X1375613Y7829550D01*
X1370431Y7826756D01*
X1366266Y7824012D01*
X1363116Y7821422D01*
X1361033Y7818780D01*
X1359916Y7816189D01*
X1359865Y7813548D01*
X1360779Y7810855D01*
X1362659Y7808010D01*
X1365554Y7805064D01*
X1369415Y7801965D01*
X1374241Y7798663D01*
X1380083Y7795056D01*
X1394561Y7786979D01*
X1405940Y7780172D01*
X1409598Y7777581D01*
X1412036Y7775397D01*
X1413154Y7773619D01*
X1413002Y7772146D01*
X1411579Y7770977D01*
X1408938Y7769961D01*
X1405077Y7769098D01*
X1387652Y7766710D01*
X1382369Y7765694D01*
X1377950Y7764373D01*
X1374394Y7762798D01*
X1371701Y7760919D01*
X1369872Y7758633D01*
X1368907Y7755940D01*
X1368856Y7752791D01*
X1369720Y7749184D01*
X1371447Y7745018D01*
X1374089Y7740243D01*
X1377594Y7734858D01*
X1382064Y7728813D01*
X1393647Y7714640D01*
X1408684Y7697419D01*
X1420164Y7683652D01*
X1423822Y7678724D01*
X1426108Y7675016D01*
X1426972Y7672374D01*
X1426514Y7670850D01*
X1424686Y7670241D01*
X1421485Y7670596D01*
X1416964Y7671765D01*
X1411122Y7673644D01*
X1397152Y7678674D01*
X1391107Y7680553D01*
X1385722Y7681925D01*
X1380947Y7682687D01*
X1376832Y7682941D01*
X1373327Y7682585D01*
X1370380Y7681620D01*
X1368044Y7680096D01*
X1366266Y7677912D01*
X1365046Y7675067D01*
X1364335Y7671562D01*
X1364132Y7667396D01*
X1364437Y7662570D01*
X1365250Y7657033D01*
X1366469Y7650734D01*
X1373479Y7621524D01*
X1374495Y7616088D01*
X1375054Y7611567D01*
X1375206Y7607960D01*
X1374851Y7605166D01*
X1373936Y7603185D01*
X1372514Y7601966D01*
X1370533Y7601458D01*
X1367942Y7601661D01*
X1364742Y7602474D01*
X1356309Y7605928D01*
X1339138Y7614361D01*
X1334109Y7616494D01*
X1329842Y7617815D01*
X1326337Y7618323D01*
X1323543Y7617866D01*
X1321409Y7616494D01*
X1319834Y7614107D01*
X1318869Y7610652D01*
X1318412Y7606080D01*
X1318361Y7600340D01*
X1320139Y7577734D01*
X1320342Y7571282D01*
X1320139Y7565948D01*
X1319530Y7561630D01*
X1318463Y7558328D01*
X1316888Y7556042D01*
X1314805Y7554772D01*
X1312265Y7554468D01*
X1309166Y7555077D01*
X1305509Y7556652D01*
X1301292Y7559141D01*
X1296517Y7562545D01*
X1287932Y7567371D01*
X1279804Y7569250D01*
X1273606Y7568133D01*
X1271016Y7563866D01*
X1270050Y7555230D01*
X1268323Y7545781D01*
X1266393Y7537805D01*
X1264716Y7533690D01*
X1262888Y7533589D01*
X1259230Y7534656D01*
X1254252Y7536637D01*
X1242466Y7542275D01*
X1237488Y7544003D01*
X1233474Y7544460D01*
X1230274Y7543647D01*
X1227683Y7541412D01*
X1225651Y7537703D01*
X1223924Y7532471D01*
X1220470Y7516571D01*
X1218133Y7512608D01*
X1213916Y7512862D01*
X1199896Y7519670D01*
X1194714Y7521702D01*
X1190548Y7522667D01*
X1187196Y7522514D01*
X1184452Y7521092D01*
X1182116Y7518450D01*
X1180033Y7514539D01*
X1174953Y7501381D01*
X1172159Y7498029D01*
X1168146Y7498740D01*
X1155242Y7506512D01*
X1151128Y7507884D01*
X1148181Y7507122D01*
X1145794Y7504226D01*
X1138783Y7492949D01*
X1134262Y7487716D01*
X1130452Y7487412D01*
X1121511Y7493558D01*
X1117650Y7493965D01*
X1113282Y7491730D01*
X1105408Y7485075D01*
X1099312Y7481671D01*
X1090777Y7478115D01*
X1080058Y7474407D01*
X1067511Y7470749D01*
X1053287Y7467092D01*
X1043935Y7464958D01*
X1085494Y7464958D01*
X1086510Y7465923D01*
X1090168Y7466787D01*
X1106525Y7468514D01*
X1125372Y7470140D01*
X1136802Y7471409D01*
X1148334Y7473137D01*
X1159916Y7475220D01*
X1171600Y7477658D01*
X1183335Y7480401D01*
X1195070Y7483551D01*
X1206855Y7487005D01*
X1218641Y7490815D01*
X1230376Y7494930D01*
X1242110Y7499350D01*
X1265326Y7509052D01*
X1276858Y7514336D01*
X1293926Y7522718D01*
X1316177Y7534808D01*
X1327099Y7541209D01*
X1337818Y7547813D01*
X1348333Y7554620D01*
X1358646Y7561630D01*
X1373632Y7572552D01*
X1383334Y7580020D01*
X1392732Y7587691D01*
X1406296Y7599476D01*
X1414932Y7607503D01*
X1423212Y7615631D01*
X1431188Y7623911D01*
X1438757Y7632344D01*
X1445971Y7640828D01*
X1452727Y7649413D01*
X1459077Y7658100D01*
X1465021Y7666888D01*
X1468932Y7673340D01*
X1472336Y7679893D01*
X1475232Y7686344D01*
X1477568Y7692745D01*
X1479346Y7698994D01*
X1480566Y7704988D01*
X1481226Y7710728D01*
X1481328Y7716113D01*
X1480820Y7721142D01*
X1479702Y7725714D01*
X1477975Y7729778D01*
X1474012Y7735620D01*
X1470710Y7742478D01*
X1467510Y7751876D01*
X1464411Y7763256D01*
X1461516Y7776108D01*
X1458976Y7790027D01*
X1456842Y7804454D01*
X1455216Y7818932D01*
X1454150Y7832953D01*
X1453794Y7846009D01*
X1454200Y7858810D01*
X1455064Y7871815D01*
X1456334Y7884159D01*
X1458010Y7895844D01*
X1460195Y7906918D01*
X1462836Y7917434D01*
X1465935Y7927340D01*
X1469593Y7936687D01*
X1473758Y7945526D01*
X1478483Y7953857D01*
X1483817Y7961680D01*
X1489710Y7969046D01*
X1496212Y7976006D01*
X1503375Y7982508D01*
X1511198Y7988604D01*
X1519682Y7994345D01*
X1528826Y7999679D01*
X1538732Y8004759D01*
X1549400Y8009432D01*
X1560779Y8013903D01*
X1572971Y8018068D01*
X1585976Y8021980D01*
X1599742Y8025638D01*
X1614424Y8029143D01*
X1628089Y8032038D01*
X1640382Y8034223D01*
X1652930Y8036052D01*
X1665732Y8037575D01*
X1678686Y8038744D01*
X1698396Y8039862D01*
X1725015Y8040217D01*
X1738375Y8039912D01*
X1751736Y8039303D01*
X1765046Y8038388D01*
X1778254Y8037220D01*
X1791360Y8035696D01*
X1804263Y8033918D01*
X1817014Y8031886D01*
X1829460Y8029549D01*
X1841703Y8026908D01*
X1853590Y8024063D01*
X1865172Y8020964D01*
X1876348Y8017560D01*
X1887067Y8013953D01*
X1897380Y8010093D01*
X1907184Y8005978D01*
X1916430Y8001660D01*
X1925116Y7997088D01*
X1933193Y7992313D01*
X1940661Y7987334D01*
X1947418Y7982102D01*
X1956816Y7973771D01*
X1965096Y7965186D01*
X1972157Y7956346D01*
X1975256Y7951825D01*
X1980590Y7942529D01*
X1982825Y7937804D01*
X1984756Y7932928D01*
X1986381Y7928000D01*
X1987753Y7922971D01*
X1988820Y7917840D01*
X1989582Y7912608D01*
X1990089Y7907223D01*
X1990293Y7901787D01*
X1989836Y7890509D01*
X1989175Y7884668D01*
X1986991Y7872577D01*
X1983638Y7859979D01*
X1979168Y7846771D01*
X1973529Y7832953D01*
X1970328Y7825790D01*
X1962962Y7810957D01*
X1954479Y7795209D01*
X1946808Y7781950D01*
X1943354Y7776565D01*
X1940001Y7771892D01*
X1936597Y7767929D01*
X1933092Y7764525D01*
X1929333Y7761630D01*
X1925167Y7759141D01*
X1920544Y7757007D01*
X1915363Y7755128D01*
X1909470Y7753502D01*
X1902714Y7751927D01*
X1886356Y7748879D01*
X1871878Y7746542D01*
X1862023Y7745425D01*
X1851456Y7744714D01*
X1840280Y7744358D01*
X1828495Y7744307D01*
X1816201Y7744663D01*
X1803501Y7745323D01*
X1790547Y7746288D01*
X1777288Y7747558D01*
X1750466Y7750962D01*
X1737004Y7753045D01*
X1723694Y7755381D01*
X1697583Y7760766D01*
X1672894Y7767015D01*
X1661261Y7770418D01*
X1650238Y7773974D01*
X1639874Y7777683D01*
X1630273Y7781594D01*
X1617472Y7787640D01*
X1610309Y7790738D01*
X1604822Y7791653D01*
X1601266Y7790484D01*
X1600047Y7787182D01*
X1600352Y7785811D01*
X1601317Y7784287D01*
X1602841Y7782610D01*
X1607616Y7778953D01*
X1614373Y7774889D01*
X1622907Y7770520D01*
X1633016Y7765948D01*
X1644396Y7761224D01*
X1656892Y7756448D01*
X1670151Y7751673D01*
X1684070Y7747050D01*
X1698345Y7742631D01*
X1726946Y7734706D01*
X1740865Y7731404D01*
X1754174Y7728610D01*
X1766620Y7726476D01*
X1798675Y7722108D01*
X1803958Y7721041D01*
X1807718Y7719822D01*
X1810004Y7718450D01*
X1810969Y7716774D01*
X1810715Y7714742D01*
X1809292Y7712202D01*
X1806854Y7709103D01*
X1799234Y7700822D01*
X1792630Y7694320D01*
X1785772Y7688681D01*
X1778355Y7683804D01*
X1770329Y7679690D01*
X1766011Y7677912D01*
X1756613Y7674864D01*
X1746148Y7672476D01*
X1734413Y7670647D01*
X1721205Y7669428D01*
X1706422Y7668768D01*
X1689760Y7668514D01*
X1636166Y7669580D01*
X1623161Y7669530D01*
X1613204Y7669225D01*
X1606194Y7668666D01*
X1602232Y7667904D01*
X1601419Y7667447D01*
X1601317Y7666939D01*
X1602028Y7666380D01*
X1605737Y7665212D01*
X1612595Y7663942D01*
X1622602Y7662570D01*
X1635810Y7661148D01*
X1666290Y7658353D01*
X1672082Y7657490D01*
X1677162Y7656474D01*
X1681581Y7655255D01*
X1685340Y7653680D01*
X1688490Y7651750D01*
X1691182Y7649413D01*
X1693418Y7646568D01*
X1695196Y7643215D01*
X1696669Y7639253D01*
X1697837Y7634630D01*
X1698802Y7629296D01*
X1700225Y7616190D01*
X1702765Y7579817D01*
X1668322Y7569860D01*
X1661566Y7568133D01*
X1655825Y7567117D01*
X1650898Y7566863D01*
X1646682Y7567574D01*
X1642872Y7569301D01*
X1639366Y7572248D01*
X1635912Y7576464D01*
X1632407Y7582103D01*
X1628546Y7589266D01*
X1611223Y7624876D01*
X1604314Y7637068D01*
X1601317Y7641590D01*
X1598625Y7645044D01*
X1596339Y7647381D01*
X1594408Y7648651D01*
X1592834Y7648752D01*
X1591716Y7647686D01*
X1591005Y7645400D01*
X1590802Y7641945D01*
X1591106Y7639913D01*
X1593545Y7632293D01*
X1598015Y7620660D01*
X1604162Y7605979D01*
X1611630Y7589012D01*
X1624482Y7561427D01*
X1627428Y7556804D01*
X1631289Y7553045D01*
X1635963Y7550200D01*
X1641297Y7548321D01*
X1647189Y7547406D01*
X1653489Y7547508D01*
X1660093Y7548676D01*
X1666849Y7550912D01*
X1672437Y7553045D01*
X1677670Y7554620D01*
X1682496Y7555585D01*
X1686915Y7555941D01*
X1690979Y7555687D01*
X1694738Y7554823D01*
X1698193Y7553299D01*
X1701292Y7551115D01*
X1704187Y7548219D01*
X1706778Y7544612D01*
X1709166Y7540294D01*
X1711350Y7535214D01*
X1713331Y7529372D01*
X1715160Y7522768D01*
X1716836Y7515352D01*
X1721561Y7488631D01*
X1704797Y7504531D01*
X1698091Y7511338D01*
X1692249Y7518146D01*
X1687830Y7524089D01*
X1683918Y7531353D01*
X1681175Y7533131D01*
X1677466Y7533843D01*
X1672691Y7533436D01*
X1666900Y7531912D01*
X1660143Y7529322D01*
X1652473Y7525664D01*
X1641195Y7519517D01*
X1638452Y7518450D01*
X1635607Y7517638D01*
X1632712Y7517130D01*
X1629664Y7516977D01*
X1626463Y7517079D01*
X1623161Y7517536D01*
X1619656Y7518349D01*
X1615998Y7519466D01*
X1612138Y7520940D01*
X1603857Y7525003D01*
X1599387Y7527544D01*
X1589684Y7533843D01*
X1578965Y7541717D01*
X1567027Y7551166D01*
X1553819Y7562342D01*
X1531366Y7582357D01*
X1522780Y7588859D01*
X1515059Y7592314D01*
X1509572Y7592314D01*
X1507439Y7588656D01*
X1508201Y7587081D01*
X1513789Y7580375D01*
X1523746Y7569860D01*
X1536954Y7556804D01*
X1551787Y7542936D01*
X1558950Y7536535D01*
X1572717Y7525156D01*
X1585569Y7515606D01*
X1597507Y7507884D01*
X1603095Y7504734D01*
X1608429Y7502042D01*
X1613560Y7499858D01*
X1618386Y7498130D01*
X1622958Y7496860D01*
X1627276Y7496098D01*
X1631340Y7495794D01*
X1635048Y7495997D01*
X1638554Y7496657D01*
X1641703Y7497825D01*
X1644599Y7499502D01*
X1656130Y7509256D01*
X1664309Y7513726D01*
X1671269Y7514793D01*
X1676552Y7512303D01*
X1679092Y7509306D01*
X1681988Y7505192D01*
X1687779Y7495641D01*
X1691436Y7488123D01*
X1691690Y7486548D01*
X1687728Y7488783D01*
X1685086Y7488631D01*
X1682648Y7487107D01*
X1680616Y7484465D01*
X1679092Y7480909D01*
X1678279Y7476744D01*
X1678330Y7472324D01*
X1679346Y7467803D01*
X1681480Y7461402D01*
X1681886Y7459065D01*
X1680108Y7460488D01*
X1671777Y7470597D01*
X1669897Y7472172D01*
X1669999Y7470140D01*
X1671624Y7464298D01*
X1672539Y7460081D01*
X1672539Y7456779D01*
X1671574Y7454646D01*
X1669796Y7453884D01*
X1667865Y7454341D01*
X1666290Y7455611D01*
X1665224Y7457440D01*
X1664817Y7459675D01*
X1664258Y7460894D01*
X1662785Y7459878D01*
X1660550Y7456931D01*
X1657908Y7452207D01*
X1653235Y7442962D01*
X1651406Y7437932D01*
X1652270Y7435799D01*
X1655622Y7435392D01*
X1657299Y7435799D01*
X1658518Y7436916D01*
X1659178Y7438593D01*
X1659077Y7442758D01*
X1659940Y7444892D01*
X1661566Y7446670D01*
X1663700Y7447940D01*
X1668627Y7447483D01*
X1669288Y7442657D01*
X1666341Y7436205D01*
X1660245Y7430770D01*
X1656638Y7429042D01*
X1653692Y7428026D01*
X1651711Y7427823D01*
X1650238Y7429093D01*
X1648256Y7428839D01*
X1645310Y7427823D01*
X1641703Y7426147D01*
X1638147Y7423556D01*
X1635353Y7420305D01*
X1633524Y7416698D01*
X1632966Y7413244D01*
X1633321Y7409129D01*
X1633778Y7407757D01*
X1634489Y7409180D01*
X1635658Y7413396D01*
X1637030Y7416546D01*
X1639265Y7419136D01*
X1642059Y7420864D01*
X1645056Y7421473D01*
X1648561Y7421168D01*
X1649526Y7419797D01*
X1648002Y7416901D01*
X1643786Y7411974D01*
X1639214Y7407859D01*
X1634388Y7405319D01*
X1629206Y7404353D01*
X1623415Y7404862D01*
X1619300Y7405573D01*
X1616811Y7405776D01*
X1616100Y7405522D01*
X1619453Y7403338D01*
X1620621Y7401458D01*
X1620926Y7399375D01*
X1619351Y7395464D01*
X1619453Y7394600D01*
X1620520Y7394600D01*
X1624533Y7396683D01*
X1626260Y7397191D01*
X1627378Y7397089D01*
X1627835Y7396378D01*
X1626311Y7394752D01*
X1622348Y7392009D01*
X1616608Y7388555D01*
X1602994Y7381240D01*
X1596593Y7378141D01*
X1591513Y7376007D01*
X1588414Y7375194D01*
X1587703Y7375804D01*
X1587703Y7377379D01*
X1588465Y7379766D01*
X1591665Y7386878D01*
X1592681Y7391704D01*
X1593037Y7397089D01*
X1592732Y7402830D01*
X1591818Y7408824D01*
X1590344Y7415022D01*
X1588363Y7421270D01*
X1585925Y7427468D01*
X1583080Y7433513D01*
X1579829Y7439253D01*
X1576273Y7444638D01*
X1572463Y7449566D01*
X1568399Y7453884D01*
X1564182Y7457490D01*
X1559864Y7460284D01*
X1555394Y7462164D01*
X1548333Y7463993D01*
X1543050Y7464602D01*
X1539595Y7464196D01*
X1538020Y7462824D01*
X1538376Y7460640D01*
X1540662Y7457694D01*
X1544929Y7454087D01*
X1555953Y7446873D01*
X1560068Y7443419D01*
X1563624Y7439659D01*
X1566621Y7435494D01*
X1569008Y7430973D01*
X1570888Y7426096D01*
X1572158Y7420813D01*
X1572920Y7415123D01*
X1573072Y7409078D01*
X1572717Y7402575D01*
X1571752Y7395616D01*
X1570278Y7388301D01*
X1569059Y7383424D01*
X1567586Y7378852D01*
X1565859Y7374432D01*
X1563725Y7370114D01*
X1561236Y7365746D01*
X1558239Y7361275D01*
X1554683Y7356652D01*
X1550517Y7351725D01*
X1540103Y7340650D01*
X1526489Y7327392D01*
X1523136Y7324547D01*
X1519123Y7321702D01*
X1514551Y7318959D01*
X1509471Y7316266D01*
X1498193Y7311186D01*
X1485849Y7306614D01*
X1472996Y7302652D01*
X1460246Y7299502D01*
X1448104Y7297166D01*
X1437284Y7295896D01*
X1428242Y7295743D01*
X1424584Y7296150D01*
X1421587Y7296861D01*
X1419352Y7297978D01*
X1417929Y7299401D01*
X1417370Y7301230D01*
X1417828Y7303414D01*
X1417726Y7308850D01*
X1413510Y7310374D01*
X1407769Y7308088D01*
X1403096Y7302296D01*
X1401013Y7296708D01*
X1399641Y7291171D01*
X1398930Y7285685D01*
X1398879Y7280300D01*
X1399438Y7274966D01*
X1400657Y7269835D01*
X1402435Y7264806D01*
X1404823Y7260031D01*
X1407718Y7255459D01*
X1411224Y7251192D01*
X1415237Y7247178D01*
X1419758Y7243470D01*
X1424787Y7240117D01*
X1430274Y7237171D01*
X1436217Y7234631D01*
X1446987Y7231176D01*
X1449476Y7230109D01*
X1449984Y7229246D01*
X1448308Y7228636D01*
X1444294Y7228179D01*
X1428445Y7227620D01*
X1407515Y7227366D01*
X1393291Y7227468D01*
X1387652Y7227773D01*
X1382877Y7228331D01*
X1378864Y7229246D01*
X1375613Y7230567D01*
X1372971Y7232396D01*
X1370939Y7234732D01*
X1369364Y7237780D01*
X1368145Y7241438D01*
X1367282Y7245908D01*
X1366621Y7251242D01*
X1364945Y7280351D01*
X1363624Y7295337D01*
X1361948Y7309205D01*
X1360119Y7320280D01*
X1357731Y7330897D01*
X1357376Y7336434D01*
X1358290Y7340955D01*
X1360627Y7344613D01*
X1364538Y7347610D01*
X1370076Y7349998D01*
X1377391Y7352030D01*
X1386687Y7353757D01*
X1391615Y7354925D01*
X1396695Y7356906D01*
X1401826Y7359497D01*
X1406956Y7362748D01*
X1411935Y7366457D01*
X1416710Y7370622D01*
X1421180Y7375093D01*
X1425244Y7379868D01*
X1428851Y7384846D01*
X1431899Y7389875D01*
X1434287Y7394905D01*
X1435912Y7399883D01*
X1436979Y7405217D01*
X1437640Y7411008D01*
X1437995Y7417104D01*
X1437640Y7429601D01*
X1437030Y7435545D01*
X1436166Y7441082D01*
X1435100Y7446060D01*
X1433779Y7450226D01*
X1432255Y7453426D01*
X1430578Y7455509D01*
X1428750Y7456220D01*
X1425854Y7455560D01*
X1423974Y7453579D01*
X1423060Y7450429D01*
X1423212Y7446060D01*
X1423822Y7439761D01*
X1423822Y7433716D01*
X1423314Y7427874D01*
X1422247Y7422286D01*
X1420723Y7416952D01*
X1418691Y7411923D01*
X1416151Y7407249D01*
X1413205Y7402931D01*
X1409801Y7398918D01*
X1405991Y7395362D01*
X1401775Y7392212D01*
X1397203Y7389520D01*
X1392275Y7387336D01*
X1386992Y7385608D01*
X1381404Y7384389D01*
X1375460Y7383729D01*
X1361033Y7383119D01*
X1345387Y7382967D01*
X1329537Y7383221D01*
X1314551Y7383780D01*
X1301343Y7384643D01*
X1290929Y7385761D01*
X1284325Y7387031D01*
X1282750Y7387742D01*
X1282496Y7388453D01*
X1284782Y7389926D01*
X1289050Y7390892D01*
X1294790Y7391349D01*
X1307642Y7390942D01*
X1312824Y7391349D01*
X1316329Y7392263D01*
X1317650Y7393635D01*
X1316228Y7395209D01*
X1312316Y7396784D01*
X1306525Y7398156D01*
X1299514Y7399121D01*
X1292606Y7399528D01*
X1287272Y7399426D01*
X1283970Y7398816D01*
X1283258Y7397750D01*
X1283462Y7396327D01*
X1282496Y7394752D01*
X1280566Y7393228D01*
X1277874Y7391908D01*
X1273251Y7390536D01*
X1267917Y7389622D01*
X1262227Y7389215D01*
X1256588Y7389215D01*
X1251356Y7389672D01*
X1246835Y7390536D01*
X1243380Y7391806D01*
X1241399Y7393431D01*
X1241501Y7395057D01*
X1243838Y7396124D01*
X1248054Y7396581D01*
X1261516Y7395972D01*
X1261414Y7396276D01*
X1254658Y7398105D01*
X1251915Y7399629D01*
X1250492Y7401458D01*
X1250797Y7406589D01*
X1246936Y7407503D01*
X1241196Y7406131D01*
X1234338Y7401610D01*
X1232306Y7401001D01*
X1229715Y7400645D01*
X1226616Y7400645D01*
X1218895Y7401559D01*
X1209395Y7403592D01*
X1198219Y7406690D01*
X1185672Y7410856D01*
X1171905Y7415987D01*
X1157173Y7421981D01*
X1141628Y7428839D01*
X1125524Y7436408D01*
X1105255Y7446619D01*
X1098448Y7450328D01*
X1093774Y7453172D01*
X1091184Y7455204D01*
X1090625Y7456424D01*
X1092047Y7456830D01*
X1095400Y7456525D01*
X1111605Y7453985D01*
X1090218Y7462164D01*
X1086815Y7463739D01*
X1085494Y7464958D01*
X1043935Y7464958D01*
X1024344Y7460996D01*
X1060500Y7460996D01*
X1061161Y7461758D01*
X1063599Y7462266D01*
X1067612Y7462418D01*
X1071676Y7462266D01*
X1074115Y7461758D01*
X1074775Y7460996D01*
X1073404Y7460081D01*
X1070711Y7459370D01*
X1067612Y7459116D01*
X1064564Y7459370D01*
X1061872Y7460081D01*
X1060500Y7460996D01*
X1024344Y7460996D01*
X1012444Y7458862D01*
X1010767Y7458252D01*
X1011072Y7457338D01*
X1013206Y7456220D01*
X1017168Y7454849D01*
X1022858Y7453223D01*
X1039063Y7449515D01*
X1054608Y7446365D01*
X1066546Y7443216D01*
X1080109Y7438948D01*
X1094587Y7433919D01*
X1109218Y7428280D01*
X1123442Y7422286D01*
X1148791Y7410856D01*
X1172464Y7401153D01*
X1183995Y7396886D01*
X1195324Y7393025D01*
X1206601Y7389520D01*
X1217828Y7386370D01*
X1229055Y7383576D01*
X1240383Y7381087D01*
X1251813Y7378903D01*
X1263497Y7377023D01*
X1287627Y7374077D01*
X1313230Y7372146D01*
X1347876Y7370267D01*
X1359865Y7369251D01*
X1366875Y7368235D01*
X1368653Y7367676D01*
X1369364Y7367066D01*
X1368958Y7366457D01*
X1367586Y7365796D01*
X1360271Y7363510D01*
X1356004Y7361681D01*
X1352346Y7359548D01*
X1349298Y7357008D01*
X1346860Y7354062D01*
X1344980Y7350658D01*
X1343660Y7346797D01*
X1342948Y7342428D01*
X1342694Y7337501D01*
X1342999Y7332014D01*
X1343812Y7325918D01*
X1346098Y7313828D01*
X1347876Y7300772D01*
X1349197Y7285939D01*
X1349959Y7271105D01*
X1350060Y7245299D01*
X1350467Y7237984D01*
X1351534Y7231888D01*
X1352397Y7229297D01*
X1353566Y7226960D01*
X1354988Y7224877D01*
X1356766Y7223048D01*
X1358950Y7221423D01*
X1361490Y7219950D01*
X1367993Y7217613D01*
X1372006Y7216648D01*
X1381709Y7215124D01*
X1393850Y7213955D01*
X1426768Y7212279D01*
X1492961Y7209942D01*
X1507642Y7209942D01*
X1517446Y7210501D01*
X1520799Y7210958D01*
X1523187Y7211669D01*
X1524812Y7212482D01*
X1525676Y7213498D01*
X1525981Y7214666D01*
X1525270Y7217562D01*
X1523136Y7220356D01*
X1519428Y7223201D01*
X1514094Y7226046D01*
X1507032Y7228992D01*
X1498092Y7232091D01*
X1487170Y7235342D01*
X1457147Y7243622D01*
X1449882Y7246010D01*
X1443431Y7248398D01*
X1437792Y7250785D01*
X1432864Y7253224D01*
X1428648Y7255713D01*
X1425092Y7258253D01*
X1422196Y7260945D01*
X1419860Y7263739D01*
X1418082Y7266736D01*
X1416812Y7269835D01*
X1415440Y7274407D01*
X1414830Y7277811D01*
X1415440Y7280300D01*
X1417726Y7281976D01*
X1422095Y7283094D01*
X1428953Y7283754D01*
X1458417Y7284821D01*
X1471269Y7286244D01*
X1477619Y7287361D01*
X1483868Y7288733D01*
X1490014Y7290358D01*
X1496110Y7292238D01*
X1502054Y7294372D01*
X1513586Y7299350D01*
X1524660Y7305294D01*
X1529943Y7308596D01*
X1540103Y7315911D01*
X1544878Y7319873D01*
X1553972Y7328458D01*
X1562252Y7337856D01*
X1573784Y7351877D01*
X1578356Y7357008D01*
X1582267Y7360818D01*
X1585569Y7363459D01*
X1588465Y7364984D01*
X1591005Y7365339D01*
X1593342Y7364628D01*
X1595577Y7362799D01*
X1597761Y7360056D01*
X1600098Y7356246D01*
X1602638Y7351572D01*
X1605381Y7345273D01*
X1607058Y7339228D01*
X1607667Y7333284D01*
X1607058Y7327341D01*
X1605381Y7321346D01*
X1602486Y7315200D01*
X1598371Y7308748D01*
X1588058Y7295388D01*
X1584553Y7289393D01*
X1582674Y7283856D01*
X1582369Y7278420D01*
X1583690Y7273036D01*
X1586687Y7267448D01*
X1591360Y7261453D01*
X1601216Y7251293D01*
X1608886Y7242962D01*
X1616659Y7233869D01*
X1623568Y7225080D01*
X1630070Y7216241D01*
X1633677Y7212228D01*
X1637334Y7209129D01*
X1641093Y7206945D01*
X1645056Y7205624D01*
X1649323Y7205268D01*
X1653895Y7205725D01*
X1658924Y7207148D01*
X1664462Y7209434D01*
X1670557Y7212685D01*
X1677365Y7216749D01*
X1699818Y7231837D01*
X1734566Y7254290D01*
X1744167Y7261148D01*
X1747774Y7264095D01*
X1750517Y7266686D01*
X1752498Y7268972D01*
X1753717Y7270902D01*
X1754174Y7272528D01*
X1753819Y7273747D01*
X1752701Y7274661D01*
X1750872Y7275220D01*
X1748282Y7275372D01*
X1744980Y7275220D01*
X1736191Y7273747D01*
X1724609Y7270750D01*
X1710283Y7266228D01*
X1695297Y7261098D01*
X1688795Y7259370D01*
X1682699Y7258151D01*
X1677009Y7257389D01*
X1671878Y7257034D01*
X1667306Y7257135D01*
X1663395Y7257592D01*
X1660194Y7258456D01*
X1657807Y7259624D01*
X1656283Y7261148D01*
X1655724Y7262926D01*
X1656080Y7265009D01*
X1657553Y7267295D01*
X1660143Y7269835D01*
X1663954Y7272528D01*
X1673910Y7278166D01*
X1678584Y7281164D01*
X1683054Y7284466D01*
X1687322Y7288022D01*
X1691335Y7291781D01*
X1695145Y7295794D01*
X1698752Y7300010D01*
X1705254Y7309002D01*
X1708150Y7313726D01*
X1713230Y7323531D01*
X1717293Y7333742D01*
X1718970Y7338974D01*
X1721459Y7349540D01*
X1722323Y7354874D01*
X1723186Y7365441D01*
X1723237Y7370673D01*
X1722424Y7380986D01*
X1721561Y7386015D01*
X1720392Y7390892D01*
X1718970Y7395667D01*
X1717192Y7400290D01*
X1715109Y7404760D01*
X1712722Y7409078D01*
X1710029Y7413142D01*
X1706981Y7417053D01*
X1698345Y7426248D01*
X1694180Y7431328D01*
X1691132Y7435900D01*
X1689100Y7439964D01*
X1688185Y7443520D01*
X1688388Y7446619D01*
X1689658Y7449159D01*
X1692046Y7451242D01*
X1693824Y7453325D01*
X1695704Y7457135D01*
X1697482Y7462164D01*
X1700733Y7475829D01*
X1703120Y7479284D01*
X1707438Y7478775D01*
X1715211Y7475016D01*
X1721916Y7472121D01*
X1727403Y7471054D01*
X1731721Y7471714D01*
X1734820Y7474203D01*
X1736750Y7478471D01*
X1737461Y7484516D01*
X1737004Y7492390D01*
X1734210Y7508392D01*
X1733651Y7514081D01*
X1733702Y7519009D01*
X1734312Y7523175D01*
X1735429Y7526629D01*
X1737055Y7529322D01*
X1739188Y7531303D01*
X1741779Y7532471D01*
X1744776Y7532928D01*
X1748231Y7532573D01*
X1752092Y7531455D01*
X1756308Y7529575D01*
X1760880Y7526883D01*
X1765807Y7523378D01*
X1771040Y7519111D01*
X1781200Y7509713D01*
X1789684Y7502601D01*
X1793595Y7499756D01*
X1800707Y7495489D01*
X1803958Y7494016D01*
X1806905Y7493000D01*
X1809648Y7492339D01*
X1812137Y7492085D01*
X1814372Y7492238D01*
X1816404Y7492746D01*
X1818182Y7493609D01*
X1819656Y7494778D01*
X1820925Y7496302D01*
X1821942Y7498130D01*
X1822704Y7500264D01*
X1823212Y7502702D01*
X1823415Y7508341D01*
X1822551Y7514945D01*
X1820672Y7522413D01*
X1817674Y7530693D01*
X1813610Y7539532D01*
X1808429Y7548930D01*
X1802079Y7558786D01*
X1794611Y7568895D01*
X1785975Y7579207D01*
X1781505Y7584033D01*
X1777288Y7588097D01*
X1773123Y7591501D01*
X1769008Y7594295D01*
X1764842Y7596378D01*
X1760474Y7597902D01*
X1755902Y7598867D01*
X1750974Y7599273D01*
X1745640Y7599121D01*
X1739747Y7598460D01*
X1726184Y7595717D01*
X1711147Y7592059D01*
X1711147Y7610652D01*
X1710791Y7618730D01*
X1709877Y7627061D01*
X1708556Y7634681D01*
X1704949Y7646924D01*
X1706676Y7650683D01*
X1713941Y7652867D01*
X1736140Y7655864D01*
X1743557Y7657185D01*
X1750618Y7658811D01*
X1757476Y7660690D01*
X1764080Y7662875D01*
X1770380Y7665364D01*
X1776475Y7668107D01*
X1782318Y7671155D01*
X1787906Y7674508D01*
X1793239Y7678166D01*
X1798421Y7682128D01*
X1803349Y7686395D01*
X1808073Y7691018D01*
X1812594Y7695895D01*
X1816912Y7701127D01*
X1824380Y7711186D01*
X1827530Y7714640D01*
X1830984Y7717332D01*
X1835099Y7719364D01*
X1840382Y7720888D01*
X1847189Y7722057D01*
X1880920Y7725409D01*
X1893366Y7727086D01*
X1904695Y7729169D01*
X1914956Y7731759D01*
X1919782Y7733233D01*
X1924354Y7734909D01*
X1932939Y7738821D01*
X1936953Y7741056D01*
X1940864Y7743545D01*
X1948180Y7749133D01*
X1951685Y7752283D01*
X1958339Y7759446D01*
X1964740Y7767726D01*
X1970938Y7777225D01*
X1977085Y7788046D01*
X1983232Y7800289D01*
X1989582Y7814106D01*
X1996186Y7829499D01*
X2001570Y7842859D01*
X2004974Y7852714D01*
X2007666Y7862468D01*
X2009698Y7872069D01*
X2011121Y7881467D01*
X2011832Y7890764D01*
X2011883Y7899857D01*
X2011324Y7908747D01*
X2010105Y7917484D01*
X2008225Y7926019D01*
X2005736Y7934401D01*
X2002637Y7942529D01*
X1998929Y7950453D01*
X1994611Y7958175D01*
X1989683Y7965643D01*
X1984197Y7972907D01*
X1978101Y7979918D01*
X1971395Y7986725D01*
X1964131Y7993227D01*
X1956307Y7999475D01*
X1947925Y8005521D01*
X1938985Y8011261D01*
X1929485Y8016697D01*
X1919427Y8021878D01*
X1908860Y8026755D01*
X1897786Y8031378D01*
X1886153Y8035645D01*
X1874012Y8039658D01*
X1861362Y8043316D01*
X1848205Y8046669D01*
X1834540Y8049666D01*
X1820367Y8052358D01*
X1805736Y8054695D01*
X1790649Y8056676D01*
X1776120Y8058200D01*
X1762506Y8059216D01*
X1748739Y8059877D01*
G37*
G36*
X1657908Y7953197D02*
G01*
X1653235Y7952638D01*
X1646021Y7949133D01*
X1643227Y7946694D01*
X1640890Y7942935D01*
X1639062Y7938058D01*
X1637690Y7932369D01*
X1636776Y7926171D01*
X1636369Y7919720D01*
X1636471Y7913319D01*
X1637080Y7907223D01*
X1638198Y7901736D01*
X1639824Y7897164D01*
X1642008Y7893761D01*
X1644700Y7891780D01*
X1649120Y7890560D01*
X1653286Y7890306D01*
X1657197Y7890967D01*
X1660804Y7892440D01*
X1664106Y7894675D01*
X1666951Y7897520D01*
X1669440Y7900924D01*
X1671421Y7904835D01*
X1672945Y7909153D01*
X1673961Y7913776D01*
X1674368Y7918653D01*
X1674215Y7923682D01*
X1673402Y7928762D01*
X1671980Y7933842D01*
X1669796Y7938820D01*
X1666900Y7943596D01*
X1661871Y7950352D01*
G37*
G36*
X1944268Y7926781D02*
G01*
X1939899Y7926120D01*
X1935886Y7924444D01*
X1932330Y7921802D01*
X1929384Y7918246D01*
X1927148Y7913878D01*
X1925777Y7908747D01*
X1925370Y7902956D01*
X1926031Y7896555D01*
X1927555Y7890103D01*
X1929434Y7884617D01*
X1931568Y7880096D01*
X1933854Y7876692D01*
X1936242Y7874304D01*
X1938578Y7873034D01*
X1940864Y7872882D01*
X1942896Y7873847D01*
X1944674Y7876031D01*
X1946046Y7879435D01*
X1946960Y7884058D01*
X1947621Y7896910D01*
X1949196Y7900466D01*
X1952701Y7901381D01*
X1963420Y7899501D01*
X1966874Y7899704D01*
X1969160Y7900873D01*
X1970278Y7902854D01*
X1970227Y7905597D01*
X1968957Y7909052D01*
X1966468Y7913065D01*
X1962759Y7917637D01*
X1958238Y7921853D01*
X1953564Y7924698D01*
X1948840Y7926324D01*
G37*
G36*
X1139952Y7444638D02*
G01*
X1138834Y7444130D01*
X1139291Y7442657D01*
X1141171Y7440472D01*
X1144320Y7437831D01*
X1148130Y7435189D01*
X1151991Y7433056D01*
X1155395Y7431582D01*
X1157935Y7431074D01*
X1159002Y7431582D01*
X1158544Y7433056D01*
X1156665Y7435189D01*
X1153566Y7437831D01*
X1149705Y7440472D01*
X1145844Y7442657D01*
X1142441Y7444130D01*
G37*
G36*
X1188008Y7426147D02*
G01*
X1186230Y7425740D01*
X1184757Y7424775D01*
X1183741Y7423302D01*
X1183386Y7421473D01*
X1183741Y7419695D01*
X1184757Y7418222D01*
X1186230Y7417206D01*
X1188008Y7416850D01*
X1189786Y7417206D01*
X1191260Y7418222D01*
X1192276Y7419695D01*
X1192631Y7421473D01*
X1192276Y7423302D01*
X1191260Y7424775D01*
X1189786Y7425740D01*
G37*
G36*
X1204620Y7416495D02*
G01*
X1201369Y7416444D01*
X1199134Y7415936D01*
X1198118Y7415123D01*
X1198524Y7414056D01*
X1200099Y7413193D01*
X1202283Y7412786D01*
X1204823Y7412990D01*
X1207414Y7413701D01*
X1209294Y7414717D01*
X1209395Y7415580D01*
X1207820Y7416190D01*
G37*
G36*
X1216914Y7411923D02*
G01*
X1216456Y7410856D01*
X1218082Y7407605D01*
X1219657Y7405827D01*
X1221740Y7404353D01*
X1224127Y7403388D01*
X1226464Y7403033D01*
X1228242Y7403388D01*
X1228547Y7404353D01*
X1227480Y7405776D01*
X1225042Y7407605D01*
X1219708Y7410856D01*
G37*
G36*
X1334211Y7398003D02*
G01*
X1331010Y7397902D01*
X1328775Y7397394D01*
X1327759Y7396632D01*
X1328166Y7395565D01*
X1329690Y7394651D01*
X1331925Y7394295D01*
X1334465Y7394448D01*
X1337005Y7395159D01*
X1338884Y7396225D01*
X1339037Y7397038D01*
X1337462Y7397648D01*
G37*
G36*
X1556766Y7387285D02*
G01*
X1555496Y7385710D01*
X1553768Y7382154D01*
X1550670Y7373772D01*
X1549654Y7368387D01*
X1550670Y7367016D01*
X1553768Y7370572D01*
X1555445Y7373823D01*
X1556816Y7377531D01*
X1557731Y7381240D01*
X1557985Y7384440D01*
X1557629Y7386878D01*
G37*
G36*
X1534718Y7365949D02*
G01*
X1532940Y7365441D01*
X1531823Y7364069D01*
X1531518Y7361986D01*
X1532077Y7359497D01*
X1532331Y7356246D01*
X1531162Y7352080D01*
X1528775Y7347610D01*
X1525473Y7343292D01*
X1521612Y7338872D01*
X1519631Y7335824D01*
X1519275Y7334148D01*
X1520393Y7333843D01*
X1522882Y7334808D01*
X1526438Y7337044D01*
X1531061Y7340549D01*
X1536446Y7345273D01*
X1544218Y7353096D01*
X1548536Y7358583D01*
X1548790Y7360818D01*
X1542694Y7358278D01*
X1541221Y7358430D01*
X1540205Y7359345D01*
X1539443Y7362952D01*
X1538376Y7364475D01*
X1536700Y7365542D01*
G37*
G36*
X1510995Y7331100D02*
G01*
X1506677Y7330541D01*
X1504391Y7328052D01*
X1505204Y7324140D01*
X1506778Y7322769D01*
X1509115Y7322058D01*
X1511960Y7322058D01*
X1514957Y7322820D01*
X1518158Y7324293D01*
X1519377Y7325766D01*
X1518716Y7327341D01*
X1516176Y7329220D01*
G37*
G36*
X1484833Y7328916D02*
G01*
X1482852Y7328560D01*
X1480718Y7327544D01*
X1478838Y7326071D01*
X1477365Y7324293D01*
X1476603Y7322464D01*
X1476705Y7320991D01*
X1477568Y7320025D01*
X1479143Y7319670D01*
X1481175Y7320025D01*
X1483258Y7320991D01*
X1485138Y7322464D01*
X1486611Y7324293D01*
X1487373Y7326071D01*
X1487271Y7327544D01*
X1486408Y7328560D01*
G37*
G36*
X1570228Y8427212D02*
G01*
X1570228Y8326120D01*
X1582674Y8326120D01*
X1582674Y8370570D01*
X1588058Y8374786D01*
X1593291Y8377631D01*
X1598472Y8379206D01*
X1603756Y8379714D01*
X1608836Y8379104D01*
X1613560Y8377326D01*
X1617776Y8374430D01*
X1621434Y8370570D01*
X1624431Y8365794D01*
X1626717Y8360206D01*
X1628139Y8353907D01*
X1628648Y8346948D01*
X1628241Y8339734D01*
X1627073Y8333282D01*
X1625142Y8327745D01*
X1622450Y8323072D01*
X1619097Y8319363D01*
X1615033Y8316671D01*
X1610360Y8314994D01*
X1605026Y8314436D01*
X1599133Y8315147D01*
X1593545Y8317331D01*
X1588109Y8320989D01*
X1582674Y8326120D01*
X1570228Y8326120D01*
X1570228Y8305800D01*
X1580642Y8305800D01*
X1581658Y8315706D01*
X1582166Y8315706D01*
X1587398Y8311032D01*
X1593443Y8307273D01*
X1600200Y8304682D01*
X1607566Y8303768D01*
X1612544Y8304072D01*
X1617218Y8305038D01*
X1621586Y8306612D01*
X1625549Y8308797D01*
X1629105Y8311591D01*
X1632305Y8314994D01*
X1635048Y8318906D01*
X1637334Y8323427D01*
X1639163Y8328507D01*
X1640484Y8334146D01*
X1641348Y8340293D01*
X1641602Y8346948D01*
X1641246Y8353348D01*
X1640230Y8359343D01*
X1638655Y8364829D01*
X1636471Y8369858D01*
X1633829Y8374430D01*
X1630730Y8378444D01*
X1627276Y8381898D01*
X1623415Y8384794D01*
X1619300Y8387080D01*
X1614982Y8388756D01*
X1610461Y8389772D01*
X1605788Y8390128D01*
X1598930Y8389467D01*
X1593037Y8387588D01*
X1587550Y8384540D01*
X1582166Y8380475D01*
X1582674Y8394700D01*
X1582674Y8427212D01*
G37*
G36*
X1930654Y8422894D02*
G01*
X1927301Y8422284D01*
X1924659Y8420608D01*
X1922881Y8417966D01*
X1922272Y8414512D01*
X1922881Y8410905D01*
X1924659Y8408212D01*
X1927301Y8406485D01*
X1930654Y8405876D01*
X1934311Y8406485D01*
X1937105Y8408212D01*
X1938883Y8410905D01*
X1939543Y8414512D01*
X1938883Y8417966D01*
X1937105Y8420608D01*
X1934311Y8422284D01*
G37*
G36*
X2166874Y8417306D02*
G01*
X2160625Y8417052D01*
X2154783Y8416340D01*
X2149348Y8415223D01*
X2144268Y8413597D01*
X2139594Y8411514D01*
X2135327Y8409025D01*
X2131466Y8406130D01*
X2127961Y8402777D01*
X2124913Y8399018D01*
X2122220Y8394852D01*
X2119985Y8390331D01*
X2118106Y8385352D01*
X2116683Y8380069D01*
X2115616Y8374380D01*
X2115007Y8368334D01*
X2114804Y8361934D01*
X2127758Y8361934D01*
X2128012Y8368842D01*
X2128824Y8375243D01*
X2130196Y8381085D01*
X2132126Y8386368D01*
X2134616Y8391042D01*
X2137613Y8395157D01*
X2141220Y8398713D01*
X2145385Y8401608D01*
X2150160Y8403894D01*
X2155494Y8405571D01*
X2161387Y8406536D01*
X2167890Y8406892D01*
X2181606Y8406892D01*
X2181606Y8316214D01*
X2167890Y8316214D01*
X2161387Y8316569D01*
X2155494Y8317636D01*
X2150160Y8319363D01*
X2145385Y8321751D01*
X2141220Y8324748D01*
X2137613Y8328406D01*
X2134616Y8332622D01*
X2132126Y8337448D01*
X2130196Y8342782D01*
X2128824Y8348675D01*
X2128012Y8355075D01*
X2127758Y8361934D01*
X2114804Y8361934D01*
X2115007Y8355533D01*
X2115616Y8349437D01*
X2116683Y8343747D01*
X2118106Y8338362D01*
X2119934Y8333384D01*
X2122220Y8328761D01*
X2124862Y8324545D01*
X2127910Y8320735D01*
X2131364Y8317331D01*
X2135225Y8314334D01*
X2139442Y8311743D01*
X2144064Y8309660D01*
X2149043Y8307984D01*
X2154428Y8306765D01*
X2160219Y8306053D01*
X2166366Y8305800D01*
X2194306Y8305800D01*
X2194306Y8417306D01*
G37*
G36*
X2060956Y8390128D02*
G01*
X2053640Y8389467D01*
X2047189Y8387435D01*
X2041652Y8384235D01*
X2036978Y8379815D01*
X2033320Y8374278D01*
X2030628Y8367725D01*
X2029002Y8360206D01*
X2028544Y8353298D01*
X2039366Y8353298D01*
X2039721Y8359495D01*
X2040788Y8364880D01*
X2042566Y8369503D01*
X2045004Y8373313D01*
X2048052Y8376310D01*
X2051710Y8378494D01*
X2055926Y8379764D01*
X2060702Y8380222D01*
X2065223Y8379764D01*
X2069490Y8378393D01*
X2073452Y8376208D01*
X2077008Y8373160D01*
X2080107Y8369300D01*
X2082546Y8364677D01*
X2084324Y8359343D01*
X2085339Y8353298D01*
X2028544Y8353298D01*
X2028494Y8349691D01*
X2028952Y8344153D01*
X2085339Y8344153D01*
X2084578Y8337600D01*
X2082952Y8331657D01*
X2080412Y8326475D01*
X2077161Y8322056D01*
X2073097Y8318500D01*
X2068423Y8315858D01*
X2063089Y8314232D01*
X2057146Y8313674D01*
X2051304Y8314131D01*
X2045970Y8315502D01*
X2040991Y8317636D01*
X2036318Y8320531D01*
X2031746Y8312150D01*
X2037334Y8308898D01*
X2043582Y8306257D01*
X2050643Y8304428D01*
X2058670Y8303768D01*
X2063953Y8304123D01*
X2069033Y8305088D01*
X2073859Y8306714D01*
X2078329Y8308898D01*
X2082495Y8311743D01*
X2086203Y8315147D01*
X2089454Y8319160D01*
X2092248Y8323681D01*
X2094484Y8328710D01*
X2096160Y8334298D01*
X2097176Y8340394D01*
X2097532Y8346948D01*
X2097176Y8353399D01*
X2096109Y8359394D01*
X2094484Y8364931D01*
X2092248Y8370011D01*
X2089505Y8374532D01*
X2086305Y8378545D01*
X2082698Y8382000D01*
X2078786Y8384844D01*
X2074621Y8387130D01*
X2070201Y8388756D01*
X2065629Y8389772D01*
G37*
G36*
X1984502Y8390128D02*
G01*
X1977288Y8389416D01*
X1970633Y8387486D01*
X1964689Y8384540D01*
X1959610Y8380984D01*
X1965706Y8373109D01*
X1969973Y8375954D01*
X1974443Y8378190D01*
X1979218Y8379663D01*
X1984502Y8380222D01*
X1991614Y8379256D01*
X1996592Y8376564D01*
X1999538Y8372602D01*
X2000504Y8367775D01*
X1999030Y8362492D01*
X1995119Y8358581D01*
X1989378Y8355584D01*
X1977948Y8351215D01*
X1973478Y8349284D01*
X1969211Y8347100D01*
X1965299Y8344560D01*
X1961946Y8341512D01*
X1959356Y8337803D01*
X1957679Y8333282D01*
X1957070Y8327898D01*
X1957578Y8323072D01*
X1959000Y8318550D01*
X1961388Y8314436D01*
X1964639Y8310880D01*
X1968855Y8307933D01*
X1973884Y8305698D01*
X1979777Y8304275D01*
X1986534Y8303768D01*
X1995170Y8304631D01*
X2003348Y8307019D01*
X2010765Y8310625D01*
X2017268Y8315198D01*
X2010918Y8323580D01*
X2005482Y8319566D01*
X1999691Y8316417D01*
X1993290Y8314385D01*
X1986025Y8313674D01*
X1978558Y8314740D01*
X1973224Y8317687D01*
X1970074Y8322056D01*
X1969007Y8327390D01*
X1970684Y8333079D01*
X1975154Y8337397D01*
X1981352Y8340699D01*
X1992731Y8345068D01*
X1997049Y8346998D01*
X2001164Y8349183D01*
X2004872Y8351723D01*
X2008073Y8354720D01*
X2010511Y8358276D01*
X2012137Y8362391D01*
X2012696Y8367268D01*
X2012238Y8371890D01*
X2010765Y8376208D01*
X2008479Y8380069D01*
X2005279Y8383473D01*
X2001215Y8386267D01*
X1996389Y8388350D01*
X1990801Y8389670D01*
G37*
G36*
X1868932Y8390128D02*
G01*
X1865630Y8389975D01*
X1862531Y8389518D01*
X1857502Y8388096D01*
X1829054Y8388096D01*
X1829054Y8378444D01*
X1846325Y8378444D01*
X1843481Y8375091D01*
X1841246Y8370874D01*
X1839772Y8365998D01*
X1839240Y8360918D01*
X1850389Y8360918D01*
X1851863Y8369300D01*
X1855825Y8375599D01*
X1861769Y8379612D01*
X1868932Y8380984D01*
X1876094Y8379612D01*
X1881886Y8375599D01*
X1885797Y8369300D01*
X1887220Y8360918D01*
X1885746Y8352434D01*
X1881784Y8345982D01*
X1875993Y8341817D01*
X1868932Y8340344D01*
X1861870Y8341817D01*
X1855927Y8345982D01*
X1851914Y8352434D01*
X1850389Y8360918D01*
X1839240Y8360918D01*
X1839823Y8354415D01*
X1841500Y8348776D01*
X1844192Y8343900D01*
X1847799Y8339734D01*
X1852168Y8336432D01*
X1857197Y8333994D01*
X1862836Y8332470D01*
X1868932Y8331962D01*
X1872081Y8332165D01*
X1875383Y8332724D01*
X1878634Y8333689D01*
X1881632Y8335009D01*
X1883765Y8332876D01*
X1885442Y8330539D01*
X1886559Y8327847D01*
X1886966Y8324596D01*
X1886254Y8320887D01*
X1883918Y8317890D01*
X1879447Y8315909D01*
X1872488Y8315198D01*
X1855978Y8315198D01*
X1849272Y8314944D01*
X1843481Y8314080D01*
X1838604Y8312607D01*
X1834591Y8310575D01*
X1831492Y8307831D01*
X1829307Y8304479D01*
X1827987Y8300415D01*
X1827530Y8295640D01*
X1827779Y8293862D01*
X1839722Y8293862D01*
X1840839Y8298992D01*
X1844192Y8302345D01*
X1849577Y8304225D01*
X1856993Y8304784D01*
X1874266Y8304885D01*
X1882648Y8306053D01*
X1886610Y8302650D01*
X1889353Y8298992D01*
X1891030Y8295182D01*
X1891538Y8291322D01*
X1889861Y8285124D01*
X1885035Y8280400D01*
X1877263Y8277402D01*
X1866900Y8276336D01*
X1861007Y8276742D01*
X1855673Y8277809D01*
X1851050Y8279536D01*
X1847138Y8281771D01*
X1843989Y8284413D01*
X1841652Y8287359D01*
X1840230Y8290559D01*
X1839722Y8293862D01*
X1827779Y8293862D01*
X1828292Y8290204D01*
X1830425Y8285022D01*
X1833930Y8280247D01*
X1838655Y8276031D01*
X1844598Y8272475D01*
X1851660Y8269782D01*
X1859686Y8268055D01*
X1868678Y8267446D01*
X1875891Y8267801D01*
X1882444Y8268919D01*
X1888185Y8270748D01*
X1893112Y8273288D01*
X1897075Y8276488D01*
X1900021Y8280298D01*
X1901850Y8284768D01*
X1902460Y8289798D01*
X1901647Y8295081D01*
X1899208Y8300059D01*
X1895398Y8304631D01*
X1890268Y8308594D01*
X1890268Y8309356D01*
X1893265Y8311591D01*
X1895703Y8314537D01*
X1897329Y8318296D01*
X1897888Y8322818D01*
X1897024Y8327644D01*
X1894839Y8331860D01*
X1891893Y8335365D01*
X1888743Y8338058D01*
X1888743Y8338820D01*
X1892655Y8342579D01*
X1896059Y8347659D01*
X1898497Y8353856D01*
X1899412Y8360918D01*
X1898802Y8367268D01*
X1896973Y8372957D01*
X1894128Y8377986D01*
X1890369Y8382203D01*
X1885848Y8385556D01*
X1880666Y8388045D01*
X1874977Y8389620D01*
G37*
G36*
X1771650Y8390128D02*
G01*
X1765604Y8389620D01*
X1760423Y8388096D01*
X1756105Y8385556D01*
X1752600Y8382050D01*
X1749907Y8377529D01*
X1748028Y8372043D01*
X1746859Y8365540D01*
X1746504Y8358124D01*
X1746504Y8305800D01*
X1758950Y8305800D01*
X1758950Y8356600D01*
X1759864Y8366810D01*
X1762810Y8373922D01*
X1767839Y8378088D01*
X1775206Y8379459D01*
X1781454Y8378596D01*
X1787093Y8376056D01*
X1792732Y8371840D01*
X1798828Y8365998D01*
X1798828Y8305800D01*
X1811020Y8305800D01*
X1811020Y8388096D01*
X1801114Y8388096D01*
X1799843Y8376158D01*
X1799336Y8376158D01*
X1793239Y8381542D01*
X1786737Y8386013D01*
X1779574Y8389010D01*
G37*
G36*
X1688592Y8390128D02*
G01*
X1681276Y8389467D01*
X1674825Y8387435D01*
X1669288Y8384235D01*
X1664614Y8379815D01*
X1660956Y8374278D01*
X1658264Y8367725D01*
X1656638Y8360206D01*
X1656180Y8353298D01*
X1667002Y8353298D01*
X1667357Y8359495D01*
X1668475Y8364880D01*
X1670253Y8369503D01*
X1672742Y8373313D01*
X1675790Y8376310D01*
X1679448Y8378494D01*
X1683613Y8379764D01*
X1688338Y8380222D01*
X1692859Y8379764D01*
X1697126Y8378393D01*
X1701088Y8376208D01*
X1704695Y8373160D01*
X1707794Y8369300D01*
X1710283Y8364677D01*
X1712163Y8359343D01*
X1713230Y8353298D01*
X1656180Y8353298D01*
X1656130Y8349691D01*
X1656486Y8345830D01*
X1656842Y8344153D01*
X1712975Y8344153D01*
X1712214Y8337600D01*
X1710588Y8331657D01*
X1708048Y8326475D01*
X1704797Y8322056D01*
X1700733Y8318500D01*
X1696059Y8315858D01*
X1690725Y8314232D01*
X1684782Y8313674D01*
X1678939Y8314131D01*
X1673606Y8315502D01*
X1668627Y8317636D01*
X1663954Y8320531D01*
X1659382Y8312150D01*
X1664970Y8308898D01*
X1671218Y8306257D01*
X1678279Y8304428D01*
X1686306Y8303768D01*
X1691589Y8304123D01*
X1696720Y8305088D01*
X1701546Y8306714D01*
X1706067Y8308898D01*
X1710182Y8311743D01*
X1713941Y8315147D01*
X1717243Y8319160D01*
X1720088Y8323681D01*
X1722323Y8328710D01*
X1723999Y8334298D01*
X1725066Y8340394D01*
X1725422Y8346948D01*
X1725066Y8353399D01*
X1723999Y8359394D01*
X1722323Y8364931D01*
X1720037Y8370011D01*
X1717293Y8374532D01*
X1714042Y8378545D01*
X1710436Y8382000D01*
X1706473Y8384844D01*
X1702257Y8387130D01*
X1697837Y8388756D01*
X1693265Y8389772D01*
G37*
G36*
X1924557Y8388096D02*
G01*
X1924557Y8305800D01*
X1937004Y8305800D01*
X1937004Y8388096D01*
G37*
G36*
X2162048Y8239506D02*
G01*
X2153869Y8239150D01*
X2146452Y8237981D01*
X2139950Y8236000D01*
X2134412Y8233156D01*
X2129993Y8229396D01*
X2126691Y8224723D01*
X2124659Y8219033D01*
X2123948Y8212328D01*
X2124150Y8210803D01*
X2136394Y8210803D01*
X2136800Y8215528D01*
X2138121Y8219541D01*
X2140254Y8222792D01*
X2143252Y8225332D01*
X2147112Y8227263D01*
X2151837Y8228584D01*
X2157374Y8229346D01*
X2163826Y8229600D01*
X2181606Y8229600D01*
X2181606Y8191753D01*
X2164588Y8191753D01*
X2157628Y8192109D01*
X2151735Y8193074D01*
X2146858Y8194700D01*
X2142947Y8196884D01*
X2140000Y8199628D01*
X2137968Y8202879D01*
X2136800Y8206638D01*
X2136394Y8210803D01*
X2124150Y8210803D01*
X2125014Y8204301D01*
X2128215Y8197291D01*
X2133396Y8191703D01*
X2140458Y8187944D01*
X2140458Y8187436D01*
X2135530Y8186166D01*
X2131060Y8184286D01*
X2127097Y8181797D01*
X2123744Y8178749D01*
X2121052Y8175040D01*
X2119020Y8170773D01*
X2117750Y8165947D01*
X2117381Y8161020D01*
X2129536Y8161020D01*
X2130094Y8166049D01*
X2131669Y8170367D01*
X2134311Y8173974D01*
X2137918Y8176869D01*
X2142490Y8179053D01*
X2147976Y8180628D01*
X2154326Y8181543D01*
X2161540Y8181848D01*
X2181606Y8181848D01*
X2181606Y8138159D01*
X2161540Y8138159D01*
X2154478Y8138515D01*
X2148179Y8139531D01*
X2142693Y8141258D01*
X2138121Y8143697D01*
X2134463Y8146846D01*
X2131771Y8150809D01*
X2130094Y8155533D01*
X2129536Y8161020D01*
X2117381Y8161020D01*
X2117699Y8155330D01*
X2118715Y8150606D01*
X2120442Y8146338D01*
X2122728Y8142478D01*
X2125624Y8139074D01*
X2129078Y8136178D01*
X2133041Y8133689D01*
X2137511Y8131606D01*
X2142439Y8130031D01*
X2147722Y8128914D01*
X2153462Y8128203D01*
X2159508Y8128000D01*
X2194306Y8128000D01*
X2194306Y8239506D01*
G37*
G36*
X1914906Y8239506D02*
G01*
X1914906Y8228838D01*
X1948942Y8228838D01*
X1948942Y8128000D01*
X1961896Y8128000D01*
X1961896Y8228838D01*
X1995932Y8228838D01*
X1995932Y8239506D01*
G37*
G36*
X1820672Y8239506D02*
G01*
X1812543Y8239099D01*
X1805127Y8237880D01*
X1798523Y8235746D01*
X1792884Y8232597D01*
X1788312Y8228380D01*
X1784908Y8222996D01*
X1782775Y8216392D01*
X1782064Y8208518D01*
X1794764Y8208518D01*
X1795221Y8213801D01*
X1796592Y8218220D01*
X1798828Y8221827D01*
X1801977Y8224621D01*
X1805939Y8226755D01*
X1810715Y8228228D01*
X1816303Y8229092D01*
X1822704Y8229346D01*
X1842262Y8229346D01*
X1842262Y8186420D01*
X1822704Y8186420D01*
X1816303Y8186775D01*
X1810715Y8187791D01*
X1805939Y8189518D01*
X1801977Y8191957D01*
X1798828Y8195056D01*
X1796592Y8198866D01*
X1795221Y8203336D01*
X1794764Y8208518D01*
X1782064Y8208518D01*
X1782521Y8202269D01*
X1783943Y8196732D01*
X1786178Y8191855D01*
X1789226Y8187639D01*
X1792986Y8184083D01*
X1797405Y8181187D01*
X1802434Y8178901D01*
X1807972Y8177275D01*
X1779270Y8128000D01*
X1793493Y8128000D01*
X1821434Y8176259D01*
X1842262Y8176259D01*
X1842262Y8128000D01*
X1854962Y8128000D01*
X1854962Y8239506D01*
G37*
G36*
X1731772Y8212328D02*
G01*
X1724456Y8211667D01*
X1718005Y8209635D01*
X1712468Y8206435D01*
X1707794Y8202015D01*
X1704136Y8196478D01*
X1701444Y8189925D01*
X1699818Y8182406D01*
X1699360Y8175498D01*
X1710182Y8175498D01*
X1710537Y8181695D01*
X1711604Y8187080D01*
X1713382Y8191703D01*
X1715820Y8195513D01*
X1718868Y8198510D01*
X1722526Y8200694D01*
X1726742Y8201964D01*
X1731518Y8202422D01*
X1736039Y8201964D01*
X1740306Y8200593D01*
X1744268Y8198408D01*
X1747824Y8195360D01*
X1750923Y8191500D01*
X1753362Y8186877D01*
X1755139Y8181543D01*
X1756156Y8175498D01*
X1699360Y8175498D01*
X1699310Y8171891D01*
X1699768Y8166353D01*
X1756156Y8166353D01*
X1755393Y8159800D01*
X1753768Y8153857D01*
X1751228Y8148675D01*
X1747977Y8144256D01*
X1743913Y8140700D01*
X1739239Y8138058D01*
X1733905Y8136432D01*
X1727962Y8135874D01*
X1722120Y8136331D01*
X1716786Y8137702D01*
X1711807Y8139836D01*
X1707134Y8142731D01*
X1702562Y8134350D01*
X1708150Y8131098D01*
X1714398Y8128457D01*
X1721459Y8126628D01*
X1729486Y8125968D01*
X1734769Y8126323D01*
X1739849Y8127288D01*
X1744675Y8128914D01*
X1749145Y8131098D01*
X1753311Y8133943D01*
X1757019Y8137347D01*
X1760270Y8141360D01*
X1763064Y8145881D01*
X1765300Y8150910D01*
X1766976Y8156498D01*
X1767992Y8162594D01*
X1768348Y8169148D01*
X1767992Y8175599D01*
X1766925Y8181594D01*
X1765300Y8187131D01*
X1763064Y8192211D01*
X1760321Y8196732D01*
X1757121Y8200745D01*
X1753514Y8204200D01*
X1749602Y8207044D01*
X1745437Y8209330D01*
X1741017Y8210956D01*
X1736445Y8211972D01*
G37*
G36*
X2036572Y8210296D02*
G01*
X2068068Y8120380D01*
X2070303Y8114639D01*
X2072843Y8109305D01*
X2075789Y8104479D01*
X2079142Y8100263D01*
X2083003Y8096758D01*
X2087372Y8094167D01*
X2092401Y8092490D01*
X2098040Y8091931D01*
X2103221Y8092440D01*
X2107438Y8093709D01*
X2104898Y8103870D01*
X2102002Y8102955D01*
X2098548Y8102600D01*
X2092096Y8104022D01*
X2086813Y8107883D01*
X2082546Y8113725D01*
X2079243Y8121142D01*
X2077466Y8127492D01*
X2110740Y8210296D01*
X2097786Y8210296D01*
X2078278Y8157616D01*
X2072132Y8139938D01*
X2071370Y8139938D01*
X2064257Y8163306D01*
X2048764Y8210296D01*
G37*
G36*
X1624330Y8210296D02*
G01*
X1649222Y8169656D01*
X1622044Y8128000D01*
X1635760Y8128000D01*
X1648460Y8148066D01*
X1657350Y8162798D01*
X1658112Y8162798D01*
X1678432Y8128000D01*
X1691639Y8128000D01*
X1664462Y8170925D01*
X1689607Y8210296D01*
X1676146Y8210296D01*
X1664462Y8191500D01*
X1660448Y8184642D01*
X1656080Y8177784D01*
X1655572Y8177784D01*
X1647952Y8191500D01*
X1637030Y8210296D01*
G37*
G36*
X1877060Y8175498D02*
G01*
X1877060Y8165592D01*
X1915668Y8165592D01*
X1915668Y8175498D01*
G37*
G36*
X2310130Y7219696D02*
G01*
X2305304Y7219137D01*
X2301189Y7217613D01*
X2297684Y7215428D01*
X2294890Y7212838D01*
X2298446Y7208774D01*
X2300732Y7210907D01*
X2303373Y7212584D01*
X2306472Y7213701D01*
X2309876Y7214108D01*
X2317343Y7212482D01*
X2323134Y7207859D01*
X2326843Y7200493D01*
X2328164Y7190740D01*
X2326894Y7181088D01*
X2323338Y7173722D01*
X2317648Y7169048D01*
X2310130Y7167372D01*
X2306370Y7167778D01*
X2302967Y7168997D01*
X2299868Y7171029D01*
X2296922Y7173722D01*
X2293620Y7169912D01*
X2297074Y7166406D01*
X2300986Y7163866D01*
X2305456Y7162292D01*
X2310638Y7161784D01*
X2315616Y7162292D01*
X2320137Y7163765D01*
X2324201Y7166203D01*
X2327706Y7169505D01*
X2330551Y7173671D01*
X2332736Y7178598D01*
X2334056Y7184339D01*
X2334514Y7190740D01*
X2334056Y7197090D01*
X2332685Y7202779D01*
X2330500Y7207707D01*
X2327554Y7211872D01*
X2323998Y7215225D01*
X2319832Y7217664D01*
X2315210Y7219188D01*
G37*
G36*
X2346706Y7218680D02*
G01*
X2346706Y7162800D01*
X2352802Y7162800D01*
X2352700Y7198817D01*
X2352040Y7211314D01*
X2352294Y7211314D01*
X2356612Y7198614D01*
X2367534Y7168388D01*
X2371852Y7168388D01*
X2387346Y7211314D01*
X2387600Y7211314D01*
X2386838Y7195058D01*
X2386838Y7162800D01*
X2392426Y7162800D01*
X2392426Y7218680D01*
X2384806Y7218680D01*
X2372766Y7185152D01*
X2369820Y7176262D01*
X2369312Y7176262D01*
X2365502Y7188200D01*
X2354580Y7218680D01*
G37*
G36*
X2266696Y7218680D02*
G01*
X2259025Y7217918D01*
X2252980Y7215428D01*
X2249068Y7211161D01*
X2247646Y7204964D01*
X2247752Y7204202D01*
X2253996Y7204202D01*
X2254859Y7208570D01*
X2257450Y7211466D01*
X2261717Y7213092D01*
X2267712Y7213600D01*
X2276602Y7213600D01*
X2276602Y7194550D01*
X2268220Y7194550D01*
X2261717Y7195261D01*
X2257298Y7197191D01*
X2254808Y7200239D01*
X2253996Y7204202D01*
X2247752Y7204202D01*
X2248204Y7200950D01*
X2249830Y7197445D01*
X2252472Y7194651D01*
X2256028Y7192772D01*
X2256028Y7192518D01*
X2251303Y7190943D01*
X2247595Y7188149D01*
X2245207Y7184186D01*
X2244386Y7179309D01*
X2250694Y7179309D01*
X2251760Y7183932D01*
X2254859Y7187184D01*
X2259787Y7189114D01*
X2266442Y7189724D01*
X2276602Y7189724D01*
X2276602Y7167880D01*
X2266442Y7167880D01*
X2259787Y7168540D01*
X2254859Y7170623D01*
X2251760Y7174179D01*
X2250694Y7179309D01*
X2244386Y7179309D01*
X2245868Y7171893D01*
X2250236Y7166813D01*
X2256993Y7163816D01*
X2265680Y7162800D01*
X2282952Y7162800D01*
X2282952Y7218680D01*
G37*
G36*
X2155444Y7218680D02*
G01*
X2173224Y7162800D01*
X2180590Y7162800D01*
X2198370Y7218680D01*
X2191766Y7218680D01*
X2180945Y7182967D01*
X2177034Y7169403D01*
X2176526Y7169403D01*
X2171192Y7187692D01*
X2161794Y7218680D01*
G37*
G36*
X2123694Y7218680D02*
G01*
X2123694Y7211314D01*
X2129282Y7211314D01*
X2133854Y7203186D01*
X2147316Y7183374D01*
X2129536Y7183374D01*
X2129485Y7203744D01*
X2129028Y7211314D01*
X2123694Y7211314D01*
X2123694Y7183374D01*
X2116074Y7183374D01*
X2116074Y7178294D01*
X2123694Y7178294D01*
X2123694Y7162800D01*
X2129536Y7162800D01*
X2129536Y7178294D01*
X2153920Y7178294D01*
X2153920Y7182358D01*
X2130298Y7218680D01*
G37*
G36*
X2199640Y7156703D02*
G01*
X2199640Y7152386D01*
X2240026Y7152386D01*
X2240026Y7156703D01*
G37*
D10*
X2184400Y8942646D02*
G01*
X2184400Y8877993D01*
X2110508Y8942646D02*
G01*
X2110508Y8877993D01*
X2049548Y8942646D02*
G01*
X2049548Y8748684D01*
X2049548Y8942646D02*
G01*
X1966422Y8942646D01*
X1938713Y8933411D01*
X1929475Y8924175D01*
X1920239Y8905702D01*
X1920239Y8877993D01*
X1929475Y8859520D01*
X1938713Y8850284D01*
X1966422Y8841046D01*
X2049548Y8841046D01*
X1748444Y8877993D02*
G01*
X1748444Y8748684D01*
X1748444Y8850284D02*
G01*
X1766915Y8868755D01*
X1785388Y8877993D01*
X1813097Y8877993D01*
X1831571Y8868755D01*
X1850044Y8850284D01*
X1859279Y8822575D01*
X1859279Y8804102D01*
X1850044Y8776393D01*
X1831571Y8757920D01*
X1813097Y8748684D01*
X1785388Y8748684D01*
X1766915Y8757920D01*
X1748444Y8776393D01*
X1576646Y8942646D02*
G01*
X1576646Y8748684D01*
X1576646Y8850284D02*
G01*
X1595120Y8868755D01*
X1613593Y8877993D01*
X1641302Y8877993D01*
X1659775Y8868755D01*
X1678246Y8850284D01*
X1687484Y8822575D01*
X1687484Y8804102D01*
X1678246Y8776393D01*
X1659775Y8757920D01*
X1641302Y8748684D01*
X1613593Y8748684D01*
X1595120Y8757920D01*
X1576646Y8776393D01*
X1515686Y8831811D02*
G01*
X1349433Y8831811D01*
X1288473Y8942646D02*
G01*
X1288473Y8748684D01*
X1288473Y8942646D02*
G01*
X1205344Y8942646D01*
X1177635Y8933411D01*
X1168400Y8924175D01*
X1159164Y8905702D01*
X1159164Y8877993D01*
X1168400Y8859520D01*
X1177635Y8850284D01*
X1205344Y8841046D01*
X1288473Y8841046D01*
X987366Y8877993D02*
G01*
X987366Y8748684D01*
X987366Y8850284D02*
G01*
X1005839Y8868755D01*
X1024313Y8877993D01*
X1052022Y8877993D01*
X1070495Y8868755D01*
X1088966Y8850284D01*
X1098204Y8822575D01*
X1098204Y8804102D01*
X1088966Y8776393D01*
X1070495Y8757920D01*
X1052022Y8748684D01*
X1024313Y8748684D01*
X1005839Y8757920D01*
X987366Y8776393D01*
X926406Y8942646D02*
G01*
X926406Y8748684D01*
X865446Y8942646D02*
G01*
X865446Y8877993D01*
X791555Y8942646D02*
G01*
X791555Y8877993D01*
M02*
