M48
METRIC,LZ,000.000
;FILE_FORMAT=3:3
;TYPE=PLATED
;Layer: PTH_Through
;EasyEDA v6.5.5, 2022-07-09 13:00:11
;71ddd04add3b4de38a8b36f784c4d6f3,20d39a695127413eb41274384cfbb926,10
;Gerber Generator version 0.2
;Holesize 1 = 0.305 mm
T01C0.305
;Holesize 2 = 0.306 mm
T02C0.306
;Holesize 3 = 0.701 mm
T03C0.701
;Holesize 4 = 0.889 mm
T04C0.889
%
G05
G90
T01
X011303Y085471
X011303Y078994
X011684Y075311
X015367Y079248
X018161Y079629
X020574Y079629
X016002Y084455
X020701Y084836
X012192Y087884
X014097Y087884
T02
X016628Y080753
X014138Y079244
X013304Y075767
T03
X011863Y077849G85X012763Y077849
X011863Y086489G85X012763Y086489
X008063Y086489G85X008963Y086489
X008063Y077849G85X008963Y077849
T04
X023241Y088646
X023241Y086106
X023241Y083566
X023241Y081026
X023241Y078486
X023241Y075946
M30
