G04 Layer: BottomSilkscreenLayer*
G04 EasyEDA v6.5.5, 2022-07-09 13:00:11*
G04 71ddd04add3b4de38a8b36f784c4d6f3,20d39a695127413eb41274384cfbb926,10*
G04 Gerber Generator version 0.2*
G04 Scale: 100 percent, Rotated: No, Reflected: No *
G04 Dimensions in millimeters *
G04 leading zeros omitted , absolute positions ,4 integer and 5 decimal *
%FSLAX45Y45*%
%MOMM*%

%ADD32C,0.2032*%

%LPD*%
G36*
X1824634Y8003641D02*
G01*
X1810766Y8003336D01*
X1796846Y8002727D01*
X1783029Y8001812D01*
X1769262Y8000492D01*
X1755648Y7998917D01*
X1742186Y7996986D01*
X1728876Y7994751D01*
X1715820Y7992211D01*
X1703019Y7989366D01*
X1690522Y7986268D01*
X1678330Y7982915D01*
X1666544Y7979257D01*
X1655114Y7975346D01*
X1644142Y7971180D01*
X1633626Y7966760D01*
X1623669Y7962138D01*
X1614220Y7957312D01*
X1605330Y7952231D01*
X1597101Y7946948D01*
X1589481Y7941462D01*
X1582572Y7935772D01*
X1576374Y7929930D01*
X1567484Y7921040D01*
X1563674Y7917637D01*
X1560068Y7914843D01*
X1556410Y7912557D01*
X1552448Y7910626D01*
X1548079Y7909001D01*
X1542999Y7907629D01*
X1537004Y7906359D01*
X1521510Y7903870D01*
X1502359Y7901178D01*
X1486306Y7898434D01*
X1473200Y7895539D01*
X1467764Y7894015D01*
X1463090Y7892389D01*
X1459128Y7890611D01*
X1455877Y7888782D01*
X1453337Y7886750D01*
X1451508Y7884617D01*
X1450441Y7882280D01*
X1450035Y7879791D01*
X1450340Y7877098D01*
X1451305Y7874152D01*
X1452981Y7871002D01*
X1455369Y7867599D01*
X1458417Y7863941D01*
X1462125Y7859979D01*
X1471574Y7851190D01*
X1483664Y7841132D01*
X1498600Y7829245D01*
X1512671Y7817612D01*
X1523339Y7808112D01*
X1529283Y7801965D01*
X1530045Y7800441D01*
X1529334Y7799324D01*
X1527251Y7797698D01*
X1519529Y7793380D01*
X1508099Y7788097D01*
X1478534Y7775956D01*
X1472285Y7773009D01*
X1467104Y7770215D01*
X1462938Y7767523D01*
X1459788Y7764881D01*
X1457706Y7762240D01*
X1456588Y7759649D01*
X1456537Y7757007D01*
X1457452Y7754315D01*
X1459331Y7751470D01*
X1462227Y7748524D01*
X1466088Y7745425D01*
X1470964Y7742123D01*
X1483512Y7734706D01*
X1497584Y7726781D01*
X1502613Y7723682D01*
X1506321Y7721041D01*
X1508709Y7718907D01*
X1509826Y7717078D01*
X1509674Y7715656D01*
X1508252Y7714437D01*
X1505610Y7713421D01*
X1501749Y7712557D01*
X1484325Y7710170D01*
X1479042Y7709153D01*
X1474622Y7707884D01*
X1471066Y7706309D01*
X1468374Y7704378D01*
X1466545Y7702092D01*
X1465630Y7699400D01*
X1465580Y7696301D01*
X1466392Y7692644D01*
X1468120Y7688478D01*
X1470761Y7683703D01*
X1474266Y7678318D01*
X1484071Y7665567D01*
X1511808Y7633309D01*
X1516837Y7627112D01*
X1520494Y7622184D01*
X1522780Y7618475D01*
X1523695Y7615834D01*
X1523187Y7614310D01*
X1521358Y7613700D01*
X1518208Y7614056D01*
X1513687Y7615224D01*
X1487779Y7624064D01*
X1482394Y7625384D01*
X1477619Y7626197D01*
X1473504Y7626400D01*
X1469999Y7626045D01*
X1467053Y7625130D01*
X1464716Y7623556D01*
X1462938Y7621371D01*
X1461719Y7618526D01*
X1461008Y7615072D01*
X1460855Y7610906D01*
X1461109Y7606030D01*
X1461922Y7600492D01*
X1463141Y7594193D01*
X1470152Y7564983D01*
X1471168Y7559548D01*
X1471726Y7555077D01*
X1471879Y7551420D01*
X1471523Y7548625D01*
X1470660Y7546644D01*
X1469237Y7545425D01*
X1467256Y7544917D01*
X1464665Y7545120D01*
X1461414Y7545933D01*
X1453032Y7549388D01*
X1435862Y7557820D01*
X1430782Y7559954D01*
X1426514Y7561325D01*
X1423009Y7561783D01*
X1420215Y7561325D01*
X1418082Y7559954D01*
X1416558Y7557566D01*
X1415542Y7554112D01*
X1415084Y7549540D01*
X1415034Y7543800D01*
X1415440Y7536891D01*
X1416812Y7521194D01*
X1417066Y7514793D01*
X1416862Y7509408D01*
X1416202Y7505090D01*
X1415135Y7501788D01*
X1413560Y7499553D01*
X1411528Y7498232D01*
X1408938Y7497927D01*
X1405839Y7498537D01*
X1402181Y7500112D01*
X1398016Y7502652D01*
X1393240Y7506004D01*
X1384604Y7510881D01*
X1376476Y7512761D01*
X1370330Y7511592D01*
X1367688Y7507325D01*
X1366723Y7498689D01*
X1365046Y7489240D01*
X1363065Y7481265D01*
X1361389Y7477150D01*
X1359560Y7477099D01*
X1355902Y7478115D01*
X1350924Y7480096D01*
X1339138Y7485735D01*
X1334160Y7487462D01*
X1330147Y7487920D01*
X1326946Y7487107D01*
X1324406Y7484872D01*
X1322324Y7481214D01*
X1320596Y7475981D01*
X1317193Y7460081D01*
X1314805Y7456068D01*
X1310589Y7456373D01*
X1296568Y7463129D01*
X1291437Y7465212D01*
X1287221Y7466177D01*
X1283868Y7465974D01*
X1281125Y7464602D01*
X1278788Y7461961D01*
X1276705Y7457998D01*
X1271676Y7444841D01*
X1268882Y7441539D01*
X1264818Y7442200D01*
X1251966Y7449972D01*
X1247800Y7451394D01*
X1244904Y7450581D01*
X1242466Y7447686D01*
X1235456Y7436408D01*
X1230934Y7431227D01*
X1227175Y7430871D01*
X1218184Y7437018D01*
X1214374Y7437424D01*
X1209954Y7435240D01*
X1202080Y7428585D01*
X1195984Y7425181D01*
X1187450Y7421575D01*
X1176782Y7417917D01*
X1164183Y7414209D01*
X1149959Y7410551D01*
X1140474Y7408418D01*
X1182166Y7408418D01*
X1183182Y7409434D01*
X1186891Y7410246D01*
X1193444Y7411110D01*
X1227785Y7414209D01*
X1239215Y7415682D01*
X1250797Y7417612D01*
X1262430Y7419848D01*
X1274114Y7422438D01*
X1285900Y7425436D01*
X1297635Y7428738D01*
X1309420Y7432344D01*
X1321206Y7436307D01*
X1332941Y7440574D01*
X1344625Y7445146D01*
X1356258Y7449972D01*
X1367790Y7455103D01*
X1390599Y7466177D01*
X1412900Y7478268D01*
X1434490Y7491272D01*
X1445006Y7498080D01*
X1455318Y7505141D01*
X1465376Y7512354D01*
X1475181Y7519720D01*
X1484731Y7527290D01*
X1494028Y7535062D01*
X1502968Y7542936D01*
X1511604Y7550962D01*
X1519936Y7559141D01*
X1527860Y7567422D01*
X1535430Y7575803D01*
X1542643Y7584287D01*
X1549400Y7592923D01*
X1555800Y7601559D01*
X1561693Y7610348D01*
X1565605Y7616850D01*
X1569059Y7623352D01*
X1571904Y7629855D01*
X1574241Y7636205D01*
X1576019Y7642453D01*
X1577289Y7648448D01*
X1577949Y7654188D01*
X1578000Y7659624D01*
X1577492Y7664602D01*
X1576374Y7669174D01*
X1574698Y7673238D01*
X1570685Y7679080D01*
X1569059Y7682179D01*
X1565808Y7690358D01*
X1562608Y7700822D01*
X1559610Y7713014D01*
X1556918Y7726476D01*
X1554530Y7740700D01*
X1552651Y7755178D01*
X1551279Y7769504D01*
X1550568Y7783118D01*
X1550568Y7795514D01*
X1551228Y7808874D01*
X1552295Y7821523D01*
X1553819Y7833563D01*
X1555750Y7844942D01*
X1558137Y7855712D01*
X1560982Y7865922D01*
X1564386Y7875574D01*
X1568297Y7884668D01*
X1572717Y7893253D01*
X1577746Y7901330D01*
X1583334Y7908899D01*
X1589582Y7916062D01*
X1596390Y7922768D01*
X1603857Y7929067D01*
X1612036Y7935010D01*
X1620875Y7940548D01*
X1630375Y7945729D01*
X1640687Y7950606D01*
X1651711Y7955178D01*
X1663496Y7959496D01*
X1676044Y7963509D01*
X1689455Y7967319D01*
X1703679Y7970875D01*
X1718716Y7974279D01*
X1730857Y7976616D01*
X1743303Y7978648D01*
X1755952Y7980324D01*
X1768856Y7981645D01*
X1781911Y7982661D01*
X1795068Y7983321D01*
X1808378Y7983626D01*
X1821738Y7983677D01*
X1835099Y7983372D01*
X1848408Y7982762D01*
X1861718Y7981848D01*
X1874926Y7980680D01*
X1888032Y7979156D01*
X1907336Y7976412D01*
X1919935Y7974228D01*
X1932330Y7971739D01*
X1944370Y7968996D01*
X1956104Y7965998D01*
X1967484Y7962747D01*
X1978456Y7959242D01*
X1988972Y7955483D01*
X1999030Y7951520D01*
X2008581Y7947304D01*
X2017522Y7942884D01*
X2025954Y7938211D01*
X2033727Y7933283D01*
X2040839Y7928203D01*
X2048967Y7921447D01*
X2057806Y7912963D01*
X2061768Y7908645D01*
X2065426Y7904276D01*
X2068830Y7899806D01*
X2071928Y7895285D01*
X2074722Y7890713D01*
X2077262Y7886039D01*
X2079498Y7881264D01*
X2081428Y7876438D01*
X2083054Y7871459D01*
X2084425Y7866430D01*
X2085492Y7861300D01*
X2086254Y7856067D01*
X2086762Y7850733D01*
X2086965Y7845247D01*
X2086508Y7833969D01*
X2085848Y7828127D01*
X2083663Y7816088D01*
X2082139Y7809839D01*
X2078228Y7796936D01*
X2073198Y7783423D01*
X2067001Y7769250D01*
X2059686Y7754416D01*
X2051151Y7738719D01*
X2043531Y7725409D01*
X2040077Y7720025D01*
X2036673Y7715402D01*
X2033320Y7711389D01*
X2029764Y7707985D01*
X2026005Y7705090D01*
X2021839Y7702600D01*
X2017268Y7700467D01*
X2012035Y7698638D01*
X2006142Y7696962D01*
X1991766Y7693914D01*
X1973173Y7690713D01*
X1963724Y7689392D01*
X1953514Y7688478D01*
X1942642Y7687970D01*
X1931111Y7687767D01*
X1919071Y7687919D01*
X1906574Y7688427D01*
X1893773Y7689240D01*
X1880616Y7690358D01*
X1853895Y7693456D01*
X1840433Y7695438D01*
X1813763Y7700111D01*
X1800707Y7702803D01*
X1775612Y7708849D01*
X1763725Y7712151D01*
X1752346Y7715656D01*
X1741678Y7719314D01*
X1731670Y7723073D01*
X1722475Y7727035D01*
X1714144Y7731099D01*
X1706981Y7734198D01*
X1701495Y7735163D01*
X1697989Y7733944D01*
X1696720Y7730693D01*
X1697075Y7729270D01*
X1697989Y7727746D01*
X1699514Y7726070D01*
X1704289Y7722412D01*
X1711045Y7718348D01*
X1719580Y7713980D01*
X1729689Y7709408D01*
X1741068Y7704683D01*
X1753565Y7699908D01*
X1780743Y7690510D01*
X1795018Y7686090D01*
X1809394Y7681975D01*
X1823618Y7678216D01*
X1837537Y7674864D01*
X1850847Y7672120D01*
X1863343Y7669936D01*
X1895348Y7665567D01*
X1900631Y7664500D01*
X1904390Y7663332D01*
X1906727Y7661909D01*
X1907692Y7660284D01*
X1907387Y7658201D01*
X1905965Y7655661D01*
X1903526Y7652562D01*
X1895906Y7644282D01*
X1889302Y7637780D01*
X1882444Y7632141D01*
X1875078Y7627264D01*
X1867001Y7623200D01*
X1858111Y7619796D01*
X1853336Y7618323D01*
X1842871Y7615936D01*
X1831086Y7614158D01*
X1817928Y7612938D01*
X1803095Y7612227D01*
X1786483Y7612024D01*
X1732838Y7613040D01*
X1719884Y7612989D01*
X1709877Y7612684D01*
X1702917Y7612125D01*
X1698955Y7611364D01*
X1698091Y7610906D01*
X1698040Y7610398D01*
X1698701Y7609890D01*
X1700174Y7609281D01*
X1705457Y7608062D01*
X1713890Y7606741D01*
X1725472Y7605318D01*
X1756359Y7602524D01*
X1768754Y7601000D01*
X1773834Y7599984D01*
X1778254Y7598714D01*
X1782013Y7597140D01*
X1785213Y7595209D01*
X1787855Y7592872D01*
X1790090Y7590078D01*
X1791919Y7586675D01*
X1793341Y7582712D01*
X1794560Y7578090D01*
X1795475Y7572756D01*
X1796897Y7559649D01*
X1799488Y7523276D01*
X1764995Y7513320D01*
X1758238Y7511592D01*
X1752498Y7510576D01*
X1747570Y7510322D01*
X1743354Y7511034D01*
X1739544Y7512812D01*
X1736039Y7515707D01*
X1732635Y7519924D01*
X1729079Y7525562D01*
X1725218Y7532725D01*
X1715922Y7552181D01*
X1707896Y7568336D01*
X1700987Y7580528D01*
X1697989Y7585049D01*
X1695348Y7588503D01*
X1693011Y7590891D01*
X1691081Y7592110D01*
X1689506Y7592212D01*
X1688388Y7591145D01*
X1687728Y7588859D01*
X1687474Y7585405D01*
X1687779Y7583373D01*
X1690217Y7575753D01*
X1694688Y7564170D01*
X1700834Y7549438D01*
X1708302Y7532471D01*
X1721154Y7504887D01*
X1724101Y7500264D01*
X1727962Y7496505D01*
X1732635Y7493660D01*
X1737969Y7491780D01*
X1743862Y7490866D01*
X1750161Y7491018D01*
X1756765Y7492136D01*
X1763522Y7494371D01*
X1769160Y7496505D01*
X1774342Y7498080D01*
X1779168Y7499045D01*
X1783588Y7499400D01*
X1787702Y7499197D01*
X1791411Y7498283D01*
X1794865Y7496759D01*
X1798015Y7494574D01*
X1800860Y7491679D01*
X1803450Y7488072D01*
X1805838Y7483754D01*
X1808022Y7478674D01*
X1810004Y7472832D01*
X1811832Y7466228D01*
X1813509Y7458811D01*
X1818233Y7432090D01*
X1801520Y7448042D01*
X1794814Y7454849D01*
X1788922Y7461605D01*
X1784502Y7467600D01*
X1780590Y7474813D01*
X1777898Y7476591D01*
X1774139Y7477302D01*
X1769364Y7476896D01*
X1763572Y7475372D01*
X1756867Y7472781D01*
X1749145Y7469124D01*
X1737868Y7462977D01*
X1735124Y7461910D01*
X1732330Y7461097D01*
X1729384Y7460589D01*
X1726336Y7460437D01*
X1723136Y7460538D01*
X1716328Y7461808D01*
X1712671Y7462926D01*
X1704797Y7466279D01*
X1700530Y7468463D01*
X1691335Y7474000D01*
X1681175Y7481062D01*
X1669846Y7489698D01*
X1657299Y7500010D01*
X1643380Y7512050D01*
X1628089Y7525867D01*
X1619453Y7532370D01*
X1611782Y7535773D01*
X1606245Y7535824D01*
X1604162Y7532116D01*
X1604873Y7530592D01*
X1607058Y7527747D01*
X1614982Y7518958D01*
X1626717Y7507071D01*
X1641043Y7493253D01*
X1655622Y7480046D01*
X1669389Y7468616D01*
X1682242Y7459065D01*
X1694180Y7451344D01*
X1699768Y7448194D01*
X1710232Y7443317D01*
X1715058Y7441590D01*
X1719681Y7440320D01*
X1723948Y7439558D01*
X1728012Y7439253D01*
X1731772Y7439456D01*
X1735226Y7440117D01*
X1738375Y7441285D01*
X1741271Y7442962D01*
X1752803Y7452766D01*
X1761032Y7457186D01*
X1767941Y7458252D01*
X1773224Y7455814D01*
X1775764Y7452817D01*
X1781708Y7443876D01*
X1786737Y7434834D01*
X1788109Y7431582D01*
X1788363Y7430058D01*
X1784451Y7432243D01*
X1781759Y7432141D01*
X1779371Y7430566D01*
X1777288Y7427925D01*
X1775815Y7424369D01*
X1774952Y7420254D01*
X1775002Y7415784D01*
X1776018Y7411262D01*
X1778203Y7404912D01*
X1778558Y7402525D01*
X1776780Y7403947D01*
X1768449Y7414056D01*
X1766570Y7415631D01*
X1766671Y7413599D01*
X1768297Y7407808D01*
X1769211Y7403541D01*
X1769211Y7400239D01*
X1768297Y7398105D01*
X1766468Y7397394D01*
X1764588Y7397851D01*
X1762963Y7399070D01*
X1761896Y7400899D01*
X1761540Y7403185D01*
X1760982Y7404353D01*
X1759457Y7403338D01*
X1757273Y7400391D01*
X1754581Y7395667D01*
X1749907Y7386421D01*
X1748078Y7381392D01*
X1748942Y7379258D01*
X1752295Y7378852D01*
X1753971Y7379258D01*
X1755190Y7380376D01*
X1755851Y7382052D01*
X1755749Y7386269D01*
X1756664Y7388352D01*
X1758238Y7390180D01*
X1760372Y7391400D01*
X1765300Y7390942D01*
X1766011Y7386116D01*
X1763014Y7379665D01*
X1756918Y7374229D01*
X1753311Y7372502D01*
X1750364Y7371486D01*
X1748383Y7371283D01*
X1746910Y7372553D01*
X1744929Y7372299D01*
X1741982Y7371334D01*
X1738375Y7369606D01*
X1734820Y7367066D01*
X1732025Y7363764D01*
X1730197Y7360158D01*
X1729689Y7356703D01*
X1730044Y7352588D01*
X1730451Y7351217D01*
X1731162Y7352639D01*
X1732330Y7356856D01*
X1733702Y7360005D01*
X1735988Y7362596D01*
X1738782Y7364323D01*
X1741779Y7364984D01*
X1745234Y7364628D01*
X1746250Y7363256D01*
X1744675Y7360361D01*
X1740458Y7355433D01*
X1735937Y7351318D01*
X1731111Y7348778D01*
X1725879Y7347813D01*
X1720088Y7348321D01*
X1713484Y7349286D01*
X1712772Y7348981D01*
X1716125Y7346797D01*
X1717344Y7344968D01*
X1717598Y7342835D01*
X1716887Y7340701D01*
X1716024Y7338923D01*
X1716176Y7338059D01*
X1717192Y7338059D01*
X1721256Y7340142D01*
X1722932Y7340650D01*
X1724101Y7340600D01*
X1724507Y7339888D01*
X1723034Y7338212D01*
X1719021Y7335469D01*
X1713331Y7332014D01*
X1699666Y7324699D01*
X1693316Y7321600D01*
X1688185Y7319467D01*
X1685086Y7318654D01*
X1684375Y7319264D01*
X1684426Y7320838D01*
X1685137Y7323226D01*
X1688338Y7330338D01*
X1689404Y7335215D01*
X1689709Y7340549D01*
X1689404Y7346289D01*
X1688490Y7352284D01*
X1687017Y7358481D01*
X1685036Y7364730D01*
X1682597Y7370927D01*
X1679752Y7376972D01*
X1676501Y7382764D01*
X1672945Y7388148D01*
X1669135Y7393025D01*
X1665122Y7397343D01*
X1660906Y7400950D01*
X1656537Y7403744D01*
X1652117Y7405624D01*
X1645005Y7407452D01*
X1639722Y7408113D01*
X1636268Y7407706D01*
X1634744Y7406335D01*
X1635048Y7404100D01*
X1637334Y7401153D01*
X1641602Y7397546D01*
X1652625Y7390384D01*
X1656740Y7386929D01*
X1660296Y7383119D01*
X1663293Y7378953D01*
X1665732Y7374432D01*
X1667560Y7369556D01*
X1668830Y7364272D01*
X1669592Y7358634D01*
X1669745Y7352538D01*
X1669389Y7346035D01*
X1668475Y7339126D01*
X1667002Y7331760D01*
X1664258Y7322312D01*
X1662531Y7317892D01*
X1660448Y7313574D01*
X1657908Y7309205D01*
X1654911Y7304786D01*
X1651355Y7300112D01*
X1647189Y7295184D01*
X1636826Y7284161D01*
X1623212Y7270902D01*
X1619808Y7268006D01*
X1615795Y7265212D01*
X1611223Y7262418D01*
X1600708Y7257135D01*
X1588820Y7252309D01*
X1576120Y7248042D01*
X1563268Y7244435D01*
X1550720Y7241692D01*
X1539189Y7239863D01*
X1533956Y7239355D01*
X1524914Y7239203D01*
X1521256Y7239609D01*
X1518259Y7240371D01*
X1516024Y7241438D01*
X1514602Y7242860D01*
X1514094Y7244689D01*
X1514500Y7246924D01*
X1514398Y7252360D01*
X1510182Y7253833D01*
X1504442Y7251547D01*
X1499768Y7245756D01*
X1497736Y7240219D01*
X1496314Y7234681D01*
X1495653Y7229144D01*
X1495552Y7223759D01*
X1496161Y7218476D01*
X1497330Y7213295D01*
X1499108Y7208316D01*
X1501495Y7203490D01*
X1504442Y7198969D01*
X1507896Y7194651D01*
X1511909Y7190638D01*
X1516430Y7186930D01*
X1521460Y7183577D01*
X1526946Y7180630D01*
X1532940Y7178090D01*
X1543659Y7174636D01*
X1546199Y7173569D01*
X1546656Y7172756D01*
X1544980Y7172096D01*
X1540967Y7171639D01*
X1525117Y7171080D01*
X1489964Y7170928D01*
X1484325Y7171232D01*
X1479550Y7171791D01*
X1475587Y7172706D01*
X1472285Y7174026D01*
X1469694Y7175855D01*
X1467612Y7178243D01*
X1466037Y7181240D01*
X1464818Y7184948D01*
X1463954Y7189419D01*
X1462836Y7200950D01*
X1462074Y7216444D01*
X1461058Y7231329D01*
X1459534Y7246010D01*
X1457756Y7258659D01*
X1454404Y7274356D01*
X1454048Y7279894D01*
X1455013Y7284415D01*
X1457350Y7288072D01*
X1461211Y7291070D01*
X1466748Y7293508D01*
X1474063Y7295489D01*
X1483360Y7297216D01*
X1488287Y7298436D01*
X1493367Y7300366D01*
X1498549Y7303008D01*
X1503629Y7306208D01*
X1508607Y7309916D01*
X1513382Y7314082D01*
X1517853Y7318603D01*
X1521968Y7323328D01*
X1525524Y7328306D01*
X1528572Y7333335D01*
X1530959Y7338364D01*
X1532585Y7343343D01*
X1533652Y7348677D01*
X1534312Y7354468D01*
X1534668Y7360615D01*
X1534668Y7366863D01*
X1533753Y7379004D01*
X1532890Y7384592D01*
X1531772Y7389520D01*
X1530451Y7393686D01*
X1528927Y7396886D01*
X1527251Y7398969D01*
X1525422Y7399680D01*
X1522526Y7399020D01*
X1520647Y7397089D01*
X1519732Y7393889D01*
X1519885Y7389520D01*
X1520494Y7383272D01*
X1520494Y7377175D01*
X1519986Y7371334D01*
X1518970Y7365746D01*
X1517396Y7360412D01*
X1515364Y7355433D01*
X1512824Y7350709D01*
X1509877Y7346391D01*
X1506474Y7342428D01*
X1502664Y7338872D01*
X1498447Y7335723D01*
X1493875Y7333030D01*
X1488948Y7330795D01*
X1483664Y7329068D01*
X1478076Y7327849D01*
X1472184Y7327188D01*
X1457706Y7326630D01*
X1442059Y7326477D01*
X1426260Y7326680D01*
X1411224Y7327239D01*
X1398016Y7328103D01*
X1387652Y7329220D01*
X1380998Y7330490D01*
X1379474Y7331202D01*
X1379220Y7331913D01*
X1381455Y7333386D01*
X1385722Y7334351D01*
X1391462Y7334808D01*
X1404315Y7334402D01*
X1409547Y7334808D01*
X1413052Y7335723D01*
X1414322Y7337094D01*
X1412900Y7338669D01*
X1408988Y7340244D01*
X1403248Y7341616D01*
X1396187Y7342581D01*
X1389278Y7342987D01*
X1383944Y7342886D01*
X1380642Y7342276D01*
X1379982Y7341209D01*
X1380134Y7339838D01*
X1379169Y7338263D01*
X1377238Y7336688D01*
X1374546Y7335367D01*
X1369923Y7333996D01*
X1364589Y7333132D01*
X1358900Y7332675D01*
X1353261Y7332725D01*
X1348028Y7333132D01*
X1343507Y7333996D01*
X1340104Y7335266D01*
X1338122Y7336942D01*
X1338173Y7338517D01*
X1340510Y7339634D01*
X1344777Y7340092D01*
X1355598Y7339431D01*
X1358188Y7339431D01*
X1358087Y7339736D01*
X1351330Y7341565D01*
X1348587Y7343140D01*
X1347165Y7344918D01*
X1347470Y7350048D01*
X1343609Y7350963D01*
X1337868Y7349591D01*
X1331010Y7345070D01*
X1328978Y7344460D01*
X1326438Y7344156D01*
X1323289Y7344105D01*
X1315618Y7345019D01*
X1306068Y7347051D01*
X1294892Y7350150D01*
X1282344Y7354316D01*
X1268577Y7359446D01*
X1253845Y7365441D01*
X1238300Y7372299D01*
X1222197Y7379919D01*
X1201978Y7390079D01*
X1195120Y7393787D01*
X1190447Y7396683D01*
X1187856Y7398664D01*
X1187297Y7399883D01*
X1188720Y7400290D01*
X1192123Y7399985D01*
X1208278Y7397445D01*
X1186891Y7405674D01*
X1183487Y7407198D01*
X1182166Y7408418D01*
X1140474Y7408418D01*
X1121016Y7404455D01*
X1157224Y7404455D01*
X1157833Y7405217D01*
X1160272Y7405725D01*
X1164336Y7405878D01*
X1168349Y7405725D01*
X1170787Y7405217D01*
X1171448Y7404455D01*
X1170127Y7403592D01*
X1167384Y7402830D01*
X1164336Y7402626D01*
X1161237Y7402830D01*
X1158544Y7403592D01*
X1157224Y7404455D01*
X1121016Y7404455D01*
X1109167Y7402322D01*
X1107490Y7401712D01*
X1107744Y7400848D01*
X1109929Y7399680D01*
X1113891Y7398308D01*
X1126896Y7394956D01*
X1146098Y7390942D01*
X1157020Y7388402D01*
X1169873Y7384694D01*
X1183944Y7380020D01*
X1198626Y7374636D01*
X1213104Y7368794D01*
X1239316Y7357008D01*
X1263345Y7346899D01*
X1274927Y7342479D01*
X1286357Y7338415D01*
X1297635Y7334707D01*
X1308862Y7331405D01*
X1320088Y7328408D01*
X1331366Y7325766D01*
X1342745Y7323429D01*
X1354328Y7321397D01*
X1366062Y7319670D01*
X1378153Y7318197D01*
X1390548Y7316978D01*
X1403350Y7316012D01*
X1436624Y7314234D01*
X1451203Y7313269D01*
X1460652Y7312202D01*
X1463598Y7311694D01*
X1465326Y7311136D01*
X1466037Y7310526D01*
X1465630Y7309916D01*
X1464259Y7309256D01*
X1456944Y7307021D01*
X1452676Y7305192D01*
X1449019Y7303008D01*
X1445971Y7300468D01*
X1443532Y7297521D01*
X1441653Y7294168D01*
X1440383Y7290308D01*
X1439621Y7285939D01*
X1439418Y7281011D01*
X1439672Y7275474D01*
X1440484Y7269378D01*
X1442770Y7257288D01*
X1444548Y7244283D01*
X1445869Y7229398D01*
X1446631Y7214565D01*
X1446682Y7192924D01*
X1446885Y7184948D01*
X1447596Y7178243D01*
X1448257Y7175398D01*
X1449120Y7172807D01*
X1450238Y7170470D01*
X1451711Y7168388D01*
X1453489Y7166508D01*
X1455623Y7164882D01*
X1458214Y7163460D01*
X1461211Y7162190D01*
X1464716Y7161072D01*
X1473250Y7159294D01*
X1484122Y7157974D01*
X1497634Y7156958D01*
X1533652Y7155332D01*
X1580184Y7153656D01*
X1597660Y7153351D01*
X1609801Y7153605D01*
X1614170Y7153960D01*
X1617472Y7154468D01*
X1619910Y7155129D01*
X1621485Y7155942D01*
X1622399Y7156958D01*
X1622653Y7158126D01*
X1621942Y7161022D01*
X1619808Y7163816D01*
X1616151Y7166660D01*
X1610766Y7169505D01*
X1603705Y7172452D01*
X1594764Y7175550D01*
X1583842Y7178802D01*
X1561896Y7184745D01*
X1546555Y7189470D01*
X1540154Y7191857D01*
X1534464Y7194245D01*
X1529537Y7196683D01*
X1525320Y7199172D01*
X1521815Y7201763D01*
X1518869Y7204456D01*
X1516532Y7207250D01*
X1514754Y7210196D01*
X1513484Y7213295D01*
X1512112Y7217867D01*
X1511503Y7221321D01*
X1512163Y7223759D01*
X1514398Y7225487D01*
X1518767Y7226553D01*
X1525625Y7227214D01*
X1548587Y7228027D01*
X1561592Y7228890D01*
X1567992Y7229754D01*
X1574292Y7230872D01*
X1580540Y7232243D01*
X1586687Y7233869D01*
X1592783Y7235748D01*
X1604568Y7240219D01*
X1615897Y7245705D01*
X1626616Y7252106D01*
X1631797Y7255611D01*
X1636776Y7259370D01*
X1641551Y7263333D01*
X1646224Y7267549D01*
X1650644Y7271918D01*
X1658924Y7281316D01*
X1670456Y7295388D01*
X1675028Y7300468D01*
X1678939Y7304328D01*
X1682242Y7306970D01*
X1685137Y7308443D01*
X1687728Y7308799D01*
X1690014Y7308088D01*
X1692249Y7306309D01*
X1694484Y7303516D01*
X1696770Y7299756D01*
X1699310Y7295032D01*
X1702104Y7288733D01*
X1703781Y7282688D01*
X1704339Y7276744D01*
X1703781Y7270800D01*
X1702054Y7264806D01*
X1699158Y7258659D01*
X1695094Y7252258D01*
X1684731Y7238847D01*
X1681225Y7232903D01*
X1679346Y7227316D01*
X1679041Y7221931D01*
X1680413Y7216546D01*
X1683410Y7210907D01*
X1688033Y7204913D01*
X1697939Y7194803D01*
X1705610Y7186472D01*
X1713331Y7177328D01*
X1720240Y7168540D01*
X1726742Y7159701D01*
X1730349Y7155688D01*
X1734007Y7152640D01*
X1737766Y7150404D01*
X1741728Y7149134D01*
X1745996Y7148728D01*
X1750568Y7149236D01*
X1755597Y7150608D01*
X1761134Y7152944D01*
X1767230Y7156145D01*
X1774037Y7160259D01*
X1796491Y7175347D01*
X1831238Y7197750D01*
X1840839Y7204608D01*
X1844446Y7207554D01*
X1847240Y7210145D01*
X1849221Y7212431D01*
X1850389Y7214362D01*
X1850847Y7215987D01*
X1850491Y7217206D01*
X1849424Y7218121D01*
X1847545Y7218680D01*
X1845005Y7218832D01*
X1841652Y7218680D01*
X1832914Y7217206D01*
X1821332Y7214209D01*
X1807006Y7209688D01*
X1792020Y7204608D01*
X1785518Y7202881D01*
X1779371Y7201611D01*
X1773682Y7200849D01*
X1768551Y7200544D01*
X1763979Y7200595D01*
X1760067Y7201103D01*
X1756918Y7201916D01*
X1754530Y7203135D01*
X1753006Y7204608D01*
X1752396Y7206437D01*
X1752803Y7208469D01*
X1754276Y7210755D01*
X1756867Y7213295D01*
X1760626Y7216038D01*
X1770583Y7221626D01*
X1775256Y7224623D01*
X1779727Y7227925D01*
X1783994Y7231481D01*
X1791817Y7239253D01*
X1795424Y7243470D01*
X1798828Y7247890D01*
X1804822Y7257186D01*
X1807514Y7262012D01*
X1812086Y7272070D01*
X1815642Y7282434D01*
X1818132Y7293000D01*
X1819605Y7303617D01*
X1819910Y7308900D01*
X1819910Y7314133D01*
X1819656Y7319314D01*
X1819097Y7324445D01*
X1818233Y7329474D01*
X1817065Y7334351D01*
X1815642Y7339126D01*
X1813864Y7343800D01*
X1811782Y7348270D01*
X1809394Y7352538D01*
X1806702Y7356652D01*
X1803654Y7360513D01*
X1795068Y7369708D01*
X1790852Y7374788D01*
X1787804Y7379360D01*
X1785772Y7383424D01*
X1784908Y7386980D01*
X1785061Y7390079D01*
X1786331Y7392619D01*
X1788718Y7394702D01*
X1790496Y7396784D01*
X1792427Y7400594D01*
X1794154Y7405624D01*
X1797456Y7419340D01*
X1799793Y7422743D01*
X1804111Y7422235D01*
X1811934Y7418476D01*
X1818589Y7415631D01*
X1824126Y7414514D01*
X1828393Y7415225D01*
X1831492Y7417663D01*
X1833422Y7421930D01*
X1834134Y7428026D01*
X1833676Y7435850D01*
X1830882Y7451852D01*
X1830374Y7457541D01*
X1830425Y7462469D01*
X1830984Y7466634D01*
X1832102Y7470089D01*
X1833727Y7472832D01*
X1835861Y7474762D01*
X1838452Y7475981D01*
X1841449Y7476388D01*
X1844903Y7476083D01*
X1848764Y7474966D01*
X1852980Y7473035D01*
X1857603Y7470343D01*
X1862531Y7466888D01*
X1867763Y7462570D01*
X1877872Y7453172D01*
X1886356Y7446060D01*
X1893976Y7440879D01*
X1900631Y7437475D01*
X1903577Y7436459D01*
X1906320Y7435799D01*
X1908810Y7435545D01*
X1911096Y7435697D01*
X1913077Y7436205D01*
X1914855Y7437069D01*
X1916379Y7438237D01*
X1917598Y7439761D01*
X1918614Y7441641D01*
X1919376Y7443774D01*
X1919884Y7446162D01*
X1920138Y7448854D01*
X1919833Y7455001D01*
X1918462Y7462062D01*
X1916023Y7469936D01*
X1912467Y7478522D01*
X1907844Y7487666D01*
X1902053Y7497267D01*
X1895144Y7507274D01*
X1887118Y7517536D01*
X1878228Y7527493D01*
X1873961Y7531557D01*
X1869795Y7535011D01*
X1865680Y7537754D01*
X1861515Y7539888D01*
X1857146Y7541412D01*
X1852574Y7542326D01*
X1847646Y7542733D01*
X1842312Y7542580D01*
X1836470Y7541920D01*
X1830019Y7540802D01*
X1807819Y7535519D01*
X1807819Y7554112D01*
X1807514Y7562240D01*
X1806600Y7570571D01*
X1805228Y7578140D01*
X1801622Y7590434D01*
X1803400Y7594142D01*
X1810613Y7596378D01*
X1832813Y7599375D01*
X1840230Y7600696D01*
X1847342Y7602270D01*
X1860753Y7606334D01*
X1867052Y7608824D01*
X1873148Y7611567D01*
X1878990Y7614615D01*
X1884578Y7617968D01*
X1889963Y7621625D01*
X1895093Y7625588D01*
X1900021Y7629855D01*
X1904746Y7634478D01*
X1909267Y7639354D01*
X1913585Y7644587D01*
X1921052Y7654645D01*
X1924202Y7658150D01*
X1927656Y7660792D01*
X1931771Y7662824D01*
X1937054Y7664348D01*
X1943862Y7665516D01*
X1977593Y7668869D01*
X1990039Y7670546D01*
X2001367Y7672628D01*
X2011680Y7675219D01*
X2021027Y7678420D01*
X2025446Y7680248D01*
X2029612Y7682280D01*
X2037537Y7687005D01*
X2044852Y7692593D01*
X2051710Y7699197D01*
X2058263Y7706918D01*
X2064512Y7715758D01*
X2070658Y7725918D01*
X2076805Y7737449D01*
X2083054Y7750454D01*
X2089505Y7765084D01*
X2096262Y7781340D01*
X2100021Y7791297D01*
X2103069Y7801102D01*
X2105456Y7810753D01*
X2107184Y7820253D01*
X2108200Y7829600D01*
X2108606Y7838795D01*
X2108352Y7847787D01*
X2107438Y7856626D01*
X2105914Y7865262D01*
X2103780Y7873695D01*
X2100986Y7881924D01*
X2097582Y7890002D01*
X2093569Y7897825D01*
X2088946Y7905394D01*
X2083714Y7912760D01*
X2077872Y7919923D01*
X2071522Y7926831D01*
X2064512Y7933486D01*
X2056993Y7939887D01*
X2048865Y7946034D01*
X2040178Y7951876D01*
X2030984Y7957464D01*
X2021230Y7962798D01*
X2010918Y7967827D01*
X2000046Y7972602D01*
X1988718Y7977022D01*
X1976831Y7981137D01*
X1964436Y7984998D01*
X1951532Y7988503D01*
X1938121Y7991652D01*
X1924202Y7994497D01*
X1909825Y7997037D01*
X1894941Y7999171D01*
X1879600Y8001000D01*
X1866036Y8002219D01*
X1852320Y8003082D01*
X1838502Y8003540D01*
G37*
G36*
X1754581Y7896656D02*
G01*
X1749907Y7896098D01*
X1742744Y7892592D01*
X1739950Y7890205D01*
X1737614Y7886395D01*
X1735734Y7881518D01*
X1734362Y7875879D01*
X1733448Y7869631D01*
X1733092Y7863179D01*
X1733143Y7856778D01*
X1733753Y7850682D01*
X1734870Y7845247D01*
X1736496Y7840624D01*
X1738680Y7837220D01*
X1741373Y7835239D01*
X1745792Y7834020D01*
X1750009Y7833817D01*
X1753920Y7834477D01*
X1757527Y7835950D01*
X1760778Y7838135D01*
X1763623Y7840980D01*
X1766112Y7844434D01*
X1768093Y7848346D01*
X1769618Y7852664D01*
X1770634Y7857286D01*
X1771040Y7862112D01*
X1770888Y7867142D01*
X1770125Y7872222D01*
X1768652Y7877302D01*
X1766468Y7882280D01*
X1763572Y7887106D01*
X1758543Y7893812D01*
G37*
G36*
X2040940Y7870291D02*
G01*
X2036572Y7869631D01*
X2032558Y7867903D01*
X2029053Y7865262D01*
X2026107Y7861706D01*
X2023872Y7857337D01*
X2022449Y7852206D01*
X2022043Y7846415D01*
X2022703Y7840014D01*
X2024227Y7833563D01*
X2026107Y7828076D01*
X2028240Y7823606D01*
X2030526Y7820152D01*
X2032914Y7817764D01*
X2035302Y7816494D01*
X2037537Y7816342D01*
X2039620Y7817307D01*
X2041347Y7819491D01*
X2042718Y7822895D01*
X2043633Y7827518D01*
X2044293Y7840370D01*
X2045868Y7843977D01*
X2049373Y7844840D01*
X2060092Y7842961D01*
X2063546Y7843164D01*
X2065832Y7844332D01*
X2066950Y7846314D01*
X2066899Y7849057D01*
X2065629Y7852511D01*
X2063140Y7856575D01*
X2059432Y7861147D01*
X2054910Y7865313D01*
X2050237Y7868208D01*
X2045563Y7869834D01*
G37*
G36*
X1236624Y7388098D02*
G01*
X1235557Y7387590D01*
X1236014Y7386116D01*
X1237843Y7383983D01*
X1240993Y7381341D01*
X1244854Y7378700D01*
X1248714Y7376515D01*
X1252118Y7375042D01*
X1254607Y7374534D01*
X1255674Y7375042D01*
X1255217Y7376515D01*
X1253388Y7378700D01*
X1250238Y7381341D01*
X1246378Y7383983D01*
X1242517Y7386116D01*
X1239113Y7387590D01*
G37*
G36*
X1284681Y7369606D02*
G01*
X1282903Y7369251D01*
X1281430Y7368235D01*
X1280414Y7366762D01*
X1280058Y7364984D01*
X1280414Y7363155D01*
X1281430Y7361681D01*
X1282903Y7360716D01*
X1284681Y7360361D01*
X1286510Y7360716D01*
X1287983Y7361681D01*
X1288948Y7363155D01*
X1289304Y7364984D01*
X1288948Y7366762D01*
X1287983Y7368235D01*
X1286510Y7369251D01*
G37*
G36*
X1301292Y7359954D02*
G01*
X1298041Y7359903D01*
X1295857Y7359396D01*
X1294841Y7358583D01*
X1295196Y7357516D01*
X1296771Y7356652D01*
X1298956Y7356297D01*
X1301496Y7356449D01*
X1304086Y7357160D01*
X1305966Y7358227D01*
X1306068Y7359040D01*
X1304493Y7359650D01*
G37*
G36*
X1313586Y7355382D02*
G01*
X1313129Y7354316D01*
X1314805Y7351064D01*
X1316329Y7349286D01*
X1318412Y7347813D01*
X1320800Y7346848D01*
X1323136Y7346543D01*
X1324914Y7346848D01*
X1325270Y7347813D01*
X1324203Y7349236D01*
X1321714Y7351064D01*
X1316380Y7354316D01*
G37*
G36*
X1430934Y7341463D02*
G01*
X1427683Y7341362D01*
X1425448Y7340904D01*
X1424432Y7340092D01*
X1424838Y7339025D01*
X1426413Y7338110D01*
X1428597Y7337755D01*
X1431137Y7337958D01*
X1433728Y7338669D01*
X1435608Y7339685D01*
X1435709Y7340549D01*
X1434134Y7341108D01*
G37*
G36*
X1653489Y7330795D02*
G01*
X1652168Y7329220D01*
X1650441Y7325614D01*
X1647342Y7317231D01*
X1646326Y7311898D01*
X1647342Y7310475D01*
X1650441Y7314031D01*
X1652168Y7317282D01*
X1653539Y7320991D01*
X1654403Y7324699D01*
X1654657Y7327950D01*
X1654302Y7330338D01*
G37*
G36*
X1631442Y7309408D02*
G01*
X1629613Y7308900D01*
X1628546Y7307529D01*
X1628190Y7305497D01*
X1628749Y7302957D01*
X1629003Y7299706D01*
X1627835Y7295540D01*
X1625498Y7291070D01*
X1622145Y7286752D01*
X1618284Y7282332D01*
X1616303Y7279284D01*
X1615948Y7277608D01*
X1617065Y7277303D01*
X1619554Y7278268D01*
X1623161Y7280554D01*
X1627733Y7284059D01*
X1633118Y7288784D01*
X1640941Y7296607D01*
X1645208Y7302042D01*
X1645462Y7304278D01*
X1639366Y7301738D01*
X1637893Y7301890D01*
X1636928Y7302855D01*
X1636115Y7306411D01*
X1635048Y7307986D01*
X1633423Y7309002D01*
G37*
G36*
X1607667Y7274559D02*
G01*
X1603349Y7274001D01*
X1601063Y7271512D01*
X1601876Y7267651D01*
X1603451Y7266228D01*
X1605788Y7265517D01*
X1608632Y7265517D01*
X1611630Y7266279D01*
X1614830Y7267803D01*
X1616100Y7269225D01*
X1615389Y7270800D01*
X1612849Y7272731D01*
G37*
G36*
X1581556Y7272375D02*
G01*
X1579524Y7272020D01*
X1577441Y7271003D01*
X1575511Y7269530D01*
X1574038Y7267752D01*
X1573276Y7265974D01*
X1573377Y7264501D01*
X1574241Y7263485D01*
X1575816Y7263130D01*
X1577848Y7263485D01*
X1579930Y7264501D01*
X1581810Y7265974D01*
X1583283Y7267752D01*
X1584045Y7269530D01*
X1583944Y7271003D01*
X1583131Y7272020D01*
G37*
G36*
X1357122Y8569198D02*
G01*
X1357122Y8434324D01*
X1373632Y8434324D01*
X1373632Y8493760D01*
X1380845Y8499297D01*
X1387805Y8503107D01*
X1394612Y8505240D01*
X1401572Y8505952D01*
X1406194Y8505596D01*
X1410563Y8504478D01*
X1414678Y8502751D01*
X1418539Y8500313D01*
X1422095Y8497316D01*
X1425244Y8493709D01*
X1428038Y8489594D01*
X1430375Y8484971D01*
X1432306Y8479891D01*
X1433677Y8474405D01*
X1434541Y8468512D01*
X1434846Y8462264D01*
X1434592Y8455761D01*
X1433931Y8449716D01*
X1432763Y8444128D01*
X1431137Y8439048D01*
X1429105Y8434476D01*
X1426616Y8430463D01*
X1423720Y8427008D01*
X1420418Y8424113D01*
X1416761Y8421827D01*
X1412646Y8420201D01*
X1408176Y8419185D01*
X1403350Y8418830D01*
X1395577Y8419846D01*
X1388110Y8422792D01*
X1380845Y8427618D01*
X1373632Y8434324D01*
X1357122Y8434324D01*
X1357122Y8407400D01*
X1370838Y8407400D01*
X1372108Y8420608D01*
X1372870Y8420608D01*
X1376273Y8417458D01*
X1379931Y8414512D01*
X1383893Y8411819D01*
X1388059Y8409482D01*
X1392428Y8407552D01*
X1397000Y8406130D01*
X1401775Y8405164D01*
X1406652Y8404860D01*
X1411732Y8405114D01*
X1416558Y8405825D01*
X1421130Y8406993D01*
X1425448Y8408670D01*
X1429461Y8410752D01*
X1433220Y8413292D01*
X1436624Y8416290D01*
X1439773Y8419744D01*
X1442567Y8423605D01*
X1445056Y8427923D01*
X1447139Y8432647D01*
X1448917Y8437778D01*
X1450289Y8443264D01*
X1451305Y8449208D01*
X1451914Y8455558D01*
X1452118Y8462264D01*
X1451864Y8468715D01*
X1451102Y8474862D01*
X1449882Y8480704D01*
X1448206Y8486190D01*
X1446123Y8491270D01*
X1443634Y8496046D01*
X1440840Y8500364D01*
X1437690Y8504326D01*
X1434236Y8507882D01*
X1430528Y8510981D01*
X1426565Y8513673D01*
X1422450Y8515858D01*
X1418132Y8517636D01*
X1413662Y8518906D01*
X1409039Y8519668D01*
X1404366Y8519922D01*
X1395374Y8519058D01*
X1387500Y8516518D01*
X1380134Y8512403D01*
X1372870Y8506968D01*
X1373632Y8526018D01*
X1373632Y8569198D01*
G37*
G36*
X1837689Y8563356D02*
G01*
X1833219Y8562594D01*
X1829612Y8560358D01*
X1827174Y8556802D01*
X1826260Y8552180D01*
X1827174Y8547404D01*
X1829612Y8543798D01*
X1833219Y8541512D01*
X1837689Y8540750D01*
X1842414Y8541512D01*
X1846122Y8543798D01*
X1848510Y8547404D01*
X1849374Y8552180D01*
X1848510Y8556802D01*
X1846122Y8560358D01*
X1842414Y8562594D01*
G37*
G36*
X2152396Y8556244D02*
G01*
X2145690Y8556040D01*
X2139340Y8555431D01*
X2133295Y8554415D01*
X2127605Y8553043D01*
X2122271Y8551265D01*
X2117242Y8549132D01*
X2112568Y8546592D01*
X2108250Y8543696D01*
X2104237Y8540445D01*
X2100580Y8536838D01*
X2097278Y8532825D01*
X2094280Y8528558D01*
X2091689Y8523884D01*
X2089404Y8518906D01*
X2087473Y8513572D01*
X2085898Y8507984D01*
X2084628Y8502040D01*
X2083765Y8495741D01*
X2083206Y8489188D01*
X2083054Y8482330D01*
X2100326Y8482330D01*
X2100529Y8489289D01*
X2101138Y8495842D01*
X2102205Y8501989D01*
X2103628Y8507780D01*
X2105507Y8513114D01*
X2107793Y8518042D01*
X2110486Y8522512D01*
X2113584Y8526576D01*
X2117140Y8530183D01*
X2121103Y8533333D01*
X2125522Y8536025D01*
X2130348Y8538260D01*
X2135581Y8539988D01*
X2141270Y8541258D01*
X2147366Y8542020D01*
X2153920Y8542274D01*
X2172208Y8542274D01*
X2172208Y8421116D01*
X2153920Y8421116D01*
X2147366Y8421370D01*
X2141270Y8422182D01*
X2135581Y8423503D01*
X2130348Y8425383D01*
X2125522Y8427669D01*
X2121103Y8430514D01*
X2117140Y8433765D01*
X2113584Y8437524D01*
X2110486Y8441690D01*
X2107793Y8446312D01*
X2105507Y8451342D01*
X2103628Y8456777D01*
X2102205Y8462619D01*
X2101138Y8468817D01*
X2100529Y8475421D01*
X2100326Y8482330D01*
X2083054Y8482330D01*
X2083206Y8475472D01*
X2083765Y8468868D01*
X2084628Y8462568D01*
X2085848Y8456574D01*
X2087473Y8450884D01*
X2089353Y8445550D01*
X2091639Y8440470D01*
X2094280Y8435746D01*
X2097227Y8431377D01*
X2100529Y8427364D01*
X2104136Y8423656D01*
X2108149Y8420303D01*
X2112416Y8417356D01*
X2117090Y8414766D01*
X2122068Y8412530D01*
X2127351Y8410702D01*
X2132990Y8409279D01*
X2138984Y8408212D01*
X2145284Y8407603D01*
X2151888Y8407400D01*
X2188972Y8407400D01*
X2188972Y8556244D01*
G37*
G36*
X2011172Y8519922D02*
G01*
X2004568Y8519515D01*
X1998472Y8518347D01*
X1992833Y8516366D01*
X1987804Y8513673D01*
X1983282Y8510270D01*
X1979320Y8506155D01*
X1975916Y8501430D01*
X1973072Y8496046D01*
X1970887Y8490000D01*
X1969262Y8483447D01*
X1968296Y8476284D01*
X1968082Y8470900D01*
X1982724Y8470900D01*
X1983232Y8479129D01*
X1984654Y8486292D01*
X1986991Y8492439D01*
X1990191Y8497468D01*
X1994255Y8501380D01*
X1999132Y8504174D01*
X2004771Y8505901D01*
X2011172Y8506460D01*
X2017166Y8505850D01*
X2022805Y8504072D01*
X2028088Y8501126D01*
X2032812Y8497062D01*
X2036876Y8491982D01*
X2040128Y8485886D01*
X2042515Y8478824D01*
X2043938Y8470900D01*
X1968082Y8470900D01*
X1968042Y8465820D01*
X1968398Y8460790D01*
X1968754Y8458708D01*
X2043684Y8458708D01*
X2043175Y8452764D01*
X2042058Y8447227D01*
X2040483Y8442045D01*
X2038400Y8437321D01*
X2035810Y8433054D01*
X2032812Y8429244D01*
X2029307Y8425942D01*
X2025446Y8423198D01*
X2021128Y8420963D01*
X2016455Y8419388D01*
X2011476Y8418423D01*
X2006092Y8418068D01*
X1998421Y8418677D01*
X1991309Y8420404D01*
X1984654Y8423198D01*
X1978406Y8426958D01*
X1972310Y8416036D01*
X1979726Y8411718D01*
X1983739Y8409838D01*
X1988007Y8408162D01*
X1992579Y8406790D01*
X1997405Y8405723D01*
X2002586Y8405114D01*
X2008124Y8404860D01*
X2013457Y8405114D01*
X2018690Y8405825D01*
X2023668Y8407044D01*
X2028494Y8408771D01*
X2033016Y8410905D01*
X2037334Y8413496D01*
X2041347Y8416544D01*
X2045004Y8420049D01*
X2048357Y8423960D01*
X2051354Y8428228D01*
X2053945Y8432952D01*
X2056130Y8438083D01*
X2057857Y8443569D01*
X2059127Y8449462D01*
X2059939Y8455660D01*
X2060193Y8462264D01*
X2059939Y8468766D01*
X2059127Y8474964D01*
X2057857Y8480806D01*
X2056130Y8486292D01*
X2053945Y8491372D01*
X2051405Y8496147D01*
X2048459Y8500465D01*
X2045207Y8504428D01*
X2041652Y8507933D01*
X2037842Y8511032D01*
X2033778Y8513724D01*
X2029561Y8515908D01*
X2025142Y8517636D01*
X2020570Y8518906D01*
X2015896Y8519668D01*
G37*
G36*
X1909572Y8519922D02*
G01*
X1899920Y8518956D01*
X1890979Y8516416D01*
X1882952Y8512505D01*
X1876043Y8507730D01*
X1884172Y8497062D01*
X1889912Y8500821D01*
X1895906Y8503869D01*
X1902409Y8505952D01*
X1909572Y8506714D01*
X1919020Y8505393D01*
X1925675Y8501786D01*
X1929587Y8496554D01*
X1930907Y8490204D01*
X1928926Y8483041D01*
X1923592Y8477808D01*
X1915922Y8473846D01*
X1900732Y8468004D01*
X1894738Y8465413D01*
X1889048Y8462467D01*
X1883867Y8459063D01*
X1879447Y8454948D01*
X1876043Y8450021D01*
X1873808Y8444026D01*
X1872996Y8436864D01*
X1873656Y8430463D01*
X1875536Y8424468D01*
X1878685Y8419033D01*
X1883054Y8414308D01*
X1888591Y8410346D01*
X1895297Y8407400D01*
X1903120Y8405520D01*
X1912112Y8404860D01*
X1917954Y8405164D01*
X1923694Y8405977D01*
X1929231Y8407349D01*
X1934565Y8409127D01*
X1939645Y8411311D01*
X1944420Y8413851D01*
X1948891Y8416747D01*
X1953006Y8419846D01*
X1944624Y8431022D01*
X1937308Y8425637D01*
X1929638Y8421471D01*
X1921205Y8418779D01*
X1911604Y8417814D01*
X1901596Y8419236D01*
X1894484Y8423148D01*
X1890166Y8428939D01*
X1888743Y8436102D01*
X1889353Y8440216D01*
X1890979Y8443772D01*
X1893570Y8446871D01*
X1896922Y8449564D01*
X1900834Y8451951D01*
X1905152Y8454034D01*
X1920239Y8459876D01*
X1926031Y8462365D01*
X1931517Y8465210D01*
X1936445Y8468563D01*
X1940712Y8472525D01*
X1944014Y8477250D01*
X1946148Y8482736D01*
X1946910Y8489188D01*
X1946249Y8495487D01*
X1944420Y8501278D01*
X1941322Y8506510D01*
X1937105Y8511032D01*
X1931771Y8514740D01*
X1925370Y8517534D01*
X1917954Y8519312D01*
G37*
G36*
X1755139Y8519922D02*
G01*
X1750771Y8519718D01*
X1746757Y8519109D01*
X1739900Y8517128D01*
X1702054Y8517128D01*
X1702054Y8504428D01*
X1725168Y8504428D01*
X1721307Y8499856D01*
X1718259Y8494217D01*
X1716227Y8487714D01*
X1715566Y8481060D01*
X1730756Y8481060D01*
X1731264Y8486851D01*
X1732686Y8492032D01*
X1734972Y8496554D01*
X1738020Y8500364D01*
X1741627Y8503412D01*
X1745742Y8505647D01*
X1750314Y8507018D01*
X1755139Y8507476D01*
X1760118Y8507018D01*
X1764792Y8505647D01*
X1768957Y8503462D01*
X1772615Y8500465D01*
X1775612Y8496655D01*
X1777847Y8492134D01*
X1779270Y8486952D01*
X1779778Y8481060D01*
X1779270Y8475065D01*
X1777796Y8469680D01*
X1775460Y8465007D01*
X1772412Y8461044D01*
X1768754Y8457895D01*
X1764538Y8455558D01*
X1759966Y8454136D01*
X1755139Y8453628D01*
X1750314Y8454136D01*
X1745742Y8455558D01*
X1741627Y8457895D01*
X1737969Y8461044D01*
X1734972Y8465007D01*
X1732686Y8469680D01*
X1731264Y8475065D01*
X1730756Y8481060D01*
X1715566Y8481060D01*
X1715871Y8474913D01*
X1716938Y8469579D01*
X1718614Y8464702D01*
X1720900Y8460232D01*
X1723694Y8456168D01*
X1727047Y8452612D01*
X1730857Y8449513D01*
X1735023Y8446973D01*
X1739646Y8444890D01*
X1744522Y8443417D01*
X1749704Y8442502D01*
X1755139Y8442198D01*
X1759457Y8442452D01*
X1763826Y8443163D01*
X1768144Y8444433D01*
X1772157Y8446262D01*
X1775002Y8443518D01*
X1777339Y8440420D01*
X1778965Y8436762D01*
X1779524Y8432292D01*
X1778558Y8427364D01*
X1775358Y8423503D01*
X1769364Y8421014D01*
X1759966Y8420100D01*
X1737868Y8420100D01*
X1729028Y8419693D01*
X1721408Y8418525D01*
X1714906Y8416594D01*
X1709623Y8413800D01*
X1705559Y8410143D01*
X1702612Y8405622D01*
X1700834Y8400237D01*
X1700275Y8393938D01*
X1700490Y8391652D01*
X1716532Y8391652D01*
X1718005Y8398357D01*
X1722323Y8402777D01*
X1729486Y8405164D01*
X1739392Y8405876D01*
X1759457Y8405876D01*
X1765858Y8406434D01*
X1773428Y8407908D01*
X1778863Y8403183D01*
X1782673Y8398205D01*
X1784908Y8393125D01*
X1785620Y8388096D01*
X1785061Y8383727D01*
X1783334Y8379815D01*
X1780590Y8376412D01*
X1776831Y8373465D01*
X1772107Y8371179D01*
X1766417Y8369452D01*
X1759915Y8368385D01*
X1752600Y8368030D01*
X1744776Y8368538D01*
X1737766Y8370062D01*
X1731568Y8372348D01*
X1726387Y8375345D01*
X1722170Y8378952D01*
X1719072Y8382914D01*
X1717192Y8387232D01*
X1716532Y8391652D01*
X1700490Y8391652D01*
X1700733Y8389061D01*
X1702003Y8384286D01*
X1704136Y8379714D01*
X1707032Y8375396D01*
X1710689Y8371382D01*
X1715109Y8367725D01*
X1720189Y8364474D01*
X1725930Y8361680D01*
X1732330Y8359444D01*
X1739290Y8357768D01*
X1746808Y8356701D01*
X1754886Y8356346D01*
X1761439Y8356549D01*
X1767586Y8357260D01*
X1773326Y8358327D01*
X1778558Y8359851D01*
X1783334Y8361832D01*
X1787601Y8364169D01*
X1791258Y8366912D01*
X1794357Y8370011D01*
X1796796Y8373465D01*
X1798624Y8377326D01*
X1799742Y8381542D01*
X1800098Y8386064D01*
X1798980Y8393023D01*
X1795780Y8399678D01*
X1790649Y8405825D01*
X1783842Y8411210D01*
X1783842Y8411972D01*
X1787855Y8415070D01*
X1791004Y8419134D01*
X1793036Y8424164D01*
X1793748Y8430260D01*
X1792630Y8436711D01*
X1789734Y8442350D01*
X1785823Y8446973D01*
X1781556Y8450580D01*
X1781556Y8451342D01*
X1786788Y8456472D01*
X1791309Y8463330D01*
X1794560Y8471611D01*
X1795780Y8481060D01*
X1795424Y8486749D01*
X1794306Y8492032D01*
X1792579Y8497011D01*
X1790192Y8501532D01*
X1787296Y8505596D01*
X1783842Y8509254D01*
X1779930Y8512403D01*
X1775612Y8515045D01*
X1770938Y8517128D01*
X1765909Y8518652D01*
X1760626Y8519617D01*
G37*
G36*
X1625600Y8519922D02*
G01*
X1620113Y8519617D01*
X1615186Y8518702D01*
X1610715Y8517178D01*
X1606753Y8515045D01*
X1603248Y8512352D01*
X1600250Y8509050D01*
X1597761Y8505139D01*
X1595678Y8500668D01*
X1594104Y8495588D01*
X1592986Y8489950D01*
X1592275Y8483752D01*
X1592072Y8476996D01*
X1592072Y8407400D01*
X1608836Y8407400D01*
X1608836Y8474964D01*
X1609140Y8482380D01*
X1610055Y8488730D01*
X1611630Y8493963D01*
X1613916Y8498230D01*
X1616913Y8501430D01*
X1620621Y8503666D01*
X1625142Y8504986D01*
X1630426Y8505444D01*
X1634642Y8505139D01*
X1638655Y8504326D01*
X1642516Y8502904D01*
X1646224Y8500922D01*
X1649933Y8498433D01*
X1653692Y8495385D01*
X1657604Y8491778D01*
X1661668Y8487664D01*
X1661668Y8407400D01*
X1678178Y8407400D01*
X1678178Y8517128D01*
X1664716Y8517128D01*
X1663192Y8501126D01*
X1662684Y8501126D01*
X1658620Y8504936D01*
X1654505Y8508441D01*
X1650238Y8511641D01*
X1645767Y8514435D01*
X1641093Y8516721D01*
X1636217Y8518448D01*
X1631035Y8519566D01*
G37*
G36*
X1514856Y8519922D02*
G01*
X1508252Y8519515D01*
X1502156Y8518347D01*
X1496517Y8516366D01*
X1491488Y8513673D01*
X1486966Y8510270D01*
X1483004Y8506155D01*
X1479600Y8501430D01*
X1476756Y8496046D01*
X1474571Y8490000D01*
X1472946Y8483447D01*
X1471980Y8476284D01*
X1471766Y8470900D01*
X1486154Y8470900D01*
X1486662Y8479129D01*
X1488084Y8486292D01*
X1490472Y8492439D01*
X1493723Y8497468D01*
X1497787Y8501380D01*
X1502664Y8504174D01*
X1508252Y8505901D01*
X1514602Y8506460D01*
X1520596Y8505850D01*
X1526286Y8504072D01*
X1531569Y8501126D01*
X1536344Y8497062D01*
X1540459Y8491982D01*
X1543761Y8485886D01*
X1546199Y8478824D01*
X1547622Y8470900D01*
X1471766Y8470900D01*
X1471676Y8465820D01*
X1471980Y8460790D01*
X1472438Y8458708D01*
X1547368Y8458708D01*
X1546809Y8452764D01*
X1545742Y8447227D01*
X1544116Y8442045D01*
X1542034Y8437321D01*
X1539443Y8433054D01*
X1536395Y8429244D01*
X1532890Y8425942D01*
X1529029Y8423198D01*
X1524711Y8420963D01*
X1520088Y8419388D01*
X1515110Y8418423D01*
X1509776Y8418068D01*
X1502054Y8418677D01*
X1494840Y8420404D01*
X1488135Y8423198D01*
X1481836Y8426958D01*
X1475740Y8416036D01*
X1483309Y8411718D01*
X1487373Y8409838D01*
X1491691Y8408162D01*
X1496263Y8406790D01*
X1501089Y8405723D01*
X1506270Y8405114D01*
X1511808Y8404860D01*
X1517142Y8405114D01*
X1522374Y8405825D01*
X1527352Y8407044D01*
X1532178Y8408771D01*
X1536700Y8410905D01*
X1541018Y8413496D01*
X1545031Y8416544D01*
X1548688Y8420049D01*
X1552041Y8423960D01*
X1555038Y8428228D01*
X1557629Y8432952D01*
X1559814Y8438083D01*
X1561541Y8443569D01*
X1562811Y8449462D01*
X1563624Y8455660D01*
X1563878Y8462264D01*
X1563624Y8468766D01*
X1562811Y8474964D01*
X1561490Y8480806D01*
X1559763Y8486292D01*
X1557578Y8491372D01*
X1554988Y8496147D01*
X1552041Y8500465D01*
X1548790Y8504428D01*
X1545234Y8507933D01*
X1541424Y8511032D01*
X1537360Y8513724D01*
X1533144Y8515908D01*
X1528724Y8517636D01*
X1524203Y8518906D01*
X1519529Y8519668D01*
G37*
G36*
X1829562Y8517128D02*
G01*
X1829562Y8407400D01*
X1846072Y8407400D01*
X1846072Y8517128D01*
G37*
G36*
X2146046Y8251444D02*
G01*
X2138680Y8251240D01*
X2131771Y8250529D01*
X2125370Y8249361D01*
X2119426Y8247735D01*
X2114092Y8245551D01*
X2109317Y8242858D01*
X2105152Y8239658D01*
X2101697Y8235848D01*
X2098954Y8231530D01*
X2096922Y8226552D01*
X2095652Y8221014D01*
X2095246Y8214868D01*
X2095378Y8212836D01*
X2111756Y8212836D01*
X2112314Y8219186D01*
X2114092Y8224469D01*
X2116988Y8228838D01*
X2121001Y8232292D01*
X2126132Y8234832D01*
X2132431Y8236610D01*
X2139848Y8237626D01*
X2148332Y8237981D01*
X2172208Y8237981D01*
X2172208Y8187436D01*
X2149348Y8187436D01*
X2140051Y8187893D01*
X2132228Y8189214D01*
X2125726Y8191398D01*
X2120544Y8194344D01*
X2116632Y8198002D01*
X2113889Y8202320D01*
X2112264Y8207298D01*
X2111756Y8212836D01*
X2095378Y8212836D01*
X2095601Y8209432D01*
X2096719Y8204301D01*
X2098497Y8199475D01*
X2100986Y8195005D01*
X2104085Y8191042D01*
X2107895Y8187639D01*
X2112314Y8184794D01*
X2117344Y8182609D01*
X2117344Y8181848D01*
X2110740Y8180120D01*
X2104796Y8177631D01*
X2099513Y8174329D01*
X2094992Y8170214D01*
X2091334Y8165338D01*
X2088642Y8159699D01*
X2086914Y8153247D01*
X2086415Y8146796D01*
X2102866Y8146796D01*
X2103170Y8151317D01*
X2104136Y8155482D01*
X2105710Y8159140D01*
X2107895Y8162442D01*
X2110638Y8165338D01*
X2113991Y8167776D01*
X2117852Y8169859D01*
X2122322Y8171535D01*
X2127300Y8172856D01*
X2132787Y8173770D01*
X2138781Y8174278D01*
X2145284Y8174481D01*
X2172208Y8174481D01*
X2172208Y8116062D01*
X2145284Y8116062D01*
X2138883Y8116265D01*
X2132990Y8116874D01*
X2127504Y8117840D01*
X2122525Y8119313D01*
X2118106Y8121142D01*
X2114143Y8123428D01*
X2110790Y8126171D01*
X2107996Y8129320D01*
X2105761Y8132978D01*
X2104186Y8137093D01*
X2103170Y8141716D01*
X2102866Y8146796D01*
X2086415Y8146796D01*
X2086610Y8140750D01*
X2087422Y8135874D01*
X2088692Y8131251D01*
X2090470Y8127034D01*
X2092756Y8123123D01*
X2095449Y8119567D01*
X2098548Y8116366D01*
X2102053Y8113471D01*
X2106015Y8110931D01*
X2110282Y8108696D01*
X2114905Y8106816D01*
X2119884Y8105292D01*
X2125167Y8104124D01*
X2130755Y8103260D01*
X2136648Y8102752D01*
X2142744Y8102600D01*
X2188972Y8102600D01*
X2188972Y8251444D01*
G37*
G36*
X1816607Y8251444D02*
G01*
X1816607Y8237220D01*
X1862074Y8237220D01*
X1862074Y8102600D01*
X1879092Y8102600D01*
X1879092Y8237220D01*
X1924557Y8237220D01*
X1924557Y8251444D01*
G37*
G36*
X1691132Y8251444D02*
G01*
X1683715Y8251190D01*
X1676704Y8250478D01*
X1670202Y8249259D01*
X1664207Y8247481D01*
X1658772Y8245144D01*
X1653895Y8242147D01*
X1649730Y8238591D01*
X1646174Y8234324D01*
X1643329Y8229346D01*
X1641297Y8223707D01*
X1640027Y8217255D01*
X1639570Y8210042D01*
X1656588Y8210042D01*
X1657197Y8217052D01*
X1659026Y8222945D01*
X1662023Y8227720D01*
X1666189Y8231530D01*
X1671421Y8234324D01*
X1677822Y8236254D01*
X1685239Y8237372D01*
X1693672Y8237728D01*
X1719580Y8237728D01*
X1719580Y8180578D01*
X1693672Y8180578D01*
X1685239Y8181035D01*
X1677822Y8182406D01*
X1671421Y8184692D01*
X1666189Y8187893D01*
X1662023Y8192008D01*
X1659026Y8197088D01*
X1657197Y8203082D01*
X1656588Y8210042D01*
X1639570Y8210042D01*
X1639874Y8204403D01*
X1640687Y8199170D01*
X1642059Y8194344D01*
X1643888Y8189925D01*
X1646224Y8185912D01*
X1649018Y8182254D01*
X1652270Y8179003D01*
X1655876Y8176158D01*
X1659940Y8173669D01*
X1664309Y8171535D01*
X1669034Y8169757D01*
X1674114Y8168386D01*
X1635760Y8102600D01*
X1654556Y8102600D01*
X1691893Y8166862D01*
X1719580Y8166862D01*
X1719580Y8102600D01*
X1736598Y8102600D01*
X1736598Y8251444D01*
G37*
G36*
X1572260Y8215122D02*
G01*
X1565656Y8214715D01*
X1559560Y8213547D01*
X1553921Y8211566D01*
X1548892Y8208873D01*
X1544370Y8205470D01*
X1540408Y8201355D01*
X1537004Y8196630D01*
X1534160Y8191246D01*
X1531975Y8185200D01*
X1530350Y8178647D01*
X1529384Y8171484D01*
X1529170Y8166100D01*
X1543812Y8166100D01*
X1544320Y8174329D01*
X1545742Y8181492D01*
X1548079Y8187639D01*
X1551279Y8192668D01*
X1555343Y8196580D01*
X1560220Y8199374D01*
X1565859Y8201101D01*
X1572260Y8201659D01*
X1578254Y8201050D01*
X1583893Y8199272D01*
X1589176Y8196325D01*
X1593900Y8192262D01*
X1597964Y8187181D01*
X1601216Y8181086D01*
X1603603Y8174024D01*
X1605026Y8166100D01*
X1529170Y8166100D01*
X1529130Y8161020D01*
X1529486Y8155990D01*
X1529842Y8153908D01*
X1604772Y8153908D01*
X1604264Y8147964D01*
X1603146Y8142427D01*
X1601571Y8137245D01*
X1599488Y8132521D01*
X1596898Y8128253D01*
X1593900Y8124444D01*
X1590395Y8121142D01*
X1586534Y8118398D01*
X1582216Y8116163D01*
X1577543Y8114588D01*
X1572564Y8113623D01*
X1567180Y8113268D01*
X1559509Y8113877D01*
X1552397Y8115604D01*
X1545742Y8118398D01*
X1539494Y8122158D01*
X1533398Y8111236D01*
X1540814Y8106918D01*
X1544828Y8105038D01*
X1549095Y8103362D01*
X1553667Y8101990D01*
X1558493Y8100923D01*
X1563674Y8100314D01*
X1569212Y8100059D01*
X1574546Y8100314D01*
X1579778Y8101025D01*
X1584756Y8102244D01*
X1589582Y8103971D01*
X1594104Y8106105D01*
X1598422Y8108696D01*
X1602435Y8111744D01*
X1606092Y8115249D01*
X1609445Y8119160D01*
X1612442Y8123428D01*
X1615033Y8128152D01*
X1617218Y8133283D01*
X1618945Y8138769D01*
X1620215Y8144662D01*
X1621028Y8150859D01*
X1621282Y8157464D01*
X1621028Y8163966D01*
X1620215Y8170164D01*
X1618945Y8176006D01*
X1617218Y8181492D01*
X1615033Y8186572D01*
X1612493Y8191347D01*
X1609547Y8195665D01*
X1606296Y8199628D01*
X1602740Y8203133D01*
X1598930Y8206231D01*
X1594866Y8208924D01*
X1590649Y8211108D01*
X1586230Y8212836D01*
X1581658Y8214106D01*
X1576984Y8214868D01*
G37*
G36*
X1978914Y8212328D02*
G01*
X2022754Y8087309D01*
X2024888Y8082381D01*
X2027224Y8077758D01*
X2029764Y8073390D01*
X2032558Y8069325D01*
X2035657Y8065719D01*
X2039010Y8062518D01*
X2042718Y8059775D01*
X2046732Y8057591D01*
X2051100Y8055965D01*
X2055825Y8054949D01*
X2060956Y8054594D01*
X2064461Y8054746D01*
X2067763Y8055152D01*
X2070760Y8055864D01*
X2073402Y8056880D01*
X2070100Y8070342D01*
X2066086Y8069173D01*
X2063800Y8068716D01*
X2061464Y8068564D01*
X2056892Y8069072D01*
X2052777Y8070443D01*
X2049018Y8072678D01*
X2045665Y8075675D01*
X2042718Y8079333D01*
X2040077Y8083550D01*
X2037791Y8088325D01*
X2035810Y8093456D01*
X2033524Y8102092D01*
X2077720Y8212328D01*
X2060448Y8212328D01*
X2034387Y8142071D01*
X2026157Y8118602D01*
X2025142Y8118602D01*
X2015743Y8149590D01*
X1995170Y8212328D01*
G37*
G36*
X1429004Y8212328D02*
G01*
X1462532Y8158225D01*
X1426210Y8102600D01*
X1444244Y8102600D01*
X1461262Y8129270D01*
X1473200Y8149081D01*
X1474216Y8149081D01*
X1501394Y8102600D01*
X1518920Y8102600D01*
X1482598Y8160003D01*
X1516126Y8212328D01*
X1498092Y8212328D01*
X1471676Y8169148D01*
X1470660Y8169148D01*
X1463141Y8182864D01*
X1446276Y8212328D01*
G37*
G36*
X1766316Y8165846D02*
G01*
X1766316Y8152892D01*
X1817624Y8152892D01*
X1817624Y8165846D01*
G37*
D32*
X2184400Y8942646D02*
G01*
X2184400Y8877993D01*
X2110508Y8942646D02*
G01*
X2110508Y8877993D01*
X2049548Y8942646D02*
G01*
X2049548Y8748684D01*
X2049548Y8942646D02*
G01*
X1966422Y8942646D01*
X1938713Y8933411D01*
X1929475Y8924175D01*
X1920239Y8905702D01*
X1920239Y8877993D01*
X1929475Y8859520D01*
X1938713Y8850284D01*
X1966422Y8841046D01*
X2049548Y8841046D01*
X1748444Y8877993D02*
G01*
X1748444Y8748684D01*
X1748444Y8850284D02*
G01*
X1766915Y8868755D01*
X1785388Y8877993D01*
X1813097Y8877993D01*
X1831571Y8868755D01*
X1850044Y8850284D01*
X1859279Y8822575D01*
X1859279Y8804102D01*
X1850044Y8776393D01*
X1831571Y8757920D01*
X1813097Y8748684D01*
X1785388Y8748684D01*
X1766915Y8757920D01*
X1748444Y8776393D01*
X1576646Y8942646D02*
G01*
X1576646Y8748684D01*
X1576646Y8850284D02*
G01*
X1595120Y8868755D01*
X1613593Y8877993D01*
X1641302Y8877993D01*
X1659775Y8868755D01*
X1678246Y8850284D01*
X1687484Y8822575D01*
X1687484Y8804102D01*
X1678246Y8776393D01*
X1659775Y8757920D01*
X1641302Y8748684D01*
X1613593Y8748684D01*
X1595120Y8757920D01*
X1576646Y8776393D01*
X1515686Y8831811D02*
G01*
X1349433Y8831811D01*
X1288473Y8942646D02*
G01*
X1288473Y8748684D01*
X1288473Y8942646D02*
G01*
X1205344Y8942646D01*
X1177635Y8933411D01*
X1168400Y8924175D01*
X1159164Y8905702D01*
X1159164Y8877993D01*
X1168400Y8859520D01*
X1177635Y8850284D01*
X1205344Y8841046D01*
X1288473Y8841046D01*
X987366Y8877993D02*
G01*
X987366Y8748684D01*
X987366Y8850284D02*
G01*
X1005839Y8868755D01*
X1024313Y8877993D01*
X1052022Y8877993D01*
X1070495Y8868755D01*
X1088966Y8850284D01*
X1098204Y8822575D01*
X1098204Y8804102D01*
X1088966Y8776393D01*
X1070495Y8757920D01*
X1052022Y8748684D01*
X1024313Y8748684D01*
X1005839Y8757920D01*
X987366Y8776393D01*
X926406Y8942646D02*
G01*
X926406Y8748684D01*
X865446Y8942646D02*
G01*
X865446Y8877993D01*
X791555Y8942646D02*
G01*
X791555Y8877993D01*
M02*
