G04 Layer: TopSolderMaskLayer*
G04 EasyEDA v6.5.5, 2022-07-09 13:00:11*
G04 71ddd04add3b4de38a8b36f784c4d6f3,20d39a695127413eb41274384cfbb926,10*
G04 Gerber Generator version 0.2*
G04 Scale: 100 percent, Rotated: No, Reflected: No *
G04 Dimensions in millimeters *
G04 leading zeros omitted , absolute positions ,4 integer and 5 decimal *
%FSLAX45Y45*%
%MOMM*%

%ADD37C,0.6700*%
%ADD38C,1.2016*%
%ADD44C,1.6764*%

%LPD*%
D37*
X1689100Y8409180D02*
G01*
X1689100Y8270999D01*
X1816100Y8409180D02*
G01*
X1816100Y8270999D01*
X1943100Y8409180D02*
G01*
X1943100Y8270999D01*
X2070100Y8409180D02*
G01*
X2070100Y8270999D01*
X1689100Y8950200D02*
G01*
X1689100Y8812019D01*
X1816100Y8950200D02*
G01*
X1816100Y8812019D01*
X1943100Y8950200D02*
G01*
X1943100Y8812019D01*
X2070100Y8950200D02*
G01*
X2070100Y8812019D01*
D38*
X1276291Y7784896D02*
G01*
X1186291Y7784896D01*
X1276291Y8648903D02*
G01*
X1186291Y8648903D01*
X896282Y8648903D02*
G01*
X806282Y8648903D01*
X896282Y7784896D02*
G01*
X806282Y7784896D01*
G36*
X1418399Y8266937D02*
G01*
X1416875Y8267174D01*
X1415351Y8267936D01*
X1414335Y8268952D01*
X1413573Y8270476D01*
X1413319Y8272000D01*
X1413255Y8272018D01*
X1413255Y8412987D01*
X1413319Y8413000D01*
X1413573Y8414524D01*
X1414335Y8416048D01*
X1415351Y8417064D01*
X1416875Y8417826D01*
X1418399Y8418068D01*
X1553400Y8418068D01*
X1554924Y8417826D01*
X1556448Y8417064D01*
X1557464Y8416048D01*
X1558226Y8414524D01*
X1558480Y8413000D01*
X1558544Y8412987D01*
X1558544Y8272018D01*
X1558480Y8272000D01*
X1558226Y8270476D01*
X1557464Y8268952D01*
X1556448Y8267936D01*
X1554924Y8267174D01*
X1553400Y8266937D01*
G37*
G36*
X1418399Y8472931D02*
G01*
X1416875Y8473173D01*
X1415351Y8473935D01*
X1414335Y8474951D01*
X1413573Y8476475D01*
X1413319Y8477999D01*
X1413255Y8478012D01*
X1413255Y8618981D01*
X1413319Y8618999D01*
X1413573Y8620523D01*
X1414335Y8622047D01*
X1415351Y8623063D01*
X1416875Y8623825D01*
X1418399Y8624062D01*
X1553400Y8624062D01*
X1554924Y8623825D01*
X1556448Y8623063D01*
X1557464Y8622047D01*
X1558226Y8620523D01*
X1558480Y8618999D01*
X1558544Y8618981D01*
X1558544Y8478012D01*
X1558480Y8477999D01*
X1558226Y8476475D01*
X1557464Y8474951D01*
X1556448Y8473935D01*
X1554924Y8473173D01*
X1553400Y8472931D01*
G37*
G36*
X1281099Y8752809D02*
G01*
X1279575Y8753063D01*
X1278051Y8753825D01*
X1277035Y8754841D01*
X1276273Y8756365D01*
X1276019Y8757889D01*
X1276095Y8757920D01*
X1276095Y8836913D01*
X1276019Y8836898D01*
X1276273Y8838422D01*
X1277035Y8839946D01*
X1278051Y8840962D01*
X1279575Y8841724D01*
X1281099Y8841978D01*
X1281176Y8841994D01*
X1335023Y8841994D01*
X1335100Y8841978D01*
X1336624Y8841724D01*
X1338148Y8840962D01*
X1339164Y8839946D01*
X1339926Y8838422D01*
X1340180Y8836898D01*
X1340104Y8836913D01*
X1340104Y8757920D01*
X1340180Y8757889D01*
X1339926Y8756365D01*
X1339164Y8754841D01*
X1338148Y8753825D01*
X1336624Y8753063D01*
X1335100Y8752809D01*
X1335023Y8752839D01*
X1281176Y8752839D01*
G37*
G36*
X1281176Y8861805D02*
G01*
X1281099Y8861821D01*
X1279575Y8862075D01*
X1278051Y8862837D01*
X1277035Y8863853D01*
X1276273Y8865377D01*
X1276019Y8866901D01*
X1276095Y8866886D01*
X1276095Y8945879D01*
X1276019Y8945910D01*
X1276273Y8947434D01*
X1277035Y8948958D01*
X1278051Y8949974D01*
X1279575Y8950736D01*
X1281099Y8950990D01*
X1281176Y8950960D01*
X1335023Y8950960D01*
X1335100Y8950990D01*
X1336624Y8950736D01*
X1338148Y8949974D01*
X1339164Y8948958D01*
X1339926Y8947434D01*
X1340180Y8945910D01*
X1340104Y8945879D01*
X1340104Y8866886D01*
X1340180Y8866901D01*
X1339926Y8865377D01*
X1339164Y8863853D01*
X1338148Y8862837D01*
X1336624Y8862075D01*
X1335100Y8861821D01*
X1335023Y8861805D01*
G37*
G36*
X1237487Y7171944D02*
G01*
X1237599Y7172020D01*
X1236075Y7172274D01*
X1234551Y7173036D01*
X1233535Y7174052D01*
X1232773Y7175576D01*
X1232519Y7177100D01*
X1232407Y7177023D01*
X1232407Y7377176D01*
X1232519Y7377099D01*
X1232773Y7378623D01*
X1233535Y7380147D01*
X1234551Y7381163D01*
X1236075Y7381925D01*
X1237599Y7382179D01*
X1237487Y7382255D01*
X1437639Y7382255D01*
X1437599Y7382179D01*
X1439123Y7381925D01*
X1440647Y7381163D01*
X1441663Y7380147D01*
X1442425Y7378623D01*
X1442679Y7377099D01*
X1442720Y7377176D01*
X1442720Y7177023D01*
X1442679Y7177100D01*
X1442425Y7175576D01*
X1441663Y7174052D01*
X1440647Y7173036D01*
X1439123Y7172274D01*
X1437599Y7172020D01*
X1437639Y7171944D01*
G37*
G36*
X797560Y7171944D02*
G01*
X797600Y7172020D01*
X796076Y7172274D01*
X794552Y7173036D01*
X793536Y7174052D01*
X792774Y7175576D01*
X792520Y7177100D01*
X792479Y7177023D01*
X792479Y7377176D01*
X792520Y7377099D01*
X792774Y7378623D01*
X793536Y7380147D01*
X794552Y7381163D01*
X796076Y7381925D01*
X797600Y7382179D01*
X797560Y7382255D01*
X997712Y7382255D01*
X997600Y7382179D01*
X999124Y7381925D01*
X1000648Y7381163D01*
X1001664Y7380147D01*
X1002426Y7378623D01*
X1002680Y7377099D01*
X1002792Y7377176D01*
X1002792Y7177023D01*
X1002680Y7177100D01*
X1002426Y7175576D01*
X1001664Y7174052D01*
X1000648Y7173036D01*
X999124Y7172274D01*
X997600Y7172020D01*
X997712Y7171944D01*
G37*
G36*
X1802500Y7436515D02*
G01*
X1800976Y7436769D01*
X1799452Y7437531D01*
X1798436Y7438547D01*
X1797674Y7440071D01*
X1797420Y7441595D01*
X1797557Y7441692D01*
X1797557Y7621523D01*
X1797420Y7621595D01*
X1797674Y7623119D01*
X1798436Y7624643D01*
X1799452Y7625659D01*
X1800976Y7626421D01*
X1802500Y7626675D01*
X1802384Y7626604D01*
X1882394Y7626604D01*
X1882500Y7626675D01*
X1884024Y7626421D01*
X1885548Y7625659D01*
X1886564Y7624643D01*
X1887326Y7623119D01*
X1887580Y7621595D01*
X1887473Y7621523D01*
X1887473Y7441692D01*
X1887580Y7441595D01*
X1887326Y7440071D01*
X1886564Y7438547D01*
X1885548Y7437531D01*
X1884024Y7436769D01*
X1882500Y7436515D01*
X1882394Y7436612D01*
X1802384Y7436612D01*
G37*
G36*
X1927499Y7436515D02*
G01*
X1925975Y7436769D01*
X1924451Y7437531D01*
X1923435Y7438547D01*
X1922673Y7440071D01*
X1922419Y7441595D01*
X1922526Y7441692D01*
X1922526Y7621523D01*
X1922419Y7621595D01*
X1922673Y7623119D01*
X1923435Y7624643D01*
X1924451Y7625659D01*
X1925975Y7626421D01*
X1927499Y7626675D01*
X1927605Y7626604D01*
X2007615Y7626604D01*
X2007499Y7626675D01*
X2009023Y7626421D01*
X2010547Y7625659D01*
X2011563Y7624643D01*
X2012325Y7623119D01*
X2012579Y7621595D01*
X2012441Y7621523D01*
X2012441Y7441692D01*
X2012579Y7441595D01*
X2012325Y7440071D01*
X2011563Y7438547D01*
X2010547Y7437531D01*
X2009023Y7436769D01*
X2007499Y7436515D01*
X2007615Y7436612D01*
X1927605Y7436612D01*
G37*
G36*
X1495044Y7126478D02*
G01*
X1494998Y7126516D01*
X1493474Y7126770D01*
X1491950Y7127532D01*
X1490934Y7128548D01*
X1490172Y7130072D01*
X1489918Y7131596D01*
X1489963Y7131558D01*
X1489963Y7421626D01*
X1489918Y7421598D01*
X1490172Y7423122D01*
X1490934Y7424646D01*
X1491950Y7425662D01*
X1493474Y7426424D01*
X1494998Y7426678D01*
X1495044Y7426705D01*
X1674876Y7426705D01*
X1674997Y7426678D01*
X1676521Y7426424D01*
X1678045Y7425662D01*
X1679061Y7424646D01*
X1679823Y7423122D01*
X1680077Y7421598D01*
X1679955Y7421626D01*
X1679955Y7131558D01*
X1680077Y7131596D01*
X1679823Y7130072D01*
X1679061Y7128548D01*
X1678045Y7127532D01*
X1676521Y7126770D01*
X1674997Y7126516D01*
X1674876Y7126478D01*
G37*
G36*
X2134870Y7126478D02*
G01*
X2134991Y7126516D01*
X2133467Y7126770D01*
X2131943Y7127532D01*
X2130927Y7128548D01*
X2130165Y7130072D01*
X2129911Y7131596D01*
X2130043Y7131558D01*
X2130043Y7421626D01*
X2129911Y7421598D01*
X2130165Y7423122D01*
X2130927Y7424646D01*
X2131943Y7425662D01*
X2133467Y7426424D01*
X2134991Y7426678D01*
X2134870Y7426705D01*
X2314956Y7426705D01*
X2314991Y7426678D01*
X2316515Y7426424D01*
X2318039Y7425662D01*
X2319055Y7424646D01*
X2319817Y7423122D01*
X2320071Y7421598D01*
X2320036Y7421626D01*
X2320036Y7131558D01*
X2320071Y7131596D01*
X2319817Y7130072D01*
X2319055Y7128548D01*
X2318039Y7127532D01*
X2316515Y7126770D01*
X2314991Y7126516D01*
X2314956Y7126478D01*
G37*
D44*
G01*
X2324100Y8864600D03*
G01*
X2324100Y8610600D03*
G01*
X2324100Y8356600D03*
G01*
X2324100Y8102600D03*
G01*
X2324100Y7848600D03*
G36*
X2245359Y7510779D02*
G01*
X2243835Y7511034D01*
X2242311Y7511795D01*
X2241295Y7512812D01*
X2240533Y7514336D01*
X2240279Y7515860D01*
X2240279Y7515860D01*
X2240279Y7673339D01*
X2240279Y7673339D01*
X2240533Y7674863D01*
X2241295Y7676387D01*
X2242311Y7677404D01*
X2243835Y7678165D01*
X2245359Y7678420D01*
X2402840Y7678420D01*
X2404364Y7678165D01*
X2405888Y7677404D01*
X2406904Y7676387D01*
X2407666Y7674863D01*
X2407920Y7673339D01*
X2407920Y7673339D01*
X2407920Y7515860D01*
X2407920Y7515860D01*
X2407666Y7514336D01*
X2406904Y7512812D01*
X2405888Y7511795D01*
X2404364Y7511034D01*
X2402840Y7510779D01*
G37*
G36*
X1381300Y7553622D02*
G01*
X1379776Y7553876D01*
X1378252Y7554638D01*
X1377236Y7555654D01*
X1376474Y7557178D01*
X1376220Y7558702D01*
X1376171Y7558786D01*
X1376171Y7763763D01*
X1376220Y7763700D01*
X1376474Y7765224D01*
X1377236Y7766748D01*
X1378252Y7767764D01*
X1379776Y7768526D01*
X1381300Y7768780D01*
X1381252Y7768844D01*
X1641347Y7768844D01*
X1641299Y7768780D01*
X1642823Y7768526D01*
X1644347Y7767764D01*
X1645363Y7766748D01*
X1646125Y7765224D01*
X1646379Y7763700D01*
X1646428Y7763763D01*
X1646428Y7558786D01*
X1646379Y7558702D01*
X1646125Y7557178D01*
X1645363Y7555654D01*
X1644347Y7554638D01*
X1642823Y7553876D01*
X1641299Y7553622D01*
X1641347Y7553705D01*
X1381252Y7553705D01*
G37*
G36*
X1393697Y7509002D02*
G01*
X1393789Y7509118D01*
X1392265Y7509372D01*
X1390741Y7510134D01*
X1389725Y7511150D01*
X1388963Y7512674D01*
X1388709Y7514198D01*
X1388618Y7514081D01*
X1388618Y7574279D01*
X1388709Y7574201D01*
X1388963Y7575725D01*
X1389725Y7577249D01*
X1390741Y7578265D01*
X1392265Y7579027D01*
X1393789Y7579281D01*
X1393697Y7579360D01*
X1433829Y7579360D01*
X1433789Y7579281D01*
X1435313Y7579027D01*
X1436837Y7578265D01*
X1437853Y7577249D01*
X1438615Y7575725D01*
X1438869Y7574201D01*
X1438910Y7574279D01*
X1438910Y7514081D01*
X1438869Y7514198D01*
X1438615Y7512674D01*
X1437853Y7511150D01*
X1436837Y7510134D01*
X1435313Y7509372D01*
X1433789Y7509118D01*
X1433829Y7509002D01*
G37*
G36*
X1458721Y7509002D02*
G01*
X1458788Y7509118D01*
X1457264Y7509372D01*
X1455740Y7510134D01*
X1454724Y7511150D01*
X1453962Y7512674D01*
X1453708Y7514198D01*
X1453642Y7514081D01*
X1453642Y7574279D01*
X1453708Y7574201D01*
X1453962Y7575725D01*
X1454724Y7577249D01*
X1455740Y7578265D01*
X1457264Y7579027D01*
X1458788Y7579281D01*
X1458721Y7579360D01*
X1498854Y7579360D01*
X1498787Y7579281D01*
X1500311Y7579027D01*
X1501835Y7578265D01*
X1502851Y7577249D01*
X1503613Y7575725D01*
X1503867Y7574201D01*
X1503934Y7574279D01*
X1503934Y7514081D01*
X1503867Y7514198D01*
X1503613Y7512674D01*
X1502851Y7511150D01*
X1501835Y7510134D01*
X1500311Y7509372D01*
X1498787Y7509118D01*
X1498854Y7509002D01*
G37*
G36*
X1523745Y7509002D02*
G01*
X1523786Y7509118D01*
X1522262Y7509372D01*
X1520738Y7510134D01*
X1519722Y7511150D01*
X1518960Y7512674D01*
X1518706Y7514198D01*
X1518665Y7514081D01*
X1518665Y7574279D01*
X1518706Y7574201D01*
X1518960Y7575725D01*
X1519722Y7577249D01*
X1520738Y7578265D01*
X1522262Y7579027D01*
X1523786Y7579281D01*
X1523745Y7579360D01*
X1563878Y7579360D01*
X1563786Y7579281D01*
X1565310Y7579027D01*
X1566834Y7578265D01*
X1567850Y7577249D01*
X1568612Y7575725D01*
X1568866Y7574201D01*
X1568957Y7574279D01*
X1568957Y7514081D01*
X1568866Y7514198D01*
X1568612Y7512674D01*
X1567850Y7511150D01*
X1566834Y7510134D01*
X1565310Y7509372D01*
X1563786Y7509118D01*
X1563878Y7509002D01*
G37*
G36*
X1588770Y7509002D02*
G01*
X1588810Y7509118D01*
X1587286Y7509372D01*
X1585762Y7510134D01*
X1584746Y7511150D01*
X1583984Y7512674D01*
X1583730Y7514198D01*
X1583689Y7514081D01*
X1583689Y7574279D01*
X1583730Y7574201D01*
X1583984Y7575725D01*
X1584746Y7577249D01*
X1585762Y7578265D01*
X1587286Y7579027D01*
X1588810Y7579281D01*
X1588770Y7579360D01*
X1628902Y7579360D01*
X1628810Y7579281D01*
X1630334Y7579027D01*
X1631858Y7578265D01*
X1632874Y7577249D01*
X1633636Y7575725D01*
X1633890Y7574201D01*
X1633981Y7574279D01*
X1633981Y7514081D01*
X1633890Y7514198D01*
X1633636Y7512674D01*
X1632874Y7511150D01*
X1631858Y7510134D01*
X1630334Y7509372D01*
X1628810Y7509118D01*
X1628902Y7509002D01*
G37*
G36*
X1393697Y7813039D02*
G01*
X1393789Y7813121D01*
X1392265Y7813375D01*
X1390741Y7814137D01*
X1389725Y7815153D01*
X1388963Y7816677D01*
X1388709Y7818201D01*
X1388618Y7818120D01*
X1388618Y7878318D01*
X1388709Y7878201D01*
X1388963Y7879725D01*
X1389725Y7881249D01*
X1390741Y7882265D01*
X1392265Y7883027D01*
X1393789Y7883281D01*
X1393697Y7883397D01*
X1433829Y7883397D01*
X1433789Y7883281D01*
X1435313Y7883027D01*
X1436837Y7882265D01*
X1437853Y7881249D01*
X1438615Y7879725D01*
X1438869Y7878201D01*
X1438910Y7878318D01*
X1438910Y7818120D01*
X1438869Y7818201D01*
X1438615Y7816677D01*
X1437853Y7815153D01*
X1436837Y7814137D01*
X1435313Y7813375D01*
X1433789Y7813121D01*
X1433829Y7813039D01*
G37*
G36*
X1458721Y7813039D02*
G01*
X1458788Y7813108D01*
X1457264Y7813362D01*
X1455740Y7814124D01*
X1454724Y7815140D01*
X1453962Y7816664D01*
X1453708Y7818188D01*
X1453642Y7818120D01*
X1453642Y7878063D01*
X1453708Y7878188D01*
X1453962Y7879712D01*
X1454724Y7881236D01*
X1455740Y7882252D01*
X1457264Y7883014D01*
X1458788Y7883268D01*
X1458721Y7883144D01*
X1498854Y7883144D01*
X1498787Y7883268D01*
X1500311Y7883014D01*
X1501835Y7882252D01*
X1502851Y7881236D01*
X1503613Y7879712D01*
X1503867Y7878188D01*
X1503934Y7878063D01*
X1503934Y7818120D01*
X1503867Y7818188D01*
X1503613Y7816664D01*
X1502851Y7815140D01*
X1501835Y7814124D01*
X1500311Y7813362D01*
X1498787Y7813108D01*
X1498854Y7813039D01*
G37*
G36*
X1523745Y7813039D02*
G01*
X1523786Y7813108D01*
X1522262Y7813362D01*
X1520738Y7814124D01*
X1519722Y7815140D01*
X1518960Y7816664D01*
X1518706Y7818188D01*
X1518665Y7818120D01*
X1518665Y7878063D01*
X1518706Y7878188D01*
X1518960Y7879712D01*
X1519722Y7881236D01*
X1520738Y7882252D01*
X1522262Y7883014D01*
X1523786Y7883268D01*
X1523745Y7883144D01*
X1563878Y7883144D01*
X1563786Y7883268D01*
X1565310Y7883014D01*
X1566834Y7882252D01*
X1567850Y7881236D01*
X1568612Y7879712D01*
X1568866Y7878188D01*
X1568957Y7878063D01*
X1568957Y7818120D01*
X1568866Y7818188D01*
X1568612Y7816664D01*
X1567850Y7815140D01*
X1566834Y7814124D01*
X1565310Y7813362D01*
X1563786Y7813108D01*
X1563878Y7813039D01*
G37*
G36*
X1588770Y7813039D02*
G01*
X1588810Y7813108D01*
X1587286Y7813362D01*
X1585762Y7814124D01*
X1584746Y7815140D01*
X1583984Y7816664D01*
X1583730Y7818188D01*
X1583689Y7818120D01*
X1583689Y7878063D01*
X1583730Y7878188D01*
X1583984Y7879712D01*
X1584746Y7881236D01*
X1585762Y7882252D01*
X1587286Y7883014D01*
X1588810Y7883268D01*
X1588770Y7883144D01*
X1628902Y7883144D01*
X1628810Y7883268D01*
X1630334Y7883014D01*
X1631858Y7882252D01*
X1632874Y7881236D01*
X1633636Y7879712D01*
X1633890Y7878188D01*
X1633981Y7878063D01*
X1633981Y7818120D01*
X1633890Y7818188D01*
X1633636Y7816664D01*
X1632874Y7815140D01*
X1631858Y7814124D01*
X1630334Y7813362D01*
X1628810Y7813108D01*
X1628902Y7813039D01*
G37*
G36*
X1171194Y8226805D02*
G01*
X1171125Y8226818D01*
X1169601Y8227072D01*
X1168077Y8227834D01*
X1167061Y8228850D01*
X1166299Y8230374D01*
X1166045Y8231898D01*
X1166113Y8231886D01*
X1166113Y8301989D01*
X1166045Y8301898D01*
X1166299Y8303422D01*
X1167061Y8304946D01*
X1168077Y8305962D01*
X1169601Y8306724D01*
X1171125Y8306978D01*
X1171194Y8307070D01*
X1291081Y8307070D01*
X1291125Y8306978D01*
X1292649Y8306724D01*
X1294173Y8305962D01*
X1295189Y8304946D01*
X1295951Y8303422D01*
X1296205Y8301898D01*
X1296162Y8301989D01*
X1296162Y8231886D01*
X1296205Y8231898D01*
X1295951Y8230374D01*
X1295189Y8228850D01*
X1294173Y8227834D01*
X1292649Y8227072D01*
X1291125Y8226818D01*
X1291081Y8226805D01*
G37*
G36*
X1171194Y8126729D02*
G01*
X1171125Y8126818D01*
X1169601Y8127072D01*
X1168077Y8127834D01*
X1167061Y8128850D01*
X1166299Y8130374D01*
X1166045Y8131898D01*
X1166113Y8131810D01*
X1166113Y8201913D01*
X1166045Y8201898D01*
X1166299Y8203422D01*
X1167061Y8204946D01*
X1168077Y8205962D01*
X1169601Y8206724D01*
X1171125Y8206978D01*
X1171194Y8206994D01*
X1291081Y8206994D01*
X1291125Y8206978D01*
X1292649Y8206724D01*
X1294173Y8205962D01*
X1295189Y8204946D01*
X1295951Y8203422D01*
X1296205Y8201898D01*
X1296162Y8201913D01*
X1296162Y8131810D01*
X1296205Y8131898D01*
X1295951Y8130374D01*
X1295189Y8128850D01*
X1294173Y8127834D01*
X1292649Y8127072D01*
X1291125Y8126818D01*
X1291081Y8126729D01*
G37*
G36*
X1171277Y8323834D02*
G01*
X1169753Y8324072D01*
X1168229Y8324834D01*
X1167213Y8325850D01*
X1166451Y8327374D01*
X1166197Y8328898D01*
X1166113Y8328913D01*
X1166113Y8408924D01*
X1166197Y8408898D01*
X1166451Y8410422D01*
X1167213Y8411946D01*
X1168229Y8412962D01*
X1169753Y8413724D01*
X1171277Y8413978D01*
X1171194Y8414004D01*
X1291336Y8414004D01*
X1291277Y8413978D01*
X1292801Y8413724D01*
X1294325Y8412962D01*
X1295341Y8411946D01*
X1296103Y8410422D01*
X1296357Y8408898D01*
X1296415Y8408924D01*
X1296415Y8328913D01*
X1296357Y8328898D01*
X1296103Y8327374D01*
X1295341Y8325850D01*
X1294325Y8324834D01*
X1292801Y8324072D01*
X1291277Y8323834D01*
G37*
G36*
X1171447Y8019795D02*
G01*
X1171531Y8019821D01*
X1170007Y8020075D01*
X1168483Y8020837D01*
X1167467Y8021853D01*
X1166705Y8023377D01*
X1166451Y8024901D01*
X1166368Y8024876D01*
X1166368Y8104886D01*
X1166451Y8104901D01*
X1166705Y8106425D01*
X1167467Y8107949D01*
X1168483Y8108965D01*
X1170007Y8109727D01*
X1171531Y8109965D01*
X1291531Y8109965D01*
X1293055Y8109727D01*
X1294579Y8108965D01*
X1295595Y8107949D01*
X1296357Y8106425D01*
X1296611Y8104901D01*
X1296670Y8104886D01*
X1296670Y8024876D01*
X1296611Y8024901D01*
X1296357Y8023377D01*
X1295595Y8021853D01*
X1294579Y8020837D01*
X1293055Y8020075D01*
X1291531Y8019821D01*
X1291589Y8019795D01*
G37*
G36*
X1171354Y8436818D02*
G01*
X1169830Y8437072D01*
X1168306Y8437834D01*
X1167290Y8438850D01*
X1166528Y8440374D01*
X1166274Y8441898D01*
X1166368Y8441944D01*
X1166368Y8531860D01*
X1166274Y8531898D01*
X1166528Y8533422D01*
X1167290Y8534946D01*
X1168306Y8535962D01*
X1169830Y8536724D01*
X1171354Y8536978D01*
X1171447Y8536939D01*
X1291336Y8536939D01*
X1291353Y8536978D01*
X1292877Y8536724D01*
X1294401Y8535962D01*
X1295417Y8534946D01*
X1296179Y8533422D01*
X1296433Y8531898D01*
X1296415Y8531860D01*
X1296415Y8441944D01*
X1296433Y8441898D01*
X1296179Y8440374D01*
X1295417Y8438850D01*
X1294401Y8437834D01*
X1292877Y8437072D01*
X1291353Y8436818D01*
X1291336Y8436863D01*
X1171447Y8436863D01*
G37*
G36*
X1171354Y7896821D02*
G01*
X1169830Y7897075D01*
X1168306Y7897837D01*
X1167290Y7898853D01*
X1166528Y7900377D01*
X1166274Y7901901D01*
X1166368Y7901939D01*
X1166368Y7991855D01*
X1166274Y7991901D01*
X1166528Y7993425D01*
X1167290Y7994949D01*
X1168306Y7995965D01*
X1169830Y7996727D01*
X1171354Y7996981D01*
X1171447Y7996936D01*
X1291336Y7996936D01*
X1291353Y7996981D01*
X1292877Y7996727D01*
X1294401Y7995965D01*
X1295417Y7994949D01*
X1296179Y7993425D01*
X1296433Y7991901D01*
X1296415Y7991855D01*
X1296415Y7901939D01*
X1296433Y7901901D01*
X1296179Y7900377D01*
X1295417Y7898853D01*
X1294401Y7897837D01*
X1292877Y7897075D01*
X1291353Y7896821D01*
X1291336Y7896860D01*
X1171447Y7896860D01*
G37*
G36*
X1970999Y7686220D02*
G01*
X1969475Y7686474D01*
X1967951Y7687236D01*
X1966935Y7688252D01*
X1966173Y7689776D01*
X1965919Y7691300D01*
X1965959Y7691373D01*
X1965959Y7839710D01*
X1965919Y7839798D01*
X1966173Y7841322D01*
X1966935Y7842846D01*
X1967951Y7843862D01*
X1969475Y7844624D01*
X1970999Y7844878D01*
X1971040Y7844789D01*
X2143759Y7844789D01*
X2143800Y7844878D01*
X2145324Y7844624D01*
X2146848Y7843862D01*
X2147864Y7842846D01*
X2148626Y7841322D01*
X2148880Y7839798D01*
X2148840Y7839710D01*
X2148840Y7691373D01*
X2148880Y7691300D01*
X2148626Y7689776D01*
X2147864Y7688252D01*
X2146848Y7687236D01*
X2145324Y7686474D01*
X2143800Y7686220D01*
X2143759Y7686294D01*
X1971040Y7686294D01*
G37*
G36*
X1970999Y8004721D02*
G01*
X1969475Y8004975D01*
X1967951Y8005737D01*
X1966935Y8006753D01*
X1966173Y8008277D01*
X1965919Y8009801D01*
X1965959Y8009889D01*
X1965959Y8158226D01*
X1965919Y8158299D01*
X1966173Y8159823D01*
X1966935Y8161347D01*
X1967951Y8162363D01*
X1969475Y8163125D01*
X1970999Y8163379D01*
X1971040Y8163305D01*
X2143759Y8163305D01*
X2143800Y8163379D01*
X2145324Y8163125D01*
X2146848Y8162363D01*
X2147864Y8161347D01*
X2148626Y8159823D01*
X2148880Y8158299D01*
X2148840Y8158226D01*
X2148840Y8009889D01*
X2148880Y8009801D01*
X2148626Y8008277D01*
X2147864Y8006753D01*
X2146848Y8005737D01*
X2145324Y8004975D01*
X2143800Y8004721D01*
X2143759Y8004810D01*
X1971040Y8004810D01*
G37*
G36*
X1729699Y7686220D02*
G01*
X1728175Y7686474D01*
X1726651Y7687236D01*
X1725635Y7688252D01*
X1724873Y7689776D01*
X1724619Y7691300D01*
X1724660Y7691373D01*
X1724660Y7839710D01*
X1724619Y7839798D01*
X1724873Y7841322D01*
X1725635Y7842846D01*
X1726651Y7843862D01*
X1728175Y7844624D01*
X1729699Y7844878D01*
X1729739Y7844789D01*
X1902460Y7844789D01*
X1902500Y7844878D01*
X1904024Y7844624D01*
X1905548Y7843862D01*
X1906564Y7842846D01*
X1907326Y7841322D01*
X1907580Y7839798D01*
X1907539Y7839710D01*
X1907539Y7691373D01*
X1907580Y7691300D01*
X1907326Y7689776D01*
X1906564Y7688252D01*
X1905548Y7687236D01*
X1904024Y7686474D01*
X1902500Y7686220D01*
X1902460Y7686294D01*
X1729739Y7686294D01*
G37*
G36*
X1729699Y8004721D02*
G01*
X1728175Y8004975D01*
X1726651Y8005737D01*
X1725635Y8006753D01*
X1724873Y8008277D01*
X1724619Y8009801D01*
X1724660Y8009889D01*
X1724660Y8158226D01*
X1724619Y8158299D01*
X1724873Y8159823D01*
X1725635Y8161347D01*
X1726651Y8162363D01*
X1728175Y8163125D01*
X1729699Y8163379D01*
X1729739Y8163305D01*
X1902460Y8163305D01*
X1902500Y8163379D01*
X1904024Y8163125D01*
X1905548Y8162363D01*
X1906564Y8161347D01*
X1907326Y8159823D01*
X1907580Y8158299D01*
X1907539Y8158226D01*
X1907539Y8009889D01*
X1907580Y8009801D01*
X1907326Y8008277D01*
X1906564Y8006753D01*
X1905548Y8005737D01*
X1904024Y8004975D01*
X1902500Y8004721D01*
X1902460Y8004810D01*
X1729739Y8004810D01*
G37*
G36*
X1471599Y8752809D02*
G01*
X1470075Y8753063D01*
X1468551Y8753825D01*
X1467535Y8754841D01*
X1466773Y8756365D01*
X1466519Y8757889D01*
X1466595Y8757920D01*
X1466595Y8836913D01*
X1466519Y8836898D01*
X1466773Y8838422D01*
X1467535Y8839946D01*
X1468551Y8840962D01*
X1470075Y8841724D01*
X1471599Y8841978D01*
X1471676Y8841994D01*
X1525523Y8841994D01*
X1525600Y8841978D01*
X1527124Y8841724D01*
X1528648Y8840962D01*
X1529664Y8839946D01*
X1530426Y8838422D01*
X1530680Y8836898D01*
X1530604Y8836913D01*
X1530604Y8757920D01*
X1530680Y8757889D01*
X1530426Y8756365D01*
X1529664Y8754841D01*
X1528648Y8753825D01*
X1527124Y8753063D01*
X1525600Y8752809D01*
X1525523Y8752839D01*
X1471676Y8752839D01*
G37*
G36*
X1471676Y8861805D02*
G01*
X1471599Y8861821D01*
X1470075Y8862075D01*
X1468551Y8862837D01*
X1467535Y8863853D01*
X1466773Y8865377D01*
X1466519Y8866901D01*
X1466595Y8866886D01*
X1466595Y8945879D01*
X1466519Y8945910D01*
X1466773Y8947434D01*
X1467535Y8948958D01*
X1468551Y8949974D01*
X1470075Y8950736D01*
X1471599Y8950990D01*
X1471676Y8950960D01*
X1525523Y8950960D01*
X1525600Y8950990D01*
X1527124Y8950736D01*
X1528648Y8949974D01*
X1529664Y8948958D01*
X1530426Y8947434D01*
X1530680Y8945910D01*
X1530604Y8945879D01*
X1530604Y8866886D01*
X1530680Y8866901D01*
X1530426Y8865377D01*
X1529664Y8863853D01*
X1528648Y8862837D01*
X1527124Y8862075D01*
X1525600Y8861821D01*
X1525523Y8861805D01*
G37*
G36*
X1147635Y7600619D02*
G01*
X1146111Y7600873D01*
X1144587Y7601635D01*
X1143571Y7602651D01*
X1142809Y7604175D01*
X1142555Y7605699D01*
X1142492Y7605776D01*
X1142492Y7659623D01*
X1142555Y7659700D01*
X1142809Y7661224D01*
X1143571Y7662748D01*
X1144587Y7663764D01*
X1146111Y7664526D01*
X1147635Y7664780D01*
X1147571Y7664704D01*
X1204213Y7664704D01*
X1204198Y7664780D01*
X1205722Y7664526D01*
X1207246Y7663764D01*
X1208262Y7662748D01*
X1209024Y7661224D01*
X1209278Y7659700D01*
X1209294Y7659623D01*
X1209294Y7605776D01*
X1209278Y7605699D01*
X1209024Y7604175D01*
X1208262Y7602651D01*
X1207246Y7601635D01*
X1205722Y7600873D01*
X1204198Y7600619D01*
X1204213Y7600695D01*
X1147571Y7600695D01*
G37*
G36*
X1234201Y7600619D02*
G01*
X1232677Y7600873D01*
X1231153Y7601635D01*
X1230137Y7602651D01*
X1229375Y7604175D01*
X1229121Y7605699D01*
X1229105Y7605776D01*
X1229105Y7659623D01*
X1229121Y7659700D01*
X1229375Y7661224D01*
X1230137Y7662748D01*
X1231153Y7663764D01*
X1232677Y7664526D01*
X1234201Y7664780D01*
X1234186Y7664704D01*
X1290828Y7664704D01*
X1290764Y7664780D01*
X1292288Y7664526D01*
X1293812Y7663764D01*
X1294828Y7662748D01*
X1295590Y7661224D01*
X1295844Y7659700D01*
X1295907Y7659623D01*
X1295907Y7605776D01*
X1295844Y7605699D01*
X1295590Y7604175D01*
X1294828Y7602651D01*
X1293812Y7601635D01*
X1292288Y7600873D01*
X1290764Y7600619D01*
X1290828Y7600695D01*
X1234186Y7600695D01*
G37*
G36*
X1458976Y8000492D02*
G01*
X1458899Y8000555D01*
X1457375Y8000809D01*
X1455851Y8001571D01*
X1454835Y8002587D01*
X1454073Y8004111D01*
X1453819Y8005635D01*
X1453895Y8005571D01*
X1453895Y8062213D01*
X1453819Y8062198D01*
X1454073Y8063722D01*
X1454835Y8065246D01*
X1455851Y8066262D01*
X1457375Y8067024D01*
X1458899Y8067278D01*
X1458976Y8067294D01*
X1512823Y8067294D01*
X1512900Y8067278D01*
X1514424Y8067024D01*
X1515948Y8066262D01*
X1516964Y8065246D01*
X1517726Y8063722D01*
X1517980Y8062198D01*
X1517904Y8062213D01*
X1517904Y8005571D01*
X1517980Y8005635D01*
X1517726Y8004111D01*
X1516964Y8002587D01*
X1515948Y8001571D01*
X1514424Y8000809D01*
X1512900Y8000555D01*
X1512823Y8000492D01*
G37*
G36*
X1458976Y8087105D02*
G01*
X1458899Y8087121D01*
X1457375Y8087375D01*
X1455851Y8088137D01*
X1454835Y8089153D01*
X1454073Y8090677D01*
X1453819Y8092201D01*
X1453895Y8092186D01*
X1453895Y8148828D01*
X1453819Y8148764D01*
X1454073Y8150288D01*
X1454835Y8151812D01*
X1455851Y8152828D01*
X1457375Y8153590D01*
X1458899Y8153844D01*
X1458976Y8153908D01*
X1512823Y8153908D01*
X1512900Y8153844D01*
X1514424Y8153590D01*
X1515948Y8152828D01*
X1516964Y8151812D01*
X1517726Y8150288D01*
X1517980Y8148764D01*
X1517904Y8148828D01*
X1517904Y8092186D01*
X1517980Y8092201D01*
X1517726Y8090677D01*
X1516964Y8089153D01*
X1515948Y8088137D01*
X1514424Y8087375D01*
X1512900Y8087121D01*
X1512823Y8087105D01*
G37*
G36*
X883889Y7537119D02*
G01*
X882365Y7537373D01*
X880841Y7538135D01*
X879825Y7539151D01*
X879063Y7540675D01*
X878809Y7542199D01*
X878839Y7542276D01*
X878839Y7596123D01*
X878809Y7596200D01*
X879063Y7597724D01*
X879825Y7599248D01*
X880841Y7600264D01*
X882365Y7601026D01*
X883889Y7601280D01*
X883920Y7601204D01*
X962913Y7601204D01*
X962898Y7601280D01*
X964422Y7601026D01*
X965946Y7600264D01*
X966962Y7599248D01*
X967724Y7597724D01*
X967978Y7596200D01*
X967994Y7596123D01*
X967994Y7542276D01*
X967978Y7542199D01*
X967724Y7540675D01*
X966962Y7539151D01*
X965946Y7538135D01*
X964422Y7537373D01*
X962898Y7537119D01*
X962913Y7537195D01*
X883920Y7537195D01*
G37*
G36*
X992901Y7537119D02*
G01*
X991377Y7537373D01*
X989853Y7538135D01*
X988837Y7539151D01*
X988075Y7540675D01*
X987821Y7542199D01*
X987805Y7542276D01*
X987805Y7596123D01*
X987821Y7596200D01*
X988075Y7597724D01*
X988837Y7599248D01*
X989853Y7600264D01*
X991377Y7601026D01*
X992901Y7601280D01*
X992886Y7601204D01*
X1071879Y7601204D01*
X1071910Y7601280D01*
X1073434Y7601026D01*
X1074958Y7600264D01*
X1075974Y7599248D01*
X1076736Y7597724D01*
X1076990Y7596200D01*
X1076960Y7596123D01*
X1076960Y7542276D01*
X1076990Y7542199D01*
X1076736Y7540675D01*
X1075974Y7539151D01*
X1074958Y7538135D01*
X1073434Y7537373D01*
X1071910Y7537119D01*
X1071879Y7537195D01*
X992886Y7537195D01*
G37*
M02*
