G04 Layer: TopPasteMaskLayer*
G04 EasyEDA v6.5.9, 2022-07-20 11:51:06*
G04 f1700a5533a94dbab9b25466b2df9886,20d39a695127413eb41274384cfbb926,10*
G04 Gerber Generator version 0.2*
G04 Scale: 100 percent, Rotated: No, Reflected: No *
G04 Dimensions in millimeters *
G04 leading zeros omitted , absolute positions ,4 integer and 5 decimal *
%FSLAX45Y45*%
%MOMM*%

%ADD10C,0.5684*%

%LPD*%
G36*
X1411224Y8676487D02*
G01*
X1406194Y8671509D01*
X1406194Y8556498D01*
X1411224Y8551519D01*
X1453184Y8551976D01*
X1453184Y8596020D01*
X1498193Y8596020D01*
X1498193Y8551011D01*
X1539189Y8551519D01*
X1544218Y8556498D01*
X1544218Y8671509D01*
X1539189Y8676487D01*
G37*
G36*
X1411224Y8461502D02*
G01*
X1406194Y8456523D01*
X1406194Y8341512D01*
X1411224Y8336483D01*
X1539189Y8336483D01*
X1544218Y8341512D01*
X1544218Y8456523D01*
X1539189Y8461502D01*
X1498193Y8460994D01*
X1498193Y8417001D01*
X1453184Y8417001D01*
X1453184Y8461502D01*
G37*
G36*
X1285595Y8929878D02*
G01*
X1280617Y8924899D01*
X1280617Y8876893D01*
X1285595Y8869883D01*
X1330604Y8869883D01*
X1335582Y8876893D01*
X1335582Y8924899D01*
X1330604Y8929878D01*
G37*
G36*
X1285595Y8833916D02*
G01*
X1280617Y8826906D01*
X1280617Y8778900D01*
X1285595Y8773922D01*
X1330604Y8773922D01*
X1335582Y8778900D01*
X1335582Y8826906D01*
X1330604Y8833916D01*
G37*
G36*
X1393799Y7878216D02*
G01*
X1393799Y7818221D01*
X1433677Y7818221D01*
X1433779Y7878216D01*
G37*
G36*
X1458772Y7878165D02*
G01*
X1458772Y7818170D01*
X1498701Y7818170D01*
X1498803Y7878165D01*
G37*
G36*
X1523796Y7878165D02*
G01*
X1523796Y7818170D01*
X1563674Y7818170D01*
X1563776Y7878165D01*
G37*
G36*
X1588820Y7878165D02*
G01*
X1588820Y7818170D01*
X1628698Y7818170D01*
X1628800Y7878165D01*
G37*
G36*
X1588820Y7574178D02*
G01*
X1588820Y7514183D01*
X1628698Y7514183D01*
X1628800Y7574178D01*
G37*
G36*
X1523796Y7574178D02*
G01*
X1523796Y7514183D01*
X1563674Y7514183D01*
X1563776Y7574178D01*
G37*
G36*
X1458772Y7574178D02*
G01*
X1458772Y7514183D01*
X1498701Y7514183D01*
X1498803Y7574178D01*
G37*
G36*
X1393799Y7574178D02*
G01*
X1393799Y7514183D01*
X1433677Y7514183D01*
X1433779Y7574178D01*
G37*
G36*
X1381302Y7763713D02*
G01*
X1381302Y7596225D01*
X1641297Y7596225D01*
X1641297Y7763713D01*
G37*
G36*
X806297Y8703919D02*
G01*
X799490Y8703462D01*
X792835Y8702243D01*
X786384Y8700211D01*
X780237Y8697366D01*
X774496Y8693810D01*
X769213Y8689543D01*
X764489Y8684666D01*
X760425Y8679281D01*
X757021Y8673439D01*
X754380Y8667191D01*
X752551Y8660688D01*
X751484Y8653983D01*
X751281Y8647226D01*
X751484Y8643823D01*
X752551Y8637117D01*
X754380Y8630615D01*
X757021Y8624366D01*
X760425Y8618524D01*
X764489Y8613140D01*
X769213Y8608263D01*
X774496Y8603996D01*
X780237Y8600440D01*
X786384Y8597595D01*
X792835Y8595563D01*
X799490Y8594344D01*
X806297Y8593886D01*
X899668Y8593988D01*
X906373Y8594852D01*
X912926Y8596477D01*
X919276Y8598916D01*
X925220Y8602116D01*
X930757Y8606028D01*
X935736Y8610600D01*
X940155Y8615781D01*
X943914Y8621420D01*
X946912Y8627465D01*
X949198Y8633866D01*
X950620Y8640470D01*
X951230Y8647226D01*
X951026Y8653983D01*
X950010Y8660688D01*
X948131Y8667191D01*
X945489Y8673439D01*
X942136Y8679281D01*
X938021Y8684666D01*
X933348Y8689543D01*
X928065Y8693810D01*
X922274Y8697366D01*
X916127Y8700211D01*
X909675Y8702243D01*
X903020Y8703462D01*
X899668Y8703818D01*
G37*
G36*
X806297Y7839913D02*
G01*
X799490Y7839456D01*
X792835Y7838236D01*
X786384Y7836204D01*
X780237Y7833359D01*
X774496Y7829803D01*
X769213Y7825536D01*
X764489Y7820659D01*
X760425Y7815275D01*
X757021Y7809433D01*
X754380Y7803184D01*
X752551Y7796682D01*
X751484Y7789976D01*
X751281Y7783220D01*
X751484Y7779816D01*
X752551Y7773111D01*
X754380Y7766608D01*
X757021Y7760360D01*
X760425Y7754518D01*
X764489Y7749133D01*
X769213Y7744256D01*
X774496Y7739989D01*
X780237Y7736433D01*
X786384Y7733588D01*
X792835Y7731556D01*
X799490Y7730337D01*
X806297Y7729880D01*
X899668Y7729981D01*
X906373Y7730845D01*
X912926Y7732471D01*
X919276Y7734909D01*
X925220Y7738109D01*
X930757Y7742021D01*
X935736Y7746593D01*
X940155Y7751775D01*
X943914Y7757414D01*
X946912Y7763459D01*
X949198Y7769859D01*
X950620Y7776464D01*
X951230Y7783220D01*
X951026Y7789976D01*
X950010Y7796682D01*
X948131Y7803184D01*
X945489Y7809433D01*
X942136Y7815275D01*
X938021Y7820659D01*
X933348Y7825536D01*
X928065Y7829803D01*
X922274Y7833359D01*
X916127Y7836204D01*
X909675Y7838236D01*
X903020Y7839456D01*
X899668Y7839811D01*
G37*
G36*
X1186281Y7839913D02*
G01*
X1182878Y7839811D01*
X1176172Y7838948D01*
X1169619Y7837322D01*
X1163269Y7834884D01*
X1157325Y7831683D01*
X1151788Y7827772D01*
X1146810Y7823200D01*
X1142390Y7818018D01*
X1138631Y7812379D01*
X1135634Y7806334D01*
X1133398Y7799933D01*
X1132535Y7796682D01*
X1131519Y7789976D01*
X1131316Y7783220D01*
X1131925Y7776464D01*
X1132535Y7773111D01*
X1134414Y7766608D01*
X1137056Y7760360D01*
X1140409Y7754518D01*
X1144524Y7749133D01*
X1149197Y7744256D01*
X1154480Y7739989D01*
X1160272Y7736433D01*
X1166418Y7733588D01*
X1172870Y7731556D01*
X1179525Y7730337D01*
X1182878Y7729981D01*
X1276299Y7729880D01*
X1283055Y7730337D01*
X1289710Y7731556D01*
X1296162Y7733588D01*
X1302308Y7736433D01*
X1308049Y7739989D01*
X1313332Y7744256D01*
X1318056Y7749133D01*
X1322120Y7754518D01*
X1325524Y7760360D01*
X1328166Y7766608D01*
X1329994Y7773111D01*
X1331061Y7779816D01*
X1331264Y7786573D01*
X1331061Y7789976D01*
X1329994Y7796682D01*
X1328166Y7803184D01*
X1325524Y7809433D01*
X1322120Y7815275D01*
X1318056Y7820659D01*
X1313332Y7825536D01*
X1308049Y7829803D01*
X1302308Y7833359D01*
X1296162Y7836204D01*
X1289710Y7838236D01*
X1283055Y7839456D01*
X1276299Y7839913D01*
G37*
G36*
X1171346Y7991906D02*
G01*
X1171346Y7901889D01*
X1291336Y7901889D01*
X1291336Y7991906D01*
G37*
G36*
X1171549Y8104886D02*
G01*
X1171549Y8024875D01*
X1291539Y8024875D01*
X1291539Y8104886D01*
G37*
G36*
X1171143Y8201914D02*
G01*
X1171143Y8131911D01*
X1291132Y8131911D01*
X1291132Y8201914D01*
G37*
G36*
X1171143Y8301888D02*
G01*
X1171143Y8231886D01*
X1291132Y8231886D01*
X1291132Y8301888D01*
G37*
G36*
X1171295Y8408924D02*
G01*
X1171295Y8328914D01*
X1291285Y8328914D01*
X1291285Y8408924D01*
G37*
G36*
X1171346Y8531910D02*
G01*
X1171346Y8441893D01*
X1291336Y8441893D01*
X1291336Y8531910D01*
G37*
G36*
X1186281Y8703919D02*
G01*
X1182878Y8703818D01*
X1176172Y8702954D01*
X1169619Y8701328D01*
X1163269Y8698890D01*
X1157325Y8695690D01*
X1151788Y8691778D01*
X1146810Y8687206D01*
X1142390Y8682024D01*
X1138631Y8676386D01*
X1135634Y8670340D01*
X1133398Y8663940D01*
X1132535Y8660688D01*
X1131519Y8653983D01*
X1131316Y8647226D01*
X1131925Y8640470D01*
X1132535Y8637117D01*
X1134414Y8630615D01*
X1137056Y8624366D01*
X1140409Y8618524D01*
X1144524Y8613140D01*
X1149197Y8608263D01*
X1154480Y8603996D01*
X1160272Y8600440D01*
X1166418Y8597595D01*
X1172870Y8595563D01*
X1179525Y8594344D01*
X1182878Y8593988D01*
X1276299Y8593886D01*
X1283055Y8594344D01*
X1289710Y8595563D01*
X1296162Y8597595D01*
X1302308Y8600440D01*
X1308049Y8603996D01*
X1313332Y8608263D01*
X1318056Y8613140D01*
X1322120Y8618524D01*
X1325524Y8624366D01*
X1328166Y8630615D01*
X1329994Y8637117D01*
X1331061Y8643823D01*
X1331264Y8650579D01*
X1331061Y8653983D01*
X1329994Y8660688D01*
X1328166Y8667191D01*
X1325524Y8673439D01*
X1322120Y8679281D01*
X1318056Y8684666D01*
X1313332Y8689543D01*
X1308049Y8693810D01*
X1302308Y8697366D01*
X1296162Y8700211D01*
X1289710Y8702243D01*
X1283055Y8703462D01*
X1276299Y8703919D01*
G37*
G36*
X1980996Y7839811D02*
G01*
X1970989Y7829803D01*
X1970989Y7701280D01*
X1980996Y7691323D01*
X2133803Y7691323D01*
X2143810Y7701280D01*
X2143810Y7829803D01*
X2133803Y7839811D01*
X2096770Y7839811D01*
X2086762Y7829803D01*
X2086762Y7799324D01*
X2076754Y7789316D01*
X2038045Y7789316D01*
X2028037Y7799324D01*
X2028037Y7829803D01*
X2018030Y7839811D01*
G37*
G36*
X1980996Y8158276D02*
G01*
X1970989Y8148320D01*
X1970989Y8019796D01*
X1980996Y8009788D01*
X2018030Y8009788D01*
X2028037Y8019796D01*
X2028037Y8050275D01*
X2038045Y8060283D01*
X2076754Y8060283D01*
X2086762Y8050275D01*
X2086762Y8019796D01*
X2096770Y8009788D01*
X2133803Y8009788D01*
X2143810Y8019796D01*
X2143810Y8148320D01*
X2133803Y8158276D01*
G37*
G36*
X1739696Y7839811D02*
G01*
X1729689Y7829803D01*
X1729689Y7701280D01*
X1739696Y7691323D01*
X1892503Y7691323D01*
X1902510Y7701280D01*
X1902510Y7829803D01*
X1892503Y7839811D01*
X1855470Y7839811D01*
X1845462Y7829803D01*
X1845462Y7799324D01*
X1835454Y7789316D01*
X1796745Y7789316D01*
X1786737Y7799324D01*
X1786737Y7829803D01*
X1776730Y7839811D01*
G37*
G36*
X1739696Y8158276D02*
G01*
X1729689Y8148320D01*
X1729689Y8019796D01*
X1739696Y8009788D01*
X1776730Y8009788D01*
X1786737Y8019796D01*
X1786737Y8050275D01*
X1796745Y8060283D01*
X1835454Y8060283D01*
X1845462Y8050275D01*
X1845462Y8019796D01*
X1855470Y8009788D01*
X1892503Y8009788D01*
X1902510Y8019796D01*
X1902510Y8148320D01*
X1892503Y8158276D01*
G37*
G36*
X1476095Y8929878D02*
G01*
X1471117Y8924899D01*
X1471117Y8876893D01*
X1476095Y8869883D01*
X1521104Y8869883D01*
X1526082Y8876893D01*
X1526082Y8924899D01*
X1521104Y8929878D01*
G37*
G36*
X1476095Y8833916D02*
G01*
X1471117Y8826906D01*
X1471117Y8778900D01*
X1476095Y8773922D01*
X1521104Y8773922D01*
X1526082Y8778900D01*
X1526082Y8826906D01*
X1521104Y8833916D01*
G37*
G36*
X1151636Y7659725D02*
G01*
X1147622Y7655712D01*
X1147622Y7609687D01*
X1151636Y7605674D01*
X1201724Y7605674D01*
X1205687Y7609687D01*
X1205687Y7655712D01*
X1201724Y7659725D01*
G37*
G36*
X1236675Y7659725D02*
G01*
X1232712Y7655712D01*
X1232712Y7609687D01*
X1236675Y7605674D01*
X1286764Y7605674D01*
X1290777Y7609687D01*
X1290777Y7655712D01*
X1286764Y7659725D01*
G37*
G36*
X1551787Y8063687D02*
G01*
X1547774Y8059724D01*
X1547774Y8009636D01*
X1551787Y8005622D01*
X1597812Y8005622D01*
X1601825Y8009636D01*
X1601825Y8059724D01*
X1597812Y8063687D01*
G37*
G36*
X1551787Y8148777D02*
G01*
X1547774Y8144764D01*
X1547774Y8094675D01*
X1551787Y8090712D01*
X1597812Y8090712D01*
X1601825Y8094675D01*
X1601825Y8144764D01*
X1597812Y8148777D01*
G37*
G36*
X1002893Y7596682D02*
G01*
X995883Y7591704D01*
X995883Y7546695D01*
X1002893Y7541717D01*
X1050899Y7541717D01*
X1055878Y7546695D01*
X1055878Y7591704D01*
X1050899Y7596682D01*
G37*
G36*
X904900Y7596682D02*
G01*
X899921Y7591704D01*
X899921Y7546695D01*
X904900Y7541717D01*
X952906Y7541717D01*
X959916Y7546695D01*
X959916Y7591704D01*
X952906Y7596682D01*
G37*
G36*
X1386687Y8148777D02*
G01*
X1382674Y8144764D01*
X1382674Y8094675D01*
X1386687Y8090712D01*
X1432712Y8090712D01*
X1436725Y8094675D01*
X1436725Y8144764D01*
X1432712Y8148777D01*
G37*
G36*
X1386687Y8063687D02*
G01*
X1382674Y8059724D01*
X1382674Y8009636D01*
X1386687Y8005622D01*
X1432712Y8005622D01*
X1436725Y8009636D01*
X1436725Y8059724D01*
X1432712Y8063687D01*
G37*
G36*
X1380236Y8269325D02*
G01*
X1376222Y8265312D01*
X1376222Y8219287D01*
X1380236Y8215274D01*
X1430324Y8215274D01*
X1434287Y8219287D01*
X1434287Y8265312D01*
X1430324Y8269325D01*
G37*
G36*
X1465275Y8269325D02*
G01*
X1461312Y8265312D01*
X1461312Y8219287D01*
X1465275Y8215274D01*
X1515364Y8215274D01*
X1519377Y8219287D01*
X1519377Y8265312D01*
X1515364Y8269325D01*
G37*
D10*
X1689100Y8409180D02*
G01*
X1689100Y8270999D01*
X1816100Y8409180D02*
G01*
X1816100Y8270999D01*
X1943100Y8409180D02*
G01*
X1943100Y8270999D01*
X2070100Y8409180D02*
G01*
X2070100Y8270999D01*
X1689100Y8950200D02*
G01*
X1689100Y8812019D01*
X1816100Y8950200D02*
G01*
X1816100Y8812019D01*
X1943100Y8950200D02*
G01*
X1943100Y8812019D01*
X2070100Y8950200D02*
G01*
X2070100Y8812019D01*
G36*
X1237599Y7377099D02*
G01*
X1437599Y7377099D01*
X1437599Y7177100D01*
X1237599Y7177100D01*
G37*
G36*
X797600Y7377099D02*
G01*
X997600Y7377099D01*
X997600Y7177100D01*
X797600Y7177100D01*
G37*
G36*
X1802500Y7621595D02*
G01*
X1882500Y7621595D01*
X1882500Y7441595D01*
X1802500Y7441595D01*
G37*
G36*
X1927499Y7621595D02*
G01*
X2007499Y7621595D01*
X2007499Y7441595D01*
X1927499Y7441595D01*
G37*
G36*
X1494998Y7421598D02*
G01*
X1674997Y7421598D01*
X1674997Y7131596D01*
X1494998Y7131596D01*
G37*
G36*
X2134991Y7421598D02*
G01*
X2314991Y7421598D01*
X2314991Y7131596D01*
X2134991Y7131596D01*
G37*
M02*
